<svg width="60" height="60" viewBox="0 0 60 60" fill="none" xmlns="http://www.w3.org/2000/svg">
<path d="M12.0961 0C12.5861 0.32 12.9261 0.766 12.5721 1.354C12.5241 1.434 12.0901 1.756 12.0381 1.756H5.4261V8.368C5.4261 8.99 3.8641 9.434 3.6781 8.244C3.8681 5.922 3.4001 3.14 3.6681 0.876C3.7241 0.41 3.9061 0.268 4.2561 0H12.0961Z" fill="#F5F9FF"/>
<path d="M55.7444 0C56.0944 0.268 56.2764 0.41 56.3324 0.876C56.6004 3.14 56.1344 5.922 56.3224 8.244C56.1364 9.434 54.5744 8.99 54.5744 8.368V1.756H47.9624C47.9104 1.756 47.4764 1.434 47.4284 1.354C47.0744 0.766 47.4144 0.32 47.9044 0H55.7444Z" fill="#F5F9FF"/>
<path d="M47.3175 5.38105H19.9355V12.109C19.9355 12.227 19.5275 12.635 19.4095 12.635H12.6815V27.2631H47.3195V17.023C47.3195 16.551 48.2615 16.357 48.6735 16.605C48.7535 16.653 49.0755 17.087 49.0755 17.139V27.261H55.6875C56.0735 27.261 56.3055 27.915 56.3375 28.251C56.4095 29.037 56.4395 31.139 56.3255 31.8771C56.2835 32.139 55.9335 32.6451 55.6895 32.6451H49.0775V55.5231C49.0775 55.8991 48.4975 56.3791 48.0875 56.2891L11.5975 56.259C11.1095 56.133 10.9795 55.7451 10.9295 55.2891C10.6195 52.5351 11.1555 49.2171 10.9355 46.4031C11.0155 45.8211 11.6755 45.4471 12.2135 45.6971C12.2735 45.7251 12.6835 46.1291 12.6835 46.1631V54.5291H47.3215V32.6471H31.6995C31.6475 32.6471 31.2135 32.3251 31.1655 32.2451C30.8675 31.751 31.2255 30.8911 31.6995 30.8911H54.5775V29.0191H5.42552V30.8911H28.3035C28.7515 30.8911 29.1195 31.779 28.8375 32.2451C28.7895 32.3251 28.3555 32.6471 28.3035 32.6471H12.6815V43.0031C12.6815 43.0371 12.2715 43.4411 12.2115 43.4691C11.7715 43.6711 10.9255 43.3111 10.9255 42.8871V32.6471H4.31352C3.92752 32.6471 3.69552 31.993 3.66352 31.657C3.59152 30.871 3.56152 28.769 3.67552 28.031C3.71752 27.769 4.06752 27.2631 4.31152 27.2631H10.9235V11.643C10.9235 11.555 11.1355 11.217 11.2115 11.111L18.4115 3.91705L18.8475 3.65105L48.1975 3.62305C48.8175 3.66305 49.0095 4.06305 49.0715 4.62105C49.3775 7.34705 48.8435 10.613 49.0715 13.397C49.0595 14.125 48.4375 14.665 47.7395 14.261C47.6235 14.193 47.3175 13.841 47.3175 13.747V5.38105ZM18.1815 10.881V6.66905L13.9695 10.881H18.1815Z" fill="#F5F9FF"/>
<path d="M41.5519 14.7787C41.9319 15.1607 41.8439 15.9547 41.3219 16.1787L19.0579 16.2687C17.7539 16.1187 18.0599 14.4247 19.2879 14.5047H40.7139C40.9479 14.5047 41.3959 14.6207 41.5519 14.7767V14.7787Z" fill="#F5F9FF"/>
<path d="M18.9659 18.1628L40.8259 18.1348C42.0339 18.2768 42.0719 19.7688 41.0639 19.8988H18.9359C17.9199 19.6488 18.0159 18.4688 18.9659 18.1628Z" fill="#F5F9FF"/>
<path d="M19.0859 36.4196L40.5939 36.3876C41.8039 36.3456 42.3239 37.7636 41.0639 38.1536H18.9359C17.9719 38.0296 17.9339 36.6276 19.0859 36.4196Z" fill="#F5F9FF"/>
<path d="M19.2063 40.0522L40.4763 40.0182C41.7323 39.9482 42.4323 41.3202 41.0623 41.7842H18.9343C17.7583 41.4642 18.0823 40.1382 19.2043 40.0542L19.2063 40.0522Z" fill="#F5F9FF"/>
<path d="M18.7321 43.7898L33.8101 43.7598C34.9861 44.0738 34.5921 45.5038 33.4521 45.5218H19.2921C18.2541 45.4518 17.7301 44.4018 18.7321 43.7918V43.7898Z" fill="#F5F9FF"/>
<path d="M19.0859 21.7937L33.4519 21.7657C34.6479 21.7577 34.9619 23.3777 33.6879 23.5237L18.9359 23.5277C17.9719 23.4037 17.9339 22.0017 19.0859 21.7937Z" fill="#F5F9FF"/>
<path d="M5.42594 58.1589H12.0379C12.0899 58.1589 12.5239 58.4809 12.5719 58.5609C12.9079 59.1189 12.6039 59.7149 12.0139 59.8909C9.65394 59.7729 6.98594 60.1329 4.65994 59.9209C4.07194 59.8669 3.74194 59.6789 3.66794 59.0409C3.40394 56.7709 3.86394 53.9989 3.67794 51.6729C3.76794 51.0549 4.47994 50.6829 5.02594 51.0149C5.10594 51.0629 5.42794 51.4969 5.42794 51.5489V58.1609L5.42594 58.1589Z" fill="#F5F9FF"/>
<path d="M54.5736 58.1574V51.5454C54.5736 51.4934 54.8956 51.0594 54.9756 51.0114C55.4876 50.6994 56.1476 51.0054 56.3056 51.5714C56.1876 53.9314 56.5476 56.5994 56.3356 58.9234C56.2816 59.5114 56.0936 59.8414 55.4556 59.9154C53.1856 60.1794 50.4136 59.7194 48.0876 59.9054C47.4716 59.7874 47.1076 59.2234 47.3816 58.6254C47.4296 58.5194 47.8896 58.1554 47.9636 58.1554H54.5756L54.5736 58.1574Z" fill="#F5F9FF"/>
</svg>
