<svg width="60" height="60" viewBox="0 0 60 60" fill="none" xmlns="http://www.w3.org/2000/svg">
<path d="M47.7537 0.162576C51.8737 0.578576 55.5497 4.30458 55.9277 8.40258L55.9477 51.4406C55.5437 55.9226 51.9197 59.4406 47.4597 59.8926L19.7337 59.8966C18.6057 59.8026 18.5977 58.2406 19.7337 58.1406L47.1157 58.1486C50.1517 58.2586 54.1877 54.6846 54.1877 51.6686V30.9606L53.3037 31.0706L49.7357 34.6286C49.8237 37.8446 47.1617 40.5206 43.8937 39.3006C39.2077 37.5486 41.1617 30.6106 46.1137 31.1326C47.7117 29.8366 49.1997 27.6746 50.7917 26.4666C50.9637 26.3366 51.6337 25.9446 51.7877 25.9446H54.1857V24.7786H44.0677C43.7557 25.2546 42.5057 26.1106 42.3157 26.5306C42.1597 26.8706 42.2937 27.5226 42.2277 27.9586C41.8157 30.6386 38.5657 32.0046 36.2097 30.8666C32.8697 29.2526 33.2957 24.0686 36.8717 23.0846C37.4217 22.9326 38.4317 22.9926 38.7437 22.8506C39.5977 22.4646 40.7877 20.3526 42.0557 19.8546C42.7697 19.5746 45.7137 19.5246 46.5177 19.6506C47.5097 19.8066 47.5577 21.1806 46.7337 21.3686C45.5237 21.6446 43.4177 21.0006 42.3797 21.6926C42.1497 21.8466 40.4657 23.5326 40.4997 23.6646L41.6037 24.6566L43.3657 23.0266H54.1857V21.3926H49.6817C49.4037 21.3926 49.0437 20.8066 49.0517 20.5146C49.0597 20.1826 49.4857 19.6426 49.7997 19.6426H54.1857V18.4766H47.5757C46.4577 18.4766 42.7377 14.0006 41.6657 13.1646C37.9717 13.5826 35.4797 9.38858 37.8097 6.40458C40.3937 3.09858 45.7217 5.27858 45.2957 9.43258L49.2117 13.4606H54.1837V8.38658C54.1837 5.15858 50.2777 2.13658 47.2277 1.90658C43.0397 1.59258 38.4637 2.15458 34.2337 1.90658C31.4417 2.18458 29.4717 4.18858 29.2617 6.98058C28.7937 13.1986 31.2017 20.3126 24.4717 24.0206C18.4917 27.3166 7.75566 21.3706 5.98166 29.9646C6.39766 36.9026 5.44166 44.4586 5.98166 51.3226C6.25566 54.8206 9.24766 57.7806 12.7257 58.1286C13.8197 58.2386 15.4617 57.9506 16.4297 58.1666C17.3977 58.3826 17.3757 59.7586 16.2237 59.8946C10.3617 60.5886 5.10166 57.7446 4.24566 51.6526C4.64366 43.8246 3.66566 35.3886 4.22566 27.6306C4.39566 25.2726 5.55766 22.8086 7.09366 21.0426C12.5257 14.7986 19.5857 9.21258 25.1677 3.01858C27.0257 1.42058 29.1817 0.534576 31.6037 0.162576C36.7617 0.546576 42.6777 -0.349424 47.7477 0.162576H47.7537ZM29.0357 2.73058C27.9377 3.03858 26.9017 3.84458 26.0497 4.59458C19.9777 9.92858 14.5297 16.6386 8.50366 22.0966C7.79766 22.9986 7.06366 23.9146 6.69166 25.0146C7.22566 24.7806 7.65766 24.3686 8.18766 24.1166C13.6577 21.5106 22.4897 26.3866 26.4377 19.8006C29.0537 15.4386 26.0857 8.25258 28.2697 4.01058C28.3677 3.82058 29.1257 2.81858 29.0337 2.73258L29.0357 2.73058ZM40.5857 6.60858C37.3457 7.15658 38.6137 12.6046 42.0637 11.2326C44.6517 10.2046 43.7237 6.07658 40.5857 6.60858ZM54.1877 15.2126H48.6317L44.6537 11.3646L43.5437 12.4706L47.8117 16.7286H54.1877V15.2126ZM37.6617 24.6906C34.7137 25.1846 35.2237 29.6866 38.2137 29.5666C41.5197 29.4326 41.1277 24.1106 37.6617 24.6906ZM54.1877 27.6966H52.1397C51.8197 27.6966 48.4917 31.3406 47.9217 31.7806C47.7777 32.0206 48.8417 32.9586 48.9657 32.9386L52.6237 29.3446L54.1897 29.2146V27.6966H54.1877ZM45.0317 32.9746C42.0557 33.4306 42.4097 38.0286 45.5837 37.8486C48.8997 37.6606 48.3717 32.4626 45.0317 32.9746Z" fill="#F5F9FF"/>
<path d="M11.572 35.655L36.466 35.627C37.632 35.735 37.6 37.263 36.466 37.383H11.896C10.872 37.287 10.604 36.045 11.572 35.655Z" fill="#F5F9FF"/>
<path d="M11.6896 40.2038L36.4676 40.1758C37.6036 40.2938 37.6336 41.8238 36.4676 41.9318H11.7796C10.7176 41.8078 10.7156 40.4978 11.6896 40.2038Z" fill="#F5F9FF"/>
<path d="M37.0759 44.9947C37.5659 45.4867 37.2999 46.4047 36.5879 46.4847L11.7799 46.4807C10.7579 46.4367 10.7259 45.0667 11.6259 44.8047L36.2379 44.7207C36.4719 44.7207 36.9199 44.8347 37.0759 44.9927V44.9947Z" fill="#F5F9FF"/>
<path d="M11.5723 31.1042L29.0963 31.0762C30.3203 31.2182 30.0003 32.8642 28.8603 32.8282H11.8963C10.9103 32.8342 10.6103 31.3142 11.5723 31.1042Z" fill="#F5F9FF"/>
<path d="M47.7199 51.0596C48.2319 51.5736 47.8799 52.5496 47.1119 52.5456L37.8699 52.5396C36.8499 52.0296 37.0359 50.9256 38.2179 50.7936C40.9439 50.4896 44.2079 51.0236 46.9939 50.7896C47.1879 50.8116 47.5899 50.9296 47.7179 51.0596H47.7199Z" fill="#F5F9FF"/>
</svg>
