<svg width="60" height="60" viewBox="0 0 60 60" fill="none" xmlns="http://www.w3.org/2000/svg">
<path d="M45.5856 0C47.2876 0.538 48.0216 2.006 47.8116 3.75C50.3376 3.39 51.8936 5.148 51.5616 7.616C53.2836 7.15 54.9856 8.148 55.3016 9.91L55.3116 57.474C55.1296 58.88 54.0156 59.986 52.5616 59.998L14.5016 59.964C12.7336 59.588 11.9756 57.952 12.1896 56.242C9.76159 56.592 8.11559 54.91 8.43959 52.492C6.60959 52.718 4.86559 51.828 4.68359 49.862V2.632C4.80759 1.278 5.65759 0.394 6.91559 0H45.5836H45.5856ZM8.44159 50.738V6.152C8.44159 5.144 9.91759 3.74 10.9596 3.75L41.1976 3.746C42.3736 3.738 42.5296 5.394 41.3116 5.512L10.8136 5.598C10.4416 5.816 10.1636 6.162 10.1916 6.616V53.496C10.3216 54.574 11.3196 54.546 12.1896 54.49V17.05C12.1896 15.824 13.6736 14.14 14.8816 13.884L49.8096 7.9C49.7776 6.836 50.0996 5.63 48.6956 5.502C47.5496 5.396 45.8696 5.704 44.8256 5.506C44.1516 5.378 43.8816 4.354 44.5356 3.932C45.0056 3.628 45.5216 3.78 46.0536 3.752C46.0956 2.904 46.1676 2.008 45.1676 1.766L7.14359 1.812L6.49959 2.456L6.44359 49.746C6.57159 50.824 7.56959 50.796 8.43759 50.74L8.44159 50.738ZM52.5856 9.754C43.3296 13.26 34.2256 17.736 24.9596 21.148C23.9016 21.538 23.2476 21.922 22.0876 21.448C20.6176 20.848 19.1156 17.568 17.9316 16.348C16.4796 14.852 13.9736 15.352 13.9436 17.63L14.0376 57.62C14.2536 57.99 14.5996 58.27 15.0556 58.242L52.9376 58.148C53.3076 57.932 53.5876 57.586 53.5596 57.13L53.5016 10.072C53.3756 9.638 52.9736 9.68 52.5856 9.754ZM46.5236 10.312L19.1076 15.056C20.4236 16.534 21.3296 18.374 22.7076 19.774L23.2376 19.894L46.5256 10.312H46.5236Z" fill="#F5F9FF"/>
<path d="M19.6901 31.0519H26.6621L31.4701 35.8539C31.6461 35.9219 31.8141 35.4839 31.8961 35.3479C35.3121 29.6819 29.6001 23.3519 23.3581 25.8739C22.7561 26.1179 21.8721 27.0439 21.3241 26.0779C20.6421 24.8759 23.1081 24.0179 23.9741 23.7959C33.6301 21.3179 38.7301 34.1939 30.5761 39.0699C24.1481 42.9119 16.3741 37.1199 18.0821 29.8579C18.2701 29.0599 19.0261 26.6379 20.2221 27.5319C21.0861 28.1779 19.5061 30.1239 19.6881 31.0519H19.6901ZM24.0261 32.8099H19.6901C19.8021 33.9259 20.2861 34.9539 20.9221 35.8579L24.0261 32.8099ZM30.2361 37.2599L26.2961 33.1699L22.2681 37.2019C24.7021 38.9879 27.7401 38.8599 30.2381 37.2599H30.2361Z" fill="#F5F9FF"/>
<path d="M19.0197 52.2283C18.6397 51.8443 18.7277 51.0503 19.2517 50.8263L47.8737 50.7363C49.1317 50.8823 48.9597 52.5063 47.7597 52.5023H19.8597C19.6257 52.5023 19.1777 52.3883 19.0197 52.2303V52.2283Z" fill="#F5F9FF"/>
<path d="M38.364 28.1978C36.938 26.7718 37.576 24.2178 39.49 23.6078C40.488 23.2898 45.724 23.3158 46.76 23.6078C49.542 24.3978 49.192 28.4858 46.672 28.9138C45.478 29.1158 41.172 29.0838 39.904 28.9418C39.4 28.8858 38.718 28.5498 38.364 28.1958V28.1978ZM40.282 25.2198C39.192 25.4178 38.974 26.7578 40.022 27.1818C41.914 26.9818 44.406 27.4638 46.222 27.1778C47.234 27.0178 47.332 25.4018 45.868 25.2038C44.914 25.0738 41.188 25.0578 40.282 25.2218V25.2198Z" fill="#F5F9FF"/>
<path d="M48.4839 44.7284C48.3259 44.8864 47.8799 45.0004 47.6439 45.0024L27.2459 44.9984C26.1319 44.8984 25.9119 43.3744 27.1279 43.2364L47.9939 43.2324C48.7079 43.3124 48.9739 44.2344 48.4819 44.7284H48.4839Z" fill="#F5F9FF"/>
<path d="M48.4842 48.4783C48.3262 48.6363 47.8802 48.7503 47.6442 48.7523L27.2462 48.7483C26.1122 48.6583 25.9602 47.1223 27.1302 46.9863H47.8762C48.6642 47.0043 49.0262 47.9343 48.4862 48.4783H48.4842Z" fill="#F5F9FF"/>
<path d="M20.9478 43.2652C25.0998 42.5572 25.4098 48.7652 21.5058 48.7532C18.2498 48.7432 17.8218 43.7972 20.9478 43.2652ZM21.1798 45.0192C20.1838 45.3132 20.4178 47.1792 21.7118 46.9672C23.0478 46.7472 22.6318 44.5912 21.1798 45.0192Z" fill="#F5F9FF"/>
<path d="M48.4841 40.0417C48.3121 40.2137 47.8901 40.2937 47.6441 40.3157C44.7801 40.5757 41.5221 40.1097 38.6161 40.3097C37.4261 40.3457 37.1681 38.6917 38.3801 38.5497C41.3481 38.2057 44.9581 38.8157 47.9961 38.5457C48.7101 38.6257 48.9761 39.5477 48.4841 40.0417Z" fill="#F5F9FF"/>
<path d="M38.1722 34.8269L47.9962 34.7949C49.2322 35.1469 48.7902 36.5089 47.6382 36.5589C44.7802 36.3229 41.4122 36.8769 38.6162 36.5589C37.3062 36.4109 37.3342 35.0189 38.1722 34.8269Z" fill="#F5F9FF"/>
<path d="M38.1717 31.0789L47.9957 31.0469C49.2317 31.3989 48.7897 32.7609 47.6377 32.8109C44.7837 32.6029 41.5397 33.0909 38.7337 32.8109C37.5557 32.6929 37.1077 31.7049 38.1717 31.0809V31.0789Z" fill="#F5F9FF"/>
</svg>
