<svg width="60" height="59" viewBox="0 0 60 59" fill="none" xmlns="http://www.w3.org/2000/svg">
<path d="M0 5.53264C0.75 3.19425 2.782 3.26112 4.804 3.34568V0.975826C4.804 0.71819 5.242 0.200951 5.5 0.11835C5.878 0.000348916 8.754 -0.00751784 9.174 0.0908165C9.432 0.149817 9.844 0.651322 9.844 0.853891V3.34568H16.172V0.853891C16.172 0.580522 16.648 0.120317 16.94 0.0711496C17.414 -0.00948452 20.12 -0.00555114 20.514 0.11835C20.772 0.198984 21.21 0.71819 21.21 0.975826V3.34568H27.538V0.731957C27.538 0.330752 28.194 0.0888498 28.528 0.0573828C29.224 -0.00751784 31.036 -0.0350515 31.69 0.0711496C31.952 0.114417 32.458 0.478254 32.458 0.731957V3.34568H38.786V0.975826C38.786 0.71819 39.224 0.200951 39.482 0.11835C39.876 -0.00555114 42.582 -0.00948452 43.056 0.0711496C43.348 0.120317 43.824 0.580522 43.824 0.853891V3.34568H50.152V0.731957C50.152 0.552988 50.668 0.114417 50.922 0.0711496C51.414 -0.0114512 54.204 0.00231561 54.576 0.155717C54.86 0.273718 55.192 0.804724 55.192 1.09579V3.34372C57.252 3.23162 59.576 3.24735 59.996 5.83551L60 56.2732C59.954 57.6007 58.886 58.7787 57.598 58.8869L18.282 58.8181C17.128 57.8288 18.206 56.7727 19.452 57.0579V33.7251H11.484V57.0579H14.706C15.54 57.0579 15.854 58.6863 14.7 58.8731C10.736 58.6096 6.306 59.2488 2.398 58.8849C1.188 58.7728 0.35 57.8465 0 56.6921L0 5.53264ZM8.086 1.8864H6.562V6.74805H8.086V1.8864ZM19.452 1.8864H17.928V6.74805H19.452V1.8864ZM30.702 1.8864H29.296V6.74805H30.702V1.8864ZM42.068 1.8864H40.544V6.74805H42.068V1.8864ZM53.434 1.8864H51.91V6.74805H53.434V1.8864ZM4.804 5.1688C4.056 5.25337 2.7 4.96427 2.076 5.40677C2.034 5.43627 1.758 5.80994 1.758 5.83748V11.7316H12.48C12.932 11.7316 13.346 12.1623 13.366 12.6461C13.416 13.8144 12.252 13.539 11.484 13.5548V16.8352H15.644C15.782 16.8352 16.288 17.3603 16.288 17.5039V21.8188H19.452V13.7377L19.276 13.5548H16.23C16.03 13.5548 15.706 12.8664 15.752 12.5753C15.808 12.2272 16.262 11.7316 16.582 11.7316H58.24V5.83748C58.24 5.80994 57.964 5.43627 57.922 5.40677C57.296 4.96427 55.94 5.25337 55.194 5.1688V7.53866C55.194 7.82973 54.86 8.3627 54.578 8.47874C54.22 8.62624 51.38 8.64787 50.942 8.5456C50.704 8.49054 50.156 7.98903 50.156 7.78056V5.16684H43.828V7.78056C43.828 7.98707 43.278 8.49054 43.042 8.5456C42.628 8.64197 39.858 8.63411 39.486 8.5161C39.228 8.43547 38.79 7.91626 38.79 7.65863V5.16684C36.924 5.33794 34.688 4.9387 32.866 5.16094C32.696 5.18257 32.564 5.17667 32.462 5.34974V7.9025C32.462 8.1562 31.956 8.522 31.694 8.5633C31.04 8.66951 29.228 8.64197 28.532 8.57707C28.196 8.5456 27.542 8.3037 27.542 7.9025V5.34974C27.44 5.17667 27.308 5.18257 27.138 5.16094C25.316 4.9387 23.08 5.33794 21.214 5.16684V7.65863C21.214 7.91626 20.776 8.4335 20.518 8.5161C20.146 8.63214 17.376 8.64001 16.962 8.5456C16.724 8.49054 16.176 7.98903 16.176 7.78056V5.16684H9.848V7.78056C9.848 7.98707 9.298 8.49054 9.062 8.5456C8.624 8.64787 5.784 8.62624 5.426 8.47874C5.142 8.36074 4.81 7.82973 4.81 7.53866V5.1688H4.804ZM9.726 16.8352V13.7357L9.55 13.5528H1.758V56.3892C1.758 56.4738 2.232 57.0579 2.286 57.0579H9.726V28.7435H7.324C7.286 28.7435 6.738 28.4032 6.676 28.3226C6.154 27.6657 6.594 24.6095 6.446 23.6399H3.926C3.54 23.6399 3.306 22.9614 3.276 22.6133C3.184 21.5592 3.14 18.617 3.288 17.6317C3.33 17.3583 3.682 16.8352 3.926 16.8352H9.726ZM29.06 13.5528H21.208V26.9204H25.368C25.506 26.9204 26.012 27.4455 26.012 27.589V31.9039H29.058V13.5548L29.06 13.5528ZM38.786 13.5528H30.934V31.902H32.868C32.92 31.902 33.356 32.2363 33.404 32.3189C33.652 32.7477 33.458 33.7251 32.986 33.7251H26.014V36.8246L26.19 37.0075H43.532L43.708 36.8246V33.7251H36.502C36.23 33.7251 35.91 33.0899 35.91 32.8145C35.91 32.5058 36.374 31.902 36.62 31.902H38.788V13.5528H38.786ZM48.512 13.5528H40.72L40.544 13.7357V31.9039H44.704C45.042 31.9039 45.408 32.6061 45.456 32.9483C45.582 33.8785 45.578 36.7322 45.47 37.6801C45.4 38.2799 44.964 38.8326 44.354 38.8326H40.546V57.0618H48.514V53.9013H46.112C45.916 53.9013 45.434 53.4746 45.376 53.2071C45.144 52.1274 45.488 50.3849 45.356 49.2167C45.336 49.0397 45.342 48.904 45.174 48.7978H42.714C42.47 48.7978 42.118 48.2727 42.076 48.0013C41.932 47.0396 41.972 44.1682 42.062 43.1416C42.1 42.7109 42.344 41.9931 42.83 41.9931H48.514V13.5528H48.512ZM58.238 13.5528H50.446L50.27 13.7357V41.9891H54.43C54.888 41.9891 55.152 42.8741 55.19 43.2675C55.408 45.5174 55.388 50.2354 55.196 52.507C55.172 52.7961 55.104 53.2268 54.944 53.4608C54.868 53.5709 54.378 53.8994 54.314 53.8994H50.272V57.0598H57.712C57.766 57.0598 58.24 56.4757 58.24 56.3912V13.5528H58.238ZM14.53 18.6563H5.038V21.8168H14.53V18.6563ZM8.202 26.9204H19.276L19.452 26.7375V23.8209L19.276 23.638H8.202V26.9184V26.9204ZM24.256 28.7435H11.484V31.9039H24.256V28.7435ZM24.256 33.7251H21.21V57.0579H29.062V43.8122H25.02C24.87 43.8122 24.258 43.177 24.258 43.0216V33.7251H24.256ZM33.982 38.8306H26.014V41.9911H33.982V38.8306ZM38.786 38.8306H35.74V43.0236C35.74 43.179 35.128 43.8142 34.978 43.8142H30.936V57.0598H38.788V38.8306H38.786ZM53.434 43.8122H43.826V46.9727H53.434V43.8122ZM47.106 52.0763H53.258L53.434 51.8934V48.9768L53.258 48.7939H47.106V52.0743V52.0763Z" fill="#F5F9FF"/>
</svg>
