<svg width="24" height="24" viewBox="0 0 24 24" fill="none" xmlns="http://www.w3.org/2000/svg">
<path d="M5.21975 8.21975C5.15009 8.28932 5.09482 8.37193 5.05712 8.46288C5.01941 8.55382 5 8.6513 5 8.74975C5 8.8482 5.01941 8.94569 5.05712 9.03663C5.09482 9.12757 5.15009 9.21019 5.21975 9.27975L11.4698 15.5298C11.5393 15.5994 11.6219 15.6547 11.7129 15.6924C11.8038 15.7301 11.9013 15.7495 11.9998 15.7495C12.0982 15.7495 12.1957 15.7301 12.2866 15.6924C12.3776 15.6547 12.4602 15.5994 12.5298 15.5298L18.7798 9.27975C18.8494 9.21015 18.9046 9.12753 18.9422 9.03659C18.9799 8.94565 18.9993 8.84818 18.9993 8.74975C18.9993 8.65132 18.9799 8.55386 18.9422 8.46292C18.9046 8.37198 18.8494 8.28935 18.7798 8.21975C18.7102 8.15015 18.6275 8.09494 18.5366 8.05728C18.4457 8.01961 18.3482 8.00022 18.2498 8.00022C18.1513 8.00022 18.0539 8.01961 17.9629 8.05728C17.872 8.09494 17.7894 8.15015 17.7198 8.21975L11.9998 13.9388L6.27975 8.21975C6.21019 8.15009 6.12757 8.09482 6.03663 8.05712C5.94569 8.01941 5.8482 8 5.74975 8C5.6513 8 5.55382 8.01941 5.46288 8.05712C5.37194 8.09482 5.28932 8.15009 5.21975 8.21975Z" fill="#0665EC"/>
</svg>
