<svg width="100" height="111" viewBox="0 0 100 111" fill="none" xmlns="http://www.w3.org/2000/svg">
<path d="M52.4186 102.497C73.9818 102.497 91.4622 85.0943 91.4622 63.6273C91.4622 42.1603 73.9818 24.7578 52.4186 24.7578C30.8554 24.7578 13.375 42.1603 13.375 63.6273C13.375 85.0943 30.8554 102.497 52.4186 102.497Z" fill="#2284FF"/>
<path opacity="0.73" d="M16.4262 61.8779C16.4262 61.8779 16.4206 61.8779 16.4181 61.8779C16.3322 61.8731 16.2657 61.7996 16.2697 61.714C16.3492 60.1978 16.526 58.675 16.796 57.1871C16.8115 57.1023 16.8925 57.0458 16.9777 57.0611C17.0629 57.0764 17.1196 57.1572 17.1042 57.242C16.8374 58.7162 16.6614 60.2268 16.5828 61.7294C16.5787 61.8125 16.5089 61.8771 16.4262 61.8771V61.8779Z" fill="#0665EC"/>
<path opacity="0.73" d="M20.2227 47.6362C20.1992 47.6362 20.1749 47.6305 20.1522 47.6192C20.0751 47.5805 20.0443 47.4868 20.0833 47.4101C23.0572 41.5445 27.5882 36.5929 33.1856 33.0913C38.9388 29.4928 45.5898 27.5898 52.4175 27.5898C54.6112 27.5898 56.8082 27.7868 58.9476 28.1744C59.0328 28.1897 59.0895 28.2713 59.0733 28.356C59.0579 28.4408 58.9768 28.4981 58.8908 28.4812C56.7701 28.0969 54.5918 27.9015 52.4167 27.9015C45.6473 27.9015 39.0548 29.7875 33.3519 33.3545C27.8023 36.8262 23.3102 41.7343 20.3622 47.5498C20.3347 47.6039 20.2795 47.6354 20.2219 47.6354L20.2227 47.6362Z" fill="#0665EC"/>
<path opacity="0.73" d="M76.6352 87.7371C89.5403 74.8896 89.5403 54.0596 76.6352 41.2121C63.7302 28.3646 42.8069 28.3646 29.9018 41.2121C16.9968 54.0596 16.9968 74.8896 29.9018 87.7371C42.8069 100.585 63.7302 100.585 76.6352 87.7371Z" fill="#0665EC"/>
<path d="M63.3845 52.0417C63.3845 57.6118 58.8487 63.6259 53.2528 63.6259C47.657 63.6259 43.1211 57.6126 43.1211 52.0417C43.1211 46.4708 47.657 42.5195 53.2528 42.5195C58.8487 42.5195 63.3845 46.4716 63.3845 52.0417Z" fill="#A7C8F7"/>
<path d="M40.6809 85.0738H65.4137C68.017 85.0738 70.3226 83.3985 71.1158 80.9303L72.4466 76.7893C73.4215 73.7576 71.8368 70.474 68.8337 69.3816C58.7684 65.7178 48.361 66.1877 37.6989 69.7199C34.712 70.709 33.0543 73.89 33.8791 76.9145L34.9042 80.6752C35.6122 83.2717 37.9795 85.0746 40.6817 85.0746L40.6809 85.0738Z" fill="#A7C8F7"/>
<path opacity="0.51" d="M34.8473 24.3151L30.3414 20.5923C29.9294 20.2524 29.3763 20.1353 28.8614 20.2806L23.2266 21.8655C21.9298 22.2304 20.7766 20.9564 21.2745 19.7098L23.4383 14.2931C23.6361 13.7982 23.5761 13.2379 23.2793 12.7954L20.024 7.95039C19.2746 6.8354 20.1351 5.34983 21.4797 5.43541L27.3229 5.81084C27.8565 5.84475 28.3731 5.61546 28.7048 5.19724L32.3275 0.617804C33.1612 -0.435821 34.8465 -0.0805757 35.1798 1.2193L36.6266 6.8677C36.7588 7.38361 37.1375 7.80183 37.6395 7.98591L43.134 10.0011C44.3983 10.4646 44.58 12.1705 43.4406 12.8875L38.4919 16.0032C38.0394 16.2882 37.7571 16.7758 37.736 17.3079L37.509 23.1323C37.4563 24.4725 35.8829 25.1717 34.8465 24.3151H34.8473Z" fill="#0665EC"/>
<path d="M21.1092 6.46295C21.2016 6.42178 21.3038 6.40482 21.4149 6.41209L27.2581 6.78752C27.6782 6.81416 28.104 6.73827 28.4884 6.56791C28.8728 6.39675 29.2142 6.13274 29.4746 5.80333L33.0973 1.22389C33.1654 1.1375 33.2473 1.07291 33.3397 1.03174C33.51 0.955844 33.716 0.961496 33.8912 1.04627C34.0104 1.10359 34.1653 1.22228 34.2262 1.46207L35.673 7.11047C35.8854 7.93883 36.4929 8.60896 37.2982 8.90446L42.7927 10.9197C43.1317 11.044 43.1973 11.3347 43.2103 11.4533C43.2233 11.5728 43.2192 11.8699 42.9143 12.0621L37.9656 15.1778C37.2406 15.6347 36.7873 16.4171 36.754 17.2713L36.5269 23.0957C36.5132 23.455 36.2561 23.6076 36.1458 23.656C36.0363 23.7045 35.75 23.7933 35.4727 23.564L30.9668 19.8412C30.3058 19.2954 29.4186 19.1081 28.593 19.3406L22.9582 20.9255C22.6103 21.0232 22.3857 20.827 22.3054 20.7382C22.2251 20.6493 22.0515 20.4063 22.1854 20.0721L24.3491 14.6554C24.6662 13.8609 24.5705 12.9631 24.0936 12.2526L20.8383 7.40758C20.7004 7.2017 20.715 7.00793 20.7515 6.88117C20.8059 6.69467 20.9397 6.53804 21.1092 6.46295Z" fill="#73A9F2"/>
<path opacity="0.73" d="M35.4771 8.72557C35.5339 8.70054 35.6028 8.71265 35.6466 8.7611C36.0188 9.17205 36.4916 9.49016 37.0131 9.6815L39.103 10.4485C39.1793 10.4768 39.2182 10.5607 39.1906 10.6366C39.1622 10.7125 39.0779 10.7513 39.0017 10.7238L36.9117 9.95682C36.3457 9.74932 35.8323 9.40377 35.4284 8.95729C35.3741 8.89754 35.379 8.80469 35.439 8.74979C35.4511 8.7393 35.4641 8.73122 35.4779 8.72476L35.4771 8.72557Z" fill="#0665EC"/>
<path opacity="0.73" d="M30.6738 5.65937C30.7224 5.63757 30.7808 5.64322 30.8254 5.67794C30.8895 5.728 30.9 5.82004 30.8497 5.88382L30.3648 6.49662C29.9917 6.96893 29.5027 7.34759 28.952 7.59223C28.4014 7.83686 27.7915 7.94586 27.1889 7.9071C27.1078 7.90226 27.0462 7.83202 27.0511 7.75128C27.0559 7.67054 27.1265 7.60918 27.2076 7.61402C27.7623 7.64955 28.3243 7.54943 28.8312 7.32418C29.3389 7.09892 29.789 6.75013 30.1328 6.31496L30.6178 5.70216C30.6332 5.68278 30.6527 5.66825 30.6738 5.65937Z" fill="#0665EC"/>
<path opacity="0.73" d="M23.6065 7.52166C23.712 7.47484 23.8255 7.44335 23.9439 7.42881C24.025 7.41913 24.098 7.47564 24.1085 7.55638C24.1183 7.63712 24.0615 7.70978 23.9804 7.72028C23.6706 7.75822 23.4062 7.95361 23.274 8.24265C23.141 8.5325 23.167 8.85141 23.3462 9.11784L25.0331 11.6288C25.7167 12.6469 25.8538 13.9338 25.3988 15.0714L24.2772 17.8779C24.1467 18.204 24.2099 18.5553 24.4459 18.816C24.6819 19.0768 25.0258 19.1753 25.3656 19.08L28.2852 18.2589C29.4692 17.9263 30.7408 18.1944 31.6873 18.9759L34.0221 20.9047C34.2938 21.1292 34.6482 21.1776 34.9702 21.0347C35.2921 20.8918 35.4932 20.5963 35.507 20.2459L35.6246 17.2279C35.6725 16.0039 36.3213 14.8825 37.361 14.2285L39.9253 12.6138C40.0786 12.5177 40.197 12.3829 40.2684 12.2246C40.3016 12.1503 40.3892 12.1181 40.463 12.1512C40.5368 12.1843 40.5701 12.2715 40.5368 12.3449C40.4419 12.5556 40.2846 12.7341 40.0827 12.8616L37.5183 14.4764C36.5605 15.0795 35.9628 16.1121 35.9182 17.2392L35.8006 20.2572C35.7828 20.715 35.5103 21.1162 35.0894 21.3028C34.6685 21.4893 34.1876 21.4239 33.8331 21.1308L31.4983 19.202C30.6265 18.4818 29.4546 18.2347 28.3638 18.5415L25.4442 19.3626C25.0014 19.487 24.5343 19.3529 24.2253 19.013C23.9172 18.6723 23.8312 18.196 24.0015 17.7705L25.1231 14.964C25.5416 13.9161 25.4159 12.73 24.7857 11.7927L23.0989 9.28174C22.8653 8.93376 22.8296 8.5002 23.004 8.12154C23.1289 7.84946 23.3438 7.63954 23.6049 7.52328L23.6065 7.52166Z" fill="#0665EC"/>
<path opacity="0.51" d="M13.5396 42.3703L10.0953 39.5243C9.78061 39.2644 9.35727 39.1747 8.96394 39.2862L4.65595 40.4972C3.66492 40.7758 2.78256 39.8021 3.16372 38.8494L4.81815 34.7083C4.96899 34.3297 4.92358 33.9018 4.6965 33.5635L2.20838 29.8592C1.63581 29.0067 2.29353 27.8707 3.32106 27.9369L7.788 28.2235C8.19593 28.2493 8.59088 28.0741 8.84391 27.7544L11.6134 24.2536C12.2509 23.4479 13.5396 23.72 13.7942 24.713L14.9004 29.0309C15.0018 29.4257 15.2913 29.7454 15.6749 29.8859L19.875 31.4264C20.8417 31.7808 20.9804 33.0847 20.1094 33.6329L16.3261 36.0147C15.9806 36.2327 15.7641 36.6057 15.7487 37.0126L15.5751 41.4653C15.5354 42.4898 14.3327 43.0243 13.5396 42.3695V42.3703Z" fill="#0665EC"/>
<path d="M3.04139 28.7222C3.11195 28.6907 3.19061 28.6778 3.27496 28.6834L7.7419 28.9701C8.06305 28.9911 8.38826 28.9329 8.68265 28.8021C8.97623 28.6713 9.23737 28.4695 9.43687 28.2176L12.2064 24.7168C12.2583 24.6506 12.3208 24.6014 12.3913 24.5699C12.5211 24.5117 12.6792 24.5166 12.813 24.5812C12.9039 24.6248 13.0223 24.716 13.0693 24.8993L14.1755 29.2171C14.3377 29.8501 14.8024 30.3628 15.4179 30.5888L19.6181 32.1293C19.8768 32.2246 19.9279 32.4466 19.9376 32.537C19.9473 32.6283 19.9449 32.856 19.7113 33.0029L15.9281 35.3847C15.3733 35.7334 15.027 36.3317 15.0019 36.9849L14.8283 41.4376C14.8178 41.7121 14.6207 41.8283 14.5372 41.8663C14.4529 41.9034 14.2347 41.9712 14.0222 41.796L10.5779 38.95C10.0727 38.5326 9.3947 38.3897 8.76294 38.5673L4.45576 39.7784C4.18975 39.8535 4.01782 39.7033 3.95619 39.6347C3.89455 39.5669 3.76236 39.3812 3.86455 39.126L5.51897 34.985C5.76146 34.3779 5.68847 33.6916 5.32352 33.1482L2.8354 29.444C2.72997 29.2866 2.74132 29.1388 2.7689 29.0419C2.81026 28.899 2.91244 28.7795 3.0422 28.7222H3.04139Z" fill="#73A9F2"/>
<path opacity="0.73" d="M14.0194 30.4531C14.0623 30.4337 14.1151 30.4434 14.1491 30.4806C14.4338 30.7946 14.7947 31.0385 15.1937 31.1846L16.7913 31.7707C16.8497 31.7917 16.8797 31.8563 16.8578 31.9145C16.8367 31.9726 16.7719 32.0025 16.7135 31.9807L15.1158 31.3945C14.6828 31.2355 14.291 30.9714 13.9821 30.6307C13.9407 30.5847 13.9439 30.5137 13.9902 30.4725C13.9991 30.4644 14.0088 30.458 14.0194 30.4531Z" fill="#0665EC"/>
<path opacity="0.73" d="M10.3479 28.1091C10.3852 28.093 10.4298 28.097 10.4639 28.1237C10.5125 28.1616 10.5215 28.2327 10.4825 28.2811L10.1119 28.7494C9.82643 29.1103 9.45257 29.4001 9.03166 29.5866C8.61076 29.774 8.14444 29.8571 7.68379 29.8272C7.62216 29.8232 7.57431 29.7699 7.57836 29.7086C7.58242 29.6464 7.63595 29.5996 7.69839 29.6036C8.12254 29.6311 8.55156 29.5544 8.94002 29.3816C9.32849 29.2096 9.67235 28.9424 9.93511 28.6105L10.3057 28.1423C10.3171 28.1277 10.3325 28.1164 10.3479 28.1091Z" fill="#0665EC"/>
<path opacity="0.73" d="M4.9486 29.5308C5.02889 29.4953 5.11566 29.4711 5.20649 29.4598C5.26813 29.4525 5.32409 29.4961 5.3322 29.5575C5.3395 29.6188 5.2957 29.6745 5.23407 29.6826C4.99726 29.7117 4.79532 29.861 4.69395 30.0823C4.59176 30.3035 4.61204 30.5473 4.74909 30.7508L6.03857 32.6699C6.56166 33.4482 6.66628 34.4324 6.31836 35.3019L5.46115 37.4479C5.36139 37.6974 5.41005 37.9655 5.59009 38.1649C5.77094 38.3643 6.03371 38.4402 6.29322 38.3667L8.52507 37.7386C9.43014 37.4843 10.4025 37.6894 11.1259 38.2868L12.9109 39.7619C13.1185 39.933 13.3894 39.9702 13.6359 39.8612C13.8825 39.7514 14.0358 39.5261 14.0463 39.2581L14.1363 36.9506C14.1728 36.0149 14.6691 35.1574 15.4639 34.6577L17.4241 33.4232C17.5409 33.3497 17.6317 33.2464 17.686 33.1261C17.7112 33.0695 17.7785 33.0445 17.8353 33.0696C17.892 33.0946 17.9172 33.1616 17.892 33.2181C17.819 33.3796 17.699 33.516 17.5449 33.6129L15.5848 34.8474C14.8524 35.3084 14.395 36.098 14.3618 36.9595L14.2718 39.267C14.258 39.6174 14.0496 39.9234 13.7284 40.0663C13.4072 40.2092 13.0391 40.1583 12.7682 39.9347L10.9832 38.4596C10.3166 37.909 9.42041 37.72 8.58752 37.9542L6.35567 38.5823C6.01667 38.6776 5.65984 38.575 5.42384 38.3151C5.18784 38.0551 5.12215 37.691 5.25272 37.3648L6.10994 35.2188C6.43028 34.4179 6.33377 33.5112 5.85204 32.7942L4.56257 30.8751C4.38415 30.6095 4.35657 30.2776 4.48958 29.9886C4.58527 29.7803 4.74909 29.6204 4.94941 29.5308H4.9486Z" fill="#0665EC"/>
<path opacity="0.51" d="M7.22499 60.1768L5.06938 58.3957C4.87231 58.2326 4.60792 58.1769 4.36138 58.2464L1.66564 59.0045C1.04524 59.1789 0.493761 58.5693 0.731382 57.9735L1.76621 55.3826C1.86109 55.146 1.83271 54.878 1.68997 54.6665L0.13287 52.3485C-0.225589 51.8148 0.186395 51.1043 0.829512 51.1455L3.625 51.3247C3.88046 51.3409 4.12782 51.2311 4.28596 51.0308L6.01905 48.8404C6.41806 48.3366 7.22418 48.5062 7.38314 49.1279L8.07572 51.8301C8.13898 52.0772 8.32064 52.2774 8.5607 52.3654L11.1891 53.3294C11.7941 53.5515 11.8809 54.3669 11.3359 54.7101L8.96863 56.2005C8.75209 56.3369 8.61747 56.5702 8.60692 56.8246L8.49825 59.6108C8.47311 60.2519 7.72051 60.5861 7.22418 60.1768H7.22499Z" fill="#0665EC"/>
<path d="M0.655863 51.6354C0.699657 51.616 0.749127 51.6079 0.801842 51.6112L3.59733 51.7904C3.79846 51.8033 4.00202 51.767 4.18611 51.6855C4.37021 51.6039 4.53322 51.4772 4.65811 51.3197L6.3912 49.1293C6.42364 49.0881 6.46256 49.0566 6.50717 49.0373C6.58827 49.0009 6.68721 49.0034 6.77074 49.0445C6.82751 49.072 6.90212 49.1285 6.93132 49.2431L7.6239 51.9454C7.72528 52.3419 8.01642 52.6624 8.40165 52.8037L11.0301 53.7677C11.1923 53.8274 11.2239 53.9663 11.2296 54.0228C11.2353 54.0801 11.2336 54.2222 11.0876 54.3143L8.72037 55.8047C8.37326 56.0235 8.15673 56.3973 8.14051 56.8058L8.03183 59.5921C8.02535 59.7641 7.90207 59.8367 7.84936 59.8601C7.79665 59.8835 7.6604 59.9255 7.5274 59.8157L5.37178 58.0347C5.05549 57.7739 4.63135 57.6843 4.23639 57.7949L1.54066 58.553C1.3744 58.5998 1.26654 58.5062 1.22842 58.4634C1.1895 58.4206 1.10677 58.3043 1.17084 58.1445L2.20567 55.5536C2.35732 55.1733 2.31191 54.7438 2.08321 54.4039L0.526104 52.0859C0.460414 51.9874 0.466902 51.8946 0.484744 51.834C0.510696 51.7452 0.574764 51.6701 0.655863 51.6338V51.6354Z" fill="#73A9F2"/>
<path opacity="0.73" d="M7.52674 52.7189C7.5535 52.7068 7.58675 52.7133 7.60784 52.7359C7.78626 52.932 8.01171 53.0846 8.2615 53.1759L9.26145 53.5424C9.29795 53.5562 9.3166 53.5965 9.30281 53.6329C9.28903 53.6692 9.24848 53.6878 9.21198 53.6748L8.21203 53.3083C7.94116 53.209 7.69543 53.0435 7.50241 52.8303C7.47646 52.8013 7.47889 52.7568 7.50728 52.731C7.51295 52.7262 7.51944 52.7221 7.52593 52.7189H7.52674Z" fill="#0665EC"/>
<path opacity="0.73" d="M5.22932 51.2543C5.25284 51.2438 5.28042 51.2463 5.3015 51.2632C5.33232 51.2874 5.33719 51.331 5.31367 51.3617L5.08172 51.6548C4.90331 51.8809 4.66893 52.0617 4.40536 52.1788C4.14178 52.2959 3.84983 52.3483 3.56193 52.3298C3.523 52.3273 3.4938 52.2942 3.49624 52.2555C3.49867 52.2167 3.53192 52.1877 3.57085 52.1901C3.83604 52.207 4.10529 52.1594 4.34778 52.0512C4.59026 51.943 4.80599 51.7767 4.97062 51.5684L5.20256 51.2753C5.20986 51.2665 5.21878 51.2592 5.22932 51.2543Z" fill="#0665EC"/>
<path opacity="0.73" d="M1.84979 52.1446C1.90007 52.122 1.95441 52.1066 2.01118 52.1002C2.0501 52.0953 2.08498 52.1228 2.08984 52.1615C2.09471 52.2003 2.06714 52.235 2.02821 52.2398C1.8798 52.2584 1.75409 52.3513 1.69002 52.4901C1.62596 52.629 1.63893 52.7816 1.72409 52.9083L2.53102 54.1097C2.85785 54.5966 2.92354 55.2126 2.7062 55.7568L2.17013 57.0994C2.10769 57.2553 2.13769 57.4232 2.25123 57.5483C2.36396 57.6735 2.52859 57.7203 2.6916 57.6743L4.08813 57.2811C4.6542 57.122 5.26325 57.2504 5.71579 57.6242L6.83252 58.5471C6.96228 58.6544 7.13178 58.6779 7.28587 58.6092C7.43996 58.5406 7.53565 58.3993 7.54214 58.2314L7.5981 56.7878C7.62081 56.2024 7.93142 55.6655 8.42856 55.3531L9.65559 54.5804C9.72858 54.5344 9.78535 54.4698 9.81941 54.3947C9.83563 54.3592 9.87699 54.3439 9.91267 54.3592C9.94835 54.3754 9.96376 54.4165 9.94835 54.452C9.90294 54.553 9.82752 54.6386 9.73101 54.6991L8.50398 55.4718C8.04577 55.76 7.75949 56.2541 7.7384 56.7934L7.68163 58.237C7.67271 58.4558 7.54295 58.648 7.34183 58.7376C7.1407 58.8272 6.91038 58.7957 6.74088 58.6552L5.62415 57.7324C5.2073 57.3877 4.64609 57.2698 4.12462 57.4159L2.72809 57.8091C2.51643 57.8689 2.29259 57.8043 2.14499 57.642C1.99739 57.4789 1.95603 57.2512 2.03794 57.0478L2.57401 55.7051C2.77432 55.2037 2.71431 54.6361 2.41262 54.188L1.60568 52.9867C1.49376 52.8203 1.47673 52.6129 1.56027 52.432C1.62028 52.302 1.72246 52.2011 1.84817 52.1454L1.84979 52.1446Z" fill="#0665EC"/>
<path opacity="0.51" d="M65.4212 20.5528L65.7732 16.1106C65.8056 15.7045 66.0359 15.3404 66.3903 15.1369L70.266 12.9069C71.1581 12.3942 71.0714 11.0855 70.1201 10.6931L65.9848 8.98712C65.6069 8.8313 65.3303 8.50028 65.2452 8.10224L64.3126 3.74403C64.0976 2.74127 62.8211 2.41832 62.1521 3.19824L59.2447 6.58599C58.9787 6.89521 58.5772 7.05507 58.1701 7.01309L53.7186 6.54885C52.6943 6.44228 51.9912 7.5508 52.5297 8.42519L54.8677 12.2255C55.081 12.5727 55.1094 13.0022 54.9432 13.3744L53.1241 17.446C52.7056 18.3834 53.5483 19.391 54.5498 19.152L58.9024 18.1129C59.2998 18.0176 59.7191 18.1242 60.0232 18.3963L63.3507 21.3763C64.1163 22.0618 65.3401 21.5757 65.4204 20.5536L65.4212 20.5528Z" fill="#0665EC"/>
<path d="M62.9166 3.54197C62.8453 3.57023 62.7804 3.61705 62.7261 3.68164L59.8187 7.06939C59.6094 7.31322 59.341 7.50457 59.0417 7.62325C58.7425 7.74194 58.4156 7.78715 58.0953 7.75405L53.6438 7.2898C53.5594 7.28092 53.4808 7.29142 53.4086 7.31968C53.2764 7.37216 53.1693 7.48761 53.1223 7.6281C53.0907 7.72337 53.0736 7.87112 53.1726 8.03259L55.5107 11.8329C55.8537 12.39 55.8991 13.0787 55.6323 13.6761L53.8133 17.7477C53.7013 17.9988 53.8254 18.1894 53.8846 18.2596C53.9438 18.3299 54.1093 18.4865 54.3777 18.4227L58.7303 17.3836C59.3686 17.231 60.0409 17.4014 60.5283 17.8382L63.8558 20.8182C64.061 21.0023 64.2815 20.9425 64.3675 20.9086C64.4527 20.8747 64.6538 20.7665 64.6757 20.492L65.0277 16.0498C65.0796 15.3983 65.4494 14.8145 66.0179 14.4876L69.8936 12.2576C70.1329 12.1203 70.1442 11.8927 70.1385 11.8014C70.1329 11.7102 70.0907 11.4865 69.836 11.3808L65.7008 9.67479C65.0942 9.42451 64.6514 8.89406 64.5143 8.25462L63.5817 3.89641C63.5419 3.71152 63.4276 3.61625 63.3384 3.56861C63.207 3.49837 63.0497 3.48868 62.9175 3.54116L62.9166 3.54197Z" fill="#73A9F2"/>
<path opacity="0.73" d="M56.5052 12.5895C56.4614 12.6073 56.4314 12.6509 56.4346 12.701C56.4622 13.1232 56.386 13.5503 56.2132 13.937L55.5215 15.4864C55.4963 15.5429 55.5215 15.6091 55.5782 15.6342C55.635 15.6592 55.7015 15.6342 55.7266 15.5776L56.4184 14.0283C56.6058 13.6084 56.6893 13.1442 56.6585 12.6864C56.6544 12.6251 56.6009 12.5782 56.5384 12.5823C56.5263 12.5823 56.5149 12.5855 56.5044 12.5903L56.5052 12.5895Z" fill="#0665EC"/>
<path opacity="0.73" d="M57.3759 8.33296C57.3386 8.3483 57.3102 8.38221 57.3053 8.4258C57.2988 8.48717 57.3434 8.54287 57.4059 8.54933L58.002 8.6115C58.461 8.65914 58.9297 8.59455 59.3579 8.42419C59.7861 8.25383 60.1714 7.97933 60.4706 7.63054C60.5112 7.58371 60.5055 7.51266 60.4584 7.47229C60.4114 7.43193 60.34 7.43758 60.2995 7.4844C60.0238 7.80574 59.6685 8.05926 59.2744 8.21589C58.8794 8.37252 58.448 8.43226 58.0255 8.38867L57.4294 8.3265C57.4107 8.32488 57.3921 8.3265 57.3759 8.33376V8.33296Z" fill="#0665EC"/>
<path opacity="0.73" d="M62.1677 5.47146C62.0858 5.50375 62.0079 5.54896 61.9366 5.60548C61.8879 5.64424 61.8806 5.71448 61.9196 5.76292C61.9585 5.81136 62.029 5.81863 62.0777 5.77987C62.2634 5.63132 62.5124 5.59095 62.7419 5.67249C62.9722 5.75404 63.1336 5.93893 63.1855 6.17791L63.6689 8.43614C63.8651 9.3517 64.5001 10.1123 65.3695 10.4707L67.5121 11.3548C67.7611 11.4573 67.9209 11.6786 67.9387 11.9466C67.9566 12.2147 67.8276 12.4544 67.5941 12.5893L65.586 13.7446C64.7718 14.2129 64.2414 15.0502 64.1676 15.9835L63.9851 18.2853C63.9641 18.5534 63.8019 18.7722 63.5513 18.8723C63.3007 18.9716 63.0314 18.9239 62.8311 18.7447L61.1069 17.2002C60.4079 16.5737 59.4444 16.3307 58.5296 16.5486L56.2742 17.0872C56.1396 17.1195 56.0026 17.1122 55.8777 17.067C55.8193 17.046 55.7544 17.0759 55.7333 17.134C55.7122 17.1921 55.7422 17.2567 55.8006 17.2777C55.9677 17.3383 56.1493 17.3479 56.327 17.3052L58.5823 16.7666C59.4249 16.5656 60.3122 16.7901 60.9561 17.3665L62.6803 18.911C62.9422 19.1452 63.308 19.2106 63.6348 19.0806C63.9616 18.9506 64.1822 18.6527 64.2098 18.3031L64.3923 16.0012C64.4604 15.1414 64.9486 14.3703 65.6988 13.9392L67.7068 12.7839C68.0117 12.6087 68.1869 12.2825 68.1634 11.9329C68.1407 11.5833 67.9241 11.2821 67.5989 11.1481L65.4563 10.264C64.6558 9.93382 64.0703 9.23302 63.8903 8.38931L63.4069 6.13108C63.3404 5.81863 63.1198 5.56753 62.8189 5.46096C62.6024 5.38426 62.3729 5.3891 62.1693 5.46984L62.1677 5.47146Z" fill="#0665EC"/>
<path opacity="0.51" d="M82.6464 28.4599L82.867 25.6801C82.8872 25.4257 83.0316 25.1981 83.253 25.0705L85.6779 23.6754C86.2358 23.354 86.1823 22.5353 85.5862 22.2899L82.9983 21.2225C82.7615 21.1249 82.5888 20.9182 82.5353 20.6687L81.9513 17.9414C81.8167 17.314 81.0179 17.1122 80.5994 17.5999L78.7796 19.72C78.6133 19.9138 78.3619 20.0139 78.1072 19.9873L75.3215 19.6966C74.6808 19.6296 74.2404 20.3239 74.577 20.8713L76.04 23.2491C76.1738 23.4662 76.1917 23.7351 76.0871 23.9684L74.9492 26.5165C74.6873 27.1027 75.2144 27.734 75.8413 27.5839L78.5654 26.9331C78.8144 26.8734 79.0764 26.9396 79.267 27.1107L81.3496 28.9758C81.8289 29.4053 82.5945 29.1009 82.6447 28.4615L82.6464 28.4599Z" fill="#0665EC"/>
<path d="M81.078 17.8145C81.0334 17.8323 80.9928 17.8614 80.9588 17.9017L79.1389 20.0219C79.0083 20.1745 78.8396 20.294 78.6531 20.3683C78.4658 20.4426 78.2614 20.4708 78.0611 20.4498L75.2753 20.1592C75.2226 20.1535 75.1732 20.1592 75.1285 20.1777C75.0458 20.2108 74.9785 20.2827 74.9493 20.3707C74.929 20.4304 74.9185 20.5233 74.981 20.6242L76.444 23.0019C76.6581 23.3507 76.6873 23.7819 76.5202 24.1549L75.3824 26.7029C75.3118 26.8604 75.3905 26.9791 75.427 27.0235C75.4635 27.0679 75.5673 27.1656 75.7352 27.1252L78.4593 26.4745C78.8583 26.3792 79.2792 26.4858 79.5849 26.7587L81.6676 28.6237C81.7957 28.7383 81.9344 28.702 81.9879 28.6802C82.0414 28.6592 82.1671 28.5914 82.1809 28.4194L82.4015 25.6396C82.434 25.2319 82.6651 24.867 83.0211 24.6619L85.446 23.2668C85.5952 23.1804 85.6025 23.0383 85.5993 22.9809C85.5952 22.9236 85.5693 22.7839 85.4103 22.7177L82.8224 21.6504C82.4429 21.4938 82.1655 21.1619 82.0796 20.7615L81.4965 18.0342C81.4713 17.9187 81.3999 17.859 81.344 17.8291C81.2621 17.7855 81.1631 17.779 81.0804 17.8113L81.078 17.8145Z" fill="#73A9F2"/>
<path opacity="0.73" d="M77.0668 23.4757C77.0392 23.487 77.0206 23.5144 77.023 23.5451C77.0401 23.8091 76.9922 24.0764 76.8843 24.3186L76.4513 25.2882C76.4359 25.3238 76.4513 25.3649 76.487 25.3811C76.5226 25.3972 76.564 25.3811 76.5802 25.3456L77.0133 24.3759C77.1309 24.1135 77.1828 23.8229 77.1633 23.5362C77.1609 23.4975 77.1276 23.4684 77.0887 23.4708C77.0814 23.4708 77.0741 23.4733 77.0668 23.4757Z" fill="#0665EC"/>
<path opacity="0.73" d="M77.6106 20.8131C77.5871 20.8228 77.5692 20.8438 77.5668 20.8712C77.5627 20.91 77.5911 20.9447 77.6292 20.9479L78.0023 20.9867C78.2894 21.0166 78.583 20.9762 78.8506 20.8696C79.119 20.763 79.3599 20.5911 79.5472 20.3731C79.5724 20.344 79.5691 20.2996 79.5391 20.2746C79.5091 20.2496 79.4653 20.2528 79.4394 20.2827C79.2666 20.4837 79.0444 20.6419 78.7979 20.7404C78.5505 20.8389 78.2805 20.8761 78.0161 20.8486L77.643 20.8099C77.6309 20.8083 77.6195 20.8099 77.6098 20.8147L77.6106 20.8131Z" fill="#0665EC"/>
<path opacity="0.73" d="M80.6096 19.0214C80.5585 19.0416 80.5099 19.0699 80.4653 19.1054C80.4353 19.1296 80.4304 19.174 80.4547 19.2039C80.4791 19.2338 80.5237 19.2386 80.5537 19.2144C80.6705 19.1215 80.8254 19.0965 80.9697 19.1474C81.1141 19.1982 81.2154 19.3137 81.2471 19.4639L81.5496 20.8776C81.672 21.4508 82.0702 21.9264 82.6136 22.1508L83.9542 22.7039C84.1099 22.7684 84.2096 22.9065 84.221 23.0744C84.2323 23.2424 84.1512 23.3925 84.0053 23.4765L82.7482 24.1999C82.2389 24.493 81.9072 25.017 81.8602 25.6007L81.7458 27.0411C81.7329 27.209 81.6307 27.3455 81.4741 27.4084C81.3176 27.4706 81.1489 27.4407 81.0232 27.3285L79.9438 26.3621C79.5067 25.9705 78.9033 25.8179 78.3316 25.9543L76.9204 26.291C76.8361 26.3112 76.7501 26.3064 76.6723 26.2781C76.6358 26.2652 76.5952 26.2838 76.5822 26.3201C76.5693 26.3564 76.5879 26.3968 76.6244 26.4097C76.729 26.4477 76.8426 26.4533 76.9537 26.4267L78.3648 26.09C78.8919 25.964 79.4475 26.1045 79.8505 26.4654L80.93 27.4318C81.0938 27.5788 81.3225 27.6192 81.5277 27.5376C81.732 27.4561 81.8699 27.2696 81.8878 27.0516L82.0021 25.6112C82.0451 25.0735 82.3508 24.5907 82.8196 24.321L84.0766 23.5976C84.2672 23.4878 84.3767 23.2836 84.3629 23.0648C84.3483 22.846 84.2129 22.6578 84.0093 22.5739L82.6687 22.0208C82.1684 21.8141 81.8018 21.3757 81.6882 20.8477L81.3857 19.434C81.3436 19.2386 81.2065 19.0812 81.0176 19.015C80.8821 18.9665 80.7386 18.9697 80.6113 19.0206L80.6096 19.0214Z" fill="#0665EC"/>
</svg>
