<svg width="100" height="95" viewBox="0 0 100 95" fill="none" xmlns="http://www.w3.org/2000/svg">
<circle cx="59.7984" cy="54.7984" r="40.2015" fill="#73A9F2"/>
<circle cx="60.6062" cy="56" r="36.1814" fill="#023DCA"/>
<ellipse cx="59.596" cy="44" rx="9.09091" ry="9" fill="#73A9F2"/>
<path d="M45.4296 61.8061C47.4269 57.6461 51.6327 55 56.2473 55H63.3431C68.1616 55 72.5128 57.8822 74.3924 62.319L77.7816 70.319C81.1338 78.2317 75.3257 87 66.7322 87H52.4063C43.5695 87 37.7638 77.7722 41.5886 69.8061L45.4296 61.8061Z" fill="#73A9F2"/>
<path d="M5.31802 44.7237C5.39331 44.4944 5.7178 44.4944 5.79309 44.7237L6.74639 47.6284C6.78008 47.731 6.87589 47.8004 6.98393 47.8004H10.0635C10.3063 47.8004 10.4066 48.1116 10.2095 48.2534L7.72239 50.0423C7.63388 50.1059 7.59684 50.2196 7.63083 50.3232L8.58183 53.2208C8.65728 53.4507 8.39474 53.643 8.19832 53.5017L5.70153 51.7058C5.61432 51.6431 5.49679 51.6431 5.40958 51.7058L2.91279 53.5017C2.71637 53.643 2.45383 53.4507 2.52928 53.2208L3.48028 50.3232C3.51428 50.2196 3.47723 50.1059 3.38872 50.0423L0.901642 48.2534C0.704543 48.1116 0.804833 47.8004 1.04762 47.8004H4.12719C4.23522 47.8004 4.33103 47.731 4.36472 47.6284L5.31802 44.7237Z" fill="#023DCA"/>
<path d="M9.86336 28.7237C9.93864 28.4944 10.2631 28.4944 10.3384 28.7237L11.4051 31.9739C11.4388 32.0765 11.5346 32.1459 11.6427 32.1459H15.0892C15.3319 32.1459 15.4322 32.4571 15.2351 32.5989L12.4512 34.6013C12.3627 34.6649 12.3256 34.7786 12.3596 34.8822L13.424 38.1253C13.4995 38.3552 13.2369 38.5475 13.0405 38.4062L10.2469 36.3968C10.1597 36.3341 10.0421 36.3341 9.95491 36.3968L7.16127 38.4062C6.96485 38.5475 6.7023 38.3552 6.77775 38.1253L7.84214 34.8822C7.87614 34.7786 7.83909 34.6649 7.75059 34.6013L4.96664 32.5989C4.76955 32.4571 4.86983 32.1459 5.11262 32.1459H8.55913C8.66716 32.1459 8.76297 32.0765 8.79666 31.9739L9.86336 28.7237Z" fill="#023DCA"/>
<path d="M58.5956 1.44749C58.7462 0.988711 59.3952 0.988712 59.5458 1.44749L60.5453 4.4928C60.6126 4.69809 60.8043 4.83688 61.0203 4.83688H64.2439C64.7295 4.83688 64.9301 5.45925 64.5359 5.74279L61.9366 7.61239C61.7596 7.7397 61.6855 7.96704 61.7535 8.17421L62.7484 11.2055C62.8993 11.6653 62.3742 12.0499 61.9813 11.7673L59.3627 9.88376C59.1882 9.7583 58.9532 9.7583 58.7787 9.88376L56.1601 11.7673C55.7672 12.0499 55.2421 11.6653 55.393 11.2055L56.3879 8.17421C56.4559 7.96704 56.3818 7.7397 56.2048 7.61239L53.6055 5.74279C53.2113 5.45925 53.4119 4.83688 53.8975 4.83688H57.1211C57.3372 4.83688 57.5288 4.69809 57.5962 4.4928L58.5956 1.44749Z" fill="#023DCA"/>
<path d="M38.949 2.89498C39.2501 1.97742 40.5481 1.97742 40.8492 2.89497L41.6009 5.18519C41.7356 5.59578 42.1189 5.87336 42.551 5.87336L44.9619 5.87336C45.933 5.87336 46.3342 7.11809 45.5458 7.68517L43.6127 9.07559C43.2587 9.33022 43.1105 9.7849 43.2465 10.1992L43.9889 12.4614C44.2907 13.3809 43.2406 14.1502 42.4549 13.585L40.483 12.1667C40.1342 11.9158 39.664 11.9158 39.3152 12.1667L37.3433 13.585C36.5576 14.1502 35.5074 13.3809 35.8092 12.4614L36.5517 10.1992C36.6877 9.7849 36.5395 9.33022 36.1855 9.07559L34.2524 7.68517C33.464 7.11809 33.8652 5.87336 34.8363 5.87336L37.2472 5.87336C37.6793 5.87336 38.0625 5.59578 38.1973 5.18519L38.949 2.89498Z" fill="#023DCA"/>
<path d="M21.1509 11.895C21.452 10.9774 22.75 10.9774 23.0511 11.895L24.143 15.2217C24.2777 15.6323 24.661 15.9098 25.0931 15.9098H28.6048C29.5759 15.9098 29.9771 17.1546 29.1887 17.7216L26.365 19.7526C26.011 20.0073 25.8628 20.462 25.9988 20.8763L27.0814 24.1749C27.3832 25.0945 26.3331 25.8637 25.5474 25.2986L22.6849 23.2397C22.3361 22.9887 21.8659 22.9887 21.5171 23.2397L18.6546 25.2986C17.869 25.8637 16.8188 25.0945 17.1206 24.1749L18.2032 20.8763C18.3392 20.462 18.191 20.0073 17.837 19.7526L15.0133 17.7216C14.2249 17.1546 14.6261 15.9098 15.5972 15.9098H19.1089C19.541 15.9098 19.9243 15.6323 20.059 15.2217L21.1509 11.895Z" fill="#023DCA"/>
<path d="M9.98511 29.6406C10.0266 29.5347 10.1761 29.5347 10.2175 29.6406L11.2029 32.1562C11.2564 32.293 11.3844 32.3864 11.531 32.3945L14.2478 32.5439C14.362 32.5502 14.4087 32.6936 14.3201 32.7656L12.2146 34.4648C12.0993 34.5579 12.0495 34.7103 12.0876 34.8535L12.783 37.4561C12.8124 37.5662 12.6906 37.6551 12.5945 37.5938L10.3025 36.1309C10.1794 36.0524 10.0222 36.0523 9.89917 36.1309L7.60718 37.5938C7.5111 37.655 7.38937 37.5662 7.4187 37.4561L8.11401 34.8535C8.15224 34.7104 8.10329 34.5579 7.98804 34.4648L5.88257 32.7656C5.79355 32.6937 5.83961 32.5503 5.95386 32.5439L8.67065 32.3945C8.81727 32.3865 8.94622 32.293 8.99976 32.1562L9.98511 29.6406Z" stroke="#90BFFF" stroke-width="0.25"/>
<path d="M5.43872 45.6406C5.48018 45.5347 5.63066 45.5347 5.67212 45.6406L6.52954 47.8301C6.58304 47.9667 6.71114 48.0602 6.85767 48.0684L9.22192 48.1982C9.33623 48.2045 9.38326 48.349 9.29419 48.4209L7.46216 49.8984C7.34686 49.9915 7.29704 50.144 7.33521 50.2871L7.94067 52.5518C7.96988 52.6618 7.84824 52.7508 7.7522 52.6895L5.75708 51.415C5.63417 51.3368 5.47666 51.3367 5.35376 51.415L3.35864 52.6895C3.2626 52.7508 3.14098 52.6618 3.17017 52.5518L3.77563 50.2871C3.81381 50.1439 3.76399 49.9915 3.64868 49.8984L1.81665 48.4209C1.72766 48.349 1.77463 48.2045 1.88892 48.1982L4.25317 48.0684C4.39974 48.0602 4.52778 47.9668 4.5813 47.8301L5.43872 45.6406Z" stroke="#90BFFF" stroke-width="0.25"/>
<path d="M58.415 2.23438C58.5396 1.91727 58.9888 1.91719 59.1133 2.23438L60.0625 4.65918C60.1517 4.88681 60.3653 5.04205 60.6094 5.05566L63.2227 5.19922C63.5653 5.21828 63.7044 5.64953 63.4375 5.86523L61.417 7.49609C61.2488 7.63189 61.1642 7.84308 61.1885 8.05371L61.2061 8.14355L61.874 10.6436C61.9623 10.974 61.5979 11.2407 61.3096 11.0566L59.1006 9.64648C58.8955 9.51556 58.6328 9.51556 58.4277 9.64648L56.2188 11.0566C55.9304 11.2407 55.566 10.974 55.6543 10.6436L56.3223 8.14355C56.386 7.90499 56.3034 7.65127 56.1113 7.49609L54.0908 5.86523C53.8235 5.64954 53.9627 5.21811 54.3057 5.19922L56.918 5.05566C57.1623 5.0422 57.3766 4.88701 57.4658 4.65918L58.415 2.23438Z" stroke="#90BFFF" stroke-width="0.25"/>
<path d="M39.084 3.42383C39.3743 2.68272 40.4235 2.68276 40.7139 3.42383L41.4629 5.33789C41.6234 5.74795 42.0086 6.02637 42.4482 6.05078L44.5 6.16406C45.3 6.2083 45.6246 7.2155 45.001 7.71875L43.4248 8.99121C43.0787 9.27049 42.9292 9.72759 43.0439 10.1572L43.5674 12.1152C43.773 12.8862 42.9236 13.5075 42.251 13.0781L40.5039 11.9629C40.1349 11.7276 39.6629 11.7275 39.2939 11.9629L37.5469 13.0781C36.8742 13.5075 36.0249 12.8861 36.2305 12.1152L36.7539 10.1572C36.8687 9.72759 36.7191 9.27049 36.373 8.99121L34.7969 7.71875C34.1733 7.21553 34.4979 6.20841 35.2979 6.16406L37.3496 6.05078C37.7893 6.02642 38.1744 5.74799 38.335 5.33789L39.084 3.42383Z" stroke="#90BFFF" stroke-width="0.25"/>
<path d="M21.2864 12.4238C21.5767 11.6829 22.6249 11.683 22.9153 12.4238L24.0481 15.3164C24.2088 15.7264 24.5938 16.005 25.0334 16.0293L28.1428 16.2002C28.943 16.2443 29.2674 17.2516 28.6438 17.7549L26.2463 19.6904C25.9003 19.9697 25.7507 20.4268 25.8655 20.8564L26.6594 23.8281C26.8654 24.5991 26.0167 25.2209 25.344 24.792L22.7063 23.1084C22.3371 22.8727 21.8645 22.8727 21.4954 23.1084L18.8586 24.792C18.1859 25.2215 17.3362 24.5992 17.5422 23.8281L18.3362 20.8564C18.451 20.4268 18.3014 19.9697 17.9553 19.6904L15.5579 17.7549C14.9344 17.2516 15.2589 16.2445 16.0588 16.2002L19.1682 16.0293C19.6079 16.0051 19.9929 15.7264 20.1536 15.3164L21.2864 12.4238Z" stroke="#90BFFF" stroke-width="0.25"/>
</svg>
