<svg width="97" height="100" viewBox="0 0 97 100" fill="none" xmlns="http://www.w3.org/2000/svg">
<path d="M53.047 5.62405C78.3927 12.4154 93.434 38.4676 86.6426 63.8133C79.8513 89.159 53.799 104.2 28.4533 97.4089L13.523 93.4083C6.05448 91.4072 1.62231 83.7304 3.62349 76.2619L17.8644 23.1141C21.5809 9.24396 35.8377 1.01282 49.7078 4.72931L53.047 5.62405Z" fill="#DBE7FB"/>
<g filter="url(#filter0_d_2828_30873)">
<rect x="18" y="17" width="59" height="73" rx="7" fill="#F3EFEA"/>
</g>
<rect x="23.25" y="23.25" width="9.5" height="9.5" fill="white" stroke="black" stroke-width="0.5"/>
<rect x="23.25" y="36.25" width="9.5" height="9.5" fill="white" stroke="black" stroke-width="0.5"/>
<rect x="23.25" y="49.25" width="9.5" height="9.5" fill="white" stroke="black" stroke-width="0.5"/>
<rect x="23.25" y="62.25" width="9.5" height="9.5" fill="white" stroke="black" stroke-width="0.5"/>
<rect x="23.25" y="75.25" width="9.5" height="9.5" fill="white" stroke="black" stroke-width="0.5"/>
<rect x="36" y="36" width="18" height="2" rx="1" fill="#3F8BEE"/>
<rect x="36" y="23" width="37" height="2" rx="1" fill="#3F8BEE"/>
<rect x="36" y="40" width="36" height="2" rx="1" fill="#3F8BEE"/>
<rect x="36" y="49" width="37" height="2" rx="1" fill="#3F8BEE"/>
<rect x="36" y="62" width="37" height="2" rx="1" fill="#3F8BEE"/>
<rect x="36" y="75" width="8" height="2" rx="1" fill="#3F8BEE"/>
<rect x="36" y="44" width="37" height="2" rx="1" fill="#3F8BEE"/>
<rect x="36" y="27" width="24" height="2" rx="1" fill="#3F8BEE"/>
<rect x="36" y="53" width="33" height="2" rx="1" fill="#3F8BEE"/>
<rect x="36" y="66" width="24" height="2" rx="1" fill="#3F8BEE"/>
<rect x="36" y="79" width="33" height="2" rx="1" fill="#3F8BEE"/>
<rect x="36" y="31" width="37" height="2" rx="1" fill="#3F8BEE"/>
<rect x="36" y="57" width="23" height="2" rx="1" fill="#3F8BEE"/>
<rect x="36" y="70" width="37" height="2" rx="1" fill="#3F8BEE"/>
<rect x="36" y="83" width="19" height="2" rx="1" fill="#3F8BEE"/>
<path d="M25.8551 30.1601C25.645 30.1601 25.4382 30.0754 25.3013 29.9119L23.0002 27.2106L24.1078 26.4193L26.0047 28.6503L31.9244 25L32.7073 26.0688L26.2434 30.055C26.1224 30.128 25.9888 30.163 25.8519 30.163L25.8551 30.1601Z" fill="#0665EC"/>
<path d="M25.8551 43.1601C25.645 43.1601 25.4382 43.0754 25.3013 42.9119L23.0002 40.2106L24.1078 39.4193L26.0047 41.6503L31.9244 38L32.7073 39.0688L26.2434 43.055C26.1224 43.128 25.9888 43.163 25.8519 43.163L25.8551 43.1601Z" fill="#0665EC"/>
<rect x="11.4171" y="61.8151" width="15.5273" height="3.30546" rx="0.225" transform="rotate(-30 11.4171 61.8151)" fill="#A7C8F7" stroke="black" stroke-width="0.25"/>
<rect x="11.4171" y="61.8151" width="0.861093" height="3.30546" rx="0.225" transform="rotate(-30 11.4171 61.8151)" fill="#3F8BEE" stroke="black" stroke-width="0.25"/>
<rect x="9.82949" y="62.7317" width="2.08328" height="3.30546" rx="0.225" transform="rotate(-30 9.82949 62.7317)" fill="#FF7600" stroke="black" stroke-width="0.25"/>
<path d="M27.8444 54.3641L26.4847 56.7199L26.3765 56.9075L24.7998 54.1767L25.0164 54.1768L27.736 54.1763L27.9526 54.1765L27.8444 54.3641Z" fill="#FEBFAB" stroke="black" stroke-width="0.25"/>
<path d="M27.7905 54.3273L27.5261 54.7855L27.418 54.9732L26.9365 54.1393L27.1531 54.1394L27.6821 54.1396L27.8986 54.1397L27.7905 54.3273Z" fill="black" stroke="black" stroke-width="0.25"/>
<defs>
<filter id="filter0_d_2828_30873" x="14" y="17" width="67" height="81" filterUnits="userSpaceOnUse" color-interpolation-filters="sRGB">
<feFlood flood-opacity="0" result="BackgroundImageFix"/>
<feColorMatrix in="SourceAlpha" type="matrix" values="0 0 0 0 0 0 0 0 0 0 0 0 0 0 0 0 0 0 127 0" result="hardAlpha"/>
<feOffset dy="4"/>
<feGaussianBlur stdDeviation="2"/>
<feComposite in2="hardAlpha" operator="out"/>
<feColorMatrix type="matrix" values="0 0 0 0 0 0 0 0 0 0 0 0 0 0 0 0 0 0 0.09 0"/>
<feBlend mode="normal" in2="BackgroundImageFix" result="effect1_dropShadow_2828_30873"/>
<feBlend mode="normal" in="SourceGraphic" in2="effect1_dropShadow_2828_30873" result="shape"/>
</filter>
</defs>
</svg>
