<svg width="50" height="50" viewBox="0 0 50 50" fill="none" xmlns="http://www.w3.org/2000/svg">
<g clip-path="url(#clip0_743_9215)">
<path d="M19 29.5C19 23.701 23.701 19 29.5 19C35.2989 19 40 23.701 40 29.5C40 35.299 35.2989 40 29.5 40C23.701 40 19 35.299 19 29.5Z" fill="#9966FF"/>
<path d="M10 27.9444C10 27.1467 10.6467 26.5 11.4444 26.5H21.5556C22.3533 26.5 23 27.1467 23 27.9444V38.0556C23 38.8533 22.3533 39.5 21.5556 39.5H11.4444C10.6467 39.5 10 38.8533 10 38.0556V27.9444Z" fill="#0273E6" fill-opacity="0.7"/>
<path d="M18.5812 10H13.6915C13.5107 10 13.3373 10.079 13.2094 10.2197L10.1997 13.5303C10.0718 13.671 10 13.8617 10 14.0606V19.4394C10 19.6383 10.0718 19.829 10.1997 19.9697L13.2094 23.2803C13.3373 23.421 13.5107 23.5 13.6915 23.5H18.5812C18.762 23.5 18.9355 23.421 19.0633 23.2803L22.073 19.9697C22.2009 19.829 22.2727 19.6383 22.2727 19.4394V14.0606C22.2727 13.8617 22.2009 13.671 22.073 13.5303L19.0633 10.2197C18.9355 10.079 18.762 10 18.5812 10Z" fill="#FFD647"/>
<path d="M31.808 28.7052C31.6249 29.0983 31.1023 29.0983 30.9192 28.7052L22.7805 11.2352C22.615 10.8807 22.8555 10.4635 23.2246 10.4635L39.5025 10.4635C39.8719 10.4635 40.1121 10.8807 39.9469 11.2352L31.808 28.7052Z" fill="#FF7600" fill-opacity="0.7"/>
</g>
<defs>
<clipPath id="clip0_743_9215">
<rect width="30" height="30" fill="white" transform="translate(10 10)"/>
</clipPath>
</defs>
</svg>
