<svg width="50" height="50" viewBox="0 0 50 50" fill="none" xmlns="http://www.w3.org/2000/svg">
<g clip-path="url(#clip0_743_7743)">
<path d="M29.5 19.5C35.0228 19.5 39.5 23.9772 39.5 29.5C39.5 35.0228 35.0228 39.5 29.5 39.5C23.9772 39.5 19.5 35.0228 19.5 29.5C19.5 23.9772 23.9772 19.5 29.5 19.5Z" stroke="#02005D"/>
<path d="M11.4443 27H21.5557C22.0772 27.0001 22.4999 27.4228 22.5 27.9443V38.0557C22.4999 38.5772 22.0772 38.9999 21.5557 39H11.4443C10.9228 38.9999 10.5001 38.5772 10.5 38.0557V27.9443C10.5001 27.4228 10.9228 27.0001 11.4443 27Z" stroke="#02005D"/>
<path d="M13.6914 10.5H18.5811C18.613 10.5 18.6548 10.5134 18.6934 10.5557L21.7031 13.8662C21.7431 13.9102 21.7724 13.9797 21.7725 14.0605V19.4395C21.7724 19.5203 21.7431 19.5898 21.7031 19.6338L18.6934 22.9443C18.6548 22.9866 18.613 23 18.5811 23H13.6914C13.6594 23 13.6176 22.9867 13.5791 22.9443L10.5693 19.6338C10.5293 19.5898 10.5 19.5203 10.5 19.4395V14.0605C10.5 13.9797 10.5293 13.9102 10.5693 13.8662L13.5791 10.5557C13.6176 10.5133 13.6594 10.5 13.6914 10.5Z" stroke="#02005D"/>
<path d="M23.2334 11.0244L23.2334 11.0234C23.2241 11.0032 23.226 10.9821 23.2354 10.9658L23.2363 10.9639L39.4912 10.9639L39.4922 10.9658C39.5016 10.9822 39.5037 11.004 39.4941 11.0244L31.3643 28.4756L23.2334 11.0244Z" stroke="#02005D"/>
</g>
<defs>
<clipPath id="clip0_743_7743">
<rect width="30" height="30" fill="white" transform="translate(10 10)"/>
</clipPath>
</defs>
</svg>
