<svg width="100" height="162" viewBox="0 0 100 162" fill="none" xmlns="http://www.w3.org/2000/svg">
<path fill-rule="evenodd" clip-rule="evenodd" d="M68.9663 78.5111C54.6522 89.2559 41.2525 101.24 29.117 100.136C17.0061 99.0546 6.15919 84.8405 2.01861 71.2096C-2.09753 57.556 0.492691 44.4857 6.07764 31.2C11.6381 17.9371 20.1934 4.45878 32.4545 0.952676C44.6911 -2.53073 60.6582 3.95797 74.823 13.5946C88.9633 23.2313 101.326 36.0159 99.8806 47.1384C98.4599 58.2835 83.2559 67.7665 68.9663 78.5111Z" fill="#DBE7FB"/>
<path d="M14.1798 92.4535H43.3163C44.2889 92.4535 45.2043 92.8345 45.8132 93.494L49.9282 97.9348C50.3328 98.3731 50.9458 98.6271 51.5955 98.6271H97.082C98.6921 98.6271 99.9997 99.7619 99.9997 101.163V156.516C99.9997 159.54 97.1801 161.989 93.7066 161.989H15.6142C13.1787 161.989 11.209 160.273 11.209 158.155V95.0303C11.209 93.6047 12.5371 92.4453 14.1798 92.4453V92.4535Z" fill="#D3723F"/>
<path d="M35.5406 59.3945L23.2812 71.6844V118.779H83.3768V59.3945H35.5406Z" fill="white"/>
<path d="M35.5406 71.6844V59.3945L23.2812 71.6844H35.5406Z" fill="#B9CFE6"/>
<path d="M3.95553 106.328H84.6959C86.6002 106.328 88.2307 107.508 88.5822 109.134L99.1171 157.921C99.5748 160.039 97.7072 161.997 95.2308 161.997H14.4904C12.5861 161.997 10.9556 160.817 10.6042 159.191L0.0692991 110.404C-0.388385 108.286 1.47913 106.328 3.95553 106.328Z" fill="#EBAB6F"/>
<path d="M55.7795 84.6119C57.316 83.0511 58.8484 81.4862 60.385 79.9213C61.2881 78.9995 61.3698 77.3404 60.385 76.4351C59.4083 75.5379 57.8718 75.4519 56.9074 76.4351C55.3504 77.9672 53.7935 79.5034 52.2406 81.0396C50.7041 79.4993 49.1594 77.9631 47.5984 76.4432C46.6912 75.5051 44.979 75.4601 44.08 76.4432C43.1564 77.451 43.1115 78.9709 44.08 79.9704C45.5919 81.5312 47.1162 83.0757 48.6527 84.6119C47.1203 86.1481 45.5919 87.6885 44.084 89.2493C43.1482 90.1587 43.1033 91.8752 44.084 92.7765C45.0893 93.7023 46.6054 93.7474 47.6025 92.7765C49.1635 91.2607 50.7041 89.7245 52.2406 88.1841C53.7935 89.7204 55.3463 91.2525 56.9033 92.7846C57.8227 93.69 59.4778 93.7719 60.3809 92.7846C61.2758 91.8056 61.3616 90.2652 60.3809 89.2984C58.8484 87.7335 57.316 86.1727 55.7795 84.6119Z" fill="#0665EC"/>
<path d="M28.0545 23.2836L24.7363 30.3298L31.855 50.1984L50.4811 43.4922L41.5072 18.4414L28.0545 23.2836Z" fill="white"/>
<path d="M29.91 28.4715L28.0547 23.2852L24.7363 30.3313L29.91 28.4715Z" fill="#F4E8D8"/>
<path d="M38.568 33.6413C39.0298 32.6459 39.4875 31.6504 39.9452 30.6508C40.2149 30.065 39.9738 29.2661 39.3567 29.0081C38.7478 28.75 38.0082 28.9712 37.718 29.598C37.244 30.5853 36.7699 31.5684 36.2959 32.5557C35.311 32.0887 34.3261 31.6299 33.3331 31.1793C32.7487 30.8925 31.9354 31.1588 31.6739 31.7774C31.4083 32.4082 31.6453 33.1333 32.2705 33.4406C33.2472 33.9199 34.224 34.3869 35.2088 34.8498C34.747 35.833 34.2852 36.8203 33.8398 37.8117C33.5537 38.3975 33.8194 39.2168 34.4365 39.4749C35.0658 39.7412 35.7891 39.5036 36.0956 38.8768C36.5738 37.8977 37.0437 36.9145 37.5055 35.9272C38.4945 36.3861 39.4875 36.8449 40.4765 37.3037C41.0609 37.5741 41.8578 37.3324 42.1152 36.7138C42.3727 36.1034 42.152 35.3578 41.5267 35.071C40.5419 34.5958 39.557 34.1165 38.568 33.6454V33.6413Z" fill="#0665EC"/>
<path d="M66.9999 10.0195L60.7926 12.5594L53.7598 29.3433L69.4927 35.9716L78.3644 14.8085L66.9999 10.0195Z" fill="white"/>
<path d="M65.1606 14.3988L66.9996 10.0195L60.792 12.5594L65.1606 14.3988Z" fill="#F4E8D8"/>
<path d="M67.6586 22.7478C68.5291 22.3832 69.3995 22.0186 70.2741 21.654C70.789 21.441 71.0955 20.7937 70.8544 20.2652C70.6173 19.745 70.0166 19.4541 69.469 19.6835C68.5945 20.0317 67.7199 20.384 66.8454 20.7322C66.4899 19.8597 66.1343 18.9912 65.7665 18.1268C65.5622 17.6024 64.8879 17.2952 64.3648 17.5369C63.8295 17.7827 63.5598 18.3808 63.7763 18.942C64.1155 19.8146 64.467 20.6872 64.8225 21.5557C63.9562 21.9121 63.0898 22.2685 62.2316 22.6372C61.7085 22.842 61.402 23.5179 61.6431 24.0423C61.8883 24.579 62.485 24.8493 63.0448 24.6322C63.9194 24.2881 64.7898 23.9399 65.6562 23.5835C66.0158 24.4561 66.3795 25.3246 66.7432 26.1971C66.9557 26.7133 67.6014 27.0206 68.1286 26.7789C68.6476 26.5413 68.9377 25.939 68.7089 25.3901C68.3574 24.5093 68.0101 23.6327 67.6586 22.756V22.7478Z" fill="#0665EC"/>
</svg>
