<svg width="100" height="100" viewBox="0 0 100 100" fill="none" xmlns="http://www.w3.org/2000/svg">
<g clip-path="url(#clip0_2828_30875)">
<path d="M52 5.44003e-07C78.5097 2.43559e-07 100 21.4903 100 48L100 59.5C100 81.8675 81.8675 100 59.5 100L32.7727 100C22.8316 100 14.7727 91.9411 14.7727 82L14.7727 35C14.7727 15.67 30.4428 7.88321e-07 49.7727 5.69246e-07L52 5.44003e-07Z" fill="#DBE7FB"/>
<g filter="url(#filter0_d_2828_30875)">
<path d="M79.3332 36.7298L91.2026 14.1344C91.9732 12.6676 91.3843 10.9027 89.8874 10.1925L76.1513 3.67491C75.505 3.36826 74.7611 3.29799 74.0538 3.47677L71.2898 4.17539C70.4318 4.39228 69.7037 4.95603 69.2936 5.72115L58.0899 26.6223C57.3022 28.0918 57.8875 29.872 59.3933 30.5864L75.2277 38.0996C76.7246 38.8099 78.5627 38.1966 79.3332 36.7298Z" fill="white"/>
<path d="M73.4035 6.58446C73.3491 6.69076 73.2086 6.72661 73.1055 6.66053L70.1394 4.76022C69.9935 4.66671 70.0304 4.45308 70.2001 4.40977L74.731 3.25294C74.9006 3.20963 75.0453 3.37689 74.9683 3.52731L73.4035 6.58446Z" fill="#B9CFE6"/>
</g>
<g filter="url(#filter1_d_2828_30875)">
<path d="M40.5596 36.7184L28.8189 7.97966C28.1923 6.44586 26.4243 5.66746 24.8699 6.24105L7.27822 12.7325C6.61045 12.9789 6.06015 13.4516 5.72563 14.0661L3.96649 17.2974C3.55698 18.0497 3.50705 18.947 3.82967 19.7562L14.427 46.3346C15.0441 47.8824 16.8218 48.6737 18.3855 48.0967L38.8796 40.5342C40.434 39.9606 41.1862 38.2522 40.5596 36.7184Z" fill="white"/>
<path d="M7.98363 17.285C8.02981 17.3946 7.9634 17.5174 7.84266 17.5455L3.62556 18.5274C3.45455 18.5672 3.31286 18.3975 3.39316 18.2491L5.99723 13.4361C6.07754 13.2877 6.30519 13.2985 6.3706 13.4538L7.98363 17.285Z" fill="#B9CFE6"/>
</g>
<g filter="url(#filter2_d_2828_30875)">
<rect x="29.5034" y="50.9393" width="52.6094" height="49" rx="5" fill="#D3723F"/>
<path d="M71.8539 79.8595V38.7231C71.8539 36.514 70.0631 34.7231 67.8539 34.7231H42.5884C41.6484 34.7231 40.7385 35.0542 40.0182 35.6582L36.1781 38.8784C35.281 39.6308 34.7585 40.7384 34.7485 41.9092L34.4242 79.8253C34.4051 82.0477 36.2015 83.8595 38.424 83.8595H67.8539C70.0631 83.8595 71.8539 82.0686 71.8539 79.8595Z" fill="white"/>
<path d="M41.1792 40.7906C41.1805 40.9087 41.072 41.0001 40.9489 40.9847L34.9704 40.2414C34.7957 40.2196 34.7279 40.0125 34.8593 39.9018L40.7758 34.9151C40.9071 34.8044 41.1154 34.8931 41.1172 35.0605L41.1792 40.7906Z" fill="#B9CFE6"/>
<path d="M14.391 69.2566C12.6499 65.9276 15.0648 61.9393 18.8216 61.9393H61.3151C63.1761 61.9393 64.8831 62.9729 65.7457 64.6221L80.3901 92.622C82.1312 95.9511 79.7164 99.9393 75.9595 99.9393H33.4661C31.605 99.9393 29.898 98.9057 29.0355 97.2566L14.391 69.2566Z" fill="#EBAB6F"/>
</g>
<line x1="49.1213" y1="47" x2="57" y2="54.8787" stroke="#3F8BEE" stroke-width="3" stroke-linecap="round"/>
<line x1="49" y1="54.8787" x2="56.8787" y2="47" stroke="#3F8BEE" stroke-width="3" stroke-linecap="round"/>
<line x1="16.2175" y1="25.2805" x2="25.84" y2="27.7549" stroke="#3F8BEE" stroke-width="2" stroke-linecap="round"/>
<line x1="18.9252" y1="31.6389" x2="22.3814" y2="22.3239" stroke="#3F8BEE" stroke-width="2" stroke-linecap="round"/>
<line x1="71.428" y1="21.6261" x2="78.1644" y2="19.2176" stroke="#3F8BEE" stroke-linecap="round"/>
<line x1="75.7271" y1="24.0868" x2="74.0282" y2="17.1374" stroke="#3F8BEE" stroke-linecap="round"/>
</g>
<defs>
<filter id="filter0_d_2828_30875" x="55.7395" y="2.24597" width="37.8018" height="39.1493" filterUnits="userSpaceOnUse" color-interpolation-filters="sRGB">
<feFlood flood-opacity="0" result="BackgroundImageFix"/>
<feColorMatrix in="SourceAlpha" type="matrix" values="0 0 0 0 0 0 0 0 0 0 0 0 0 0 0 0 0 0 127 0" result="hardAlpha"/>
<feOffset dy="1"/>
<feGaussianBlur stdDeviation="1"/>
<feComposite in2="hardAlpha" operator="out"/>
<feColorMatrix type="matrix" values="0 0 0 0 0 0 0 0 0 0 0 0 0 0 0 0 0 0 0.03 0"/>
<feBlend mode="normal" in2="BackgroundImageFix" result="effect1_dropShadow_2828_30875"/>
<feBlend mode="normal" in="SourceGraphic" in2="effect1_dropShadow_2828_30875" result="shape"/>
</filter>
<filter id="filter1_d_2828_30875" x="1.37012" y="5.05237" width="41.4104" height="46.233" filterUnits="userSpaceOnUse" color-interpolation-filters="sRGB">
<feFlood flood-opacity="0" result="BackgroundImageFix"/>
<feColorMatrix in="SourceAlpha" type="matrix" values="0 0 0 0 0 0 0 0 0 0 0 0 0 0 0 0 0 0 127 0" result="hardAlpha"/>
<feOffset dy="1"/>
<feGaussianBlur stdDeviation="1"/>
<feComposite in2="hardAlpha" operator="out"/>
<feColorMatrix type="matrix" values="0 0 0 0 0 0 0 0 0 0 0 0 0 0 0 0 0 0 0.03 0"/>
<feBlend mode="normal" in2="BackgroundImageFix" result="effect1_dropShadow_2828_30875"/>
<feBlend mode="normal" in="SourceGraphic" in2="effect1_dropShadow_2828_30875" result="shape"/>
</filter>
<filter id="filter2_d_2828_30875" x="12.8149" y="32.7231" width="72.2979" height="69.2162" filterUnits="userSpaceOnUse" color-interpolation-filters="sRGB">
<feFlood flood-opacity="0" result="BackgroundImageFix"/>
<feColorMatrix in="SourceAlpha" type="matrix" values="0 0 0 0 0 0 0 0 0 0 0 0 0 0 0 0 0 0 127 0" result="hardAlpha"/>
<feOffset dx="1"/>
<feGaussianBlur stdDeviation="1"/>
<feComposite in2="hardAlpha" operator="out"/>
<feColorMatrix type="matrix" values="0 0 0 0 0 0 0 0 0 0 0 0 0 0 0 0 0 0 0.25 0"/>
<feBlend mode="normal" in2="BackgroundImageFix" result="effect1_dropShadow_2828_30875"/>
<feBlend mode="normal" in="SourceGraphic" in2="effect1_dropShadow_2828_30875" result="shape"/>
</filter>
<clipPath id="clip0_2828_30875">
<rect width="100" height="100" fill="white"/>
</clipPath>
</defs>
</svg>
