<svg width="24" height="17" viewBox="0 0 24 17" fill="none" xmlns="http://www.w3.org/2000/svg">
<path d="M15.3838 8.5C15.3838 8.95963 15.2933 9.41475 15.1174 9.83939C14.9415 10.264 14.6837 10.6499 14.3587 10.9749C14.0337 11.2999 13.6478 11.5577 13.2232 11.7336C12.7985 11.9095 12.3434 12 11.8838 12C11.4242 12 10.969 11.9095 10.5444 11.7336C10.1198 11.5577 9.73392 11.2999 9.40892 10.9749C9.08391 10.6499 8.8261 10.264 8.65021 9.83939C8.47432 9.41475 8.38379 8.95963 8.38379 8.5C8.38379 7.57174 8.75254 6.6815 9.40892 6.02513C10.0653 5.36875 10.9555 5 11.8838 5C12.812 5 13.7023 5.36875 14.3587 6.02513C15.015 6.6815 15.3838 7.57174 15.3838 8.5Z" fill="#0665EC"/>
<path d="M11.8838 0C15.3158 0 18.0078 1.534 19.9378 3.241C21.8638 4.944 23.0698 6.851 23.5538 7.701C23.6938 7.94399 23.7676 8.21953 23.7676 8.5C23.7676 8.78047 23.6938 9.05601 23.5538 9.299C23.0698 10.149 21.8638 12.056 19.9378 13.76C18.0088 15.466 15.3158 17 11.8838 17C8.45178 17 5.75978 15.466 3.82978 13.76C1.90378 12.058 0.697783 10.15 0.213782 9.3C0.0737242 9.05701 0 8.78147 0 8.501C0 8.22053 0.0737242 7.94499 0.213782 7.702C0.697783 6.852 1.90378 4.945 3.82978 3.24C5.75878 1.534 8.45178 0 11.8838 0ZM1.51678 8.445C1.50654 8.4616 1.50069 8.48052 1.49978 8.5C1.50078 8.52 1.50578 8.539 1.51678 8.556C1.95778 9.33 3.06778 11.083 4.82378 12.636C6.57478 14.185 8.92878 15.5 11.8838 15.5C14.8388 15.5 17.1938 14.185 18.9438 12.636C20.6998 11.083 21.8098 9.33 22.2508 8.556C22.2614 8.53919 22.2672 8.51985 22.2678 8.5C22.2672 8.48015 22.2614 8.46081 22.2508 8.444C21.8098 7.671 20.6998 5.917 18.9438 4.364C17.1928 2.815 14.8388 1.5 11.8838 1.5C8.92878 1.5 6.57378 2.814 4.82378 4.365C3.06778 5.917 1.95778 7.671 1.51678 8.445Z" fill="#0665EC"/>
</svg>
