<svg width="30" height="30" viewBox="0 0 30 30" fill="none" xmlns="http://www.w3.org/2000/svg">
<g clip-path="url(#clip0_1130_11685)">
<path d="M15 0.5C23.037 0.5 29.4997 6.6247 29.5 14.1172C29.5 17.0667 28.5021 19.7988 26.8018 22.0312L26.6357 22.249L26.7295 22.5059L29.2305 29.3516L18.4229 27.3936L18.3252 27.376L18.2285 27.3965C17.1908 27.6181 16.1103 27.7354 15 27.7354C6.96287 27.7354 0.5 21.6099 0.5 14.1172C0.500264 6.6247 6.96304 0.5 15 0.5ZM15 12.1318C13.4574 12.1318 12.25 13.4403 12.25 15C12.25 16.5597 13.4574 17.8682 15 17.8682C16.5426 17.8682 17.75 16.5597 17.75 15C17.75 13.4403 16.5426 12.1318 15 12.1318ZM8.25 12.9209C7.12159 12.9209 6.25 13.8763 6.25 15C6.25 16.1237 7.12159 17.0791 8.25 17.0791C9.37841 17.0791 10.25 16.1237 10.25 15C10.25 13.8763 9.37841 12.9209 8.25 12.9209ZM21.75 12.9209C20.6216 12.9209 19.75 13.8763 19.75 15C19.75 16.1237 20.6216 17.0791 21.75 17.0791C22.8784 17.0791 23.75 16.1237 23.75 15C23.75 13.8763 22.8784 12.9209 21.75 12.9209Z" stroke="#98A2B3"/>
</g>
<defs>
<clipPath id="clip0_1130_11685">
<rect width="30" height="30" fill="white"/>
</clipPath>
</defs>
</svg>
