<svg width="50" height="50" viewBox="0 0 50 50" fill="none" xmlns="http://www.w3.org/2000/svg">
<g clip-path="url(#clip0_743_9241)">
<path d="M25 10.5C33.037 10.5 39.4997 16.6247 39.5 24.1172C39.5 27.0667 38.5021 29.7988 36.8018 32.0312L36.6357 32.249L36.7295 32.5059L39.2305 39.3516L28.4229 37.3936L28.3252 37.376L28.2285 37.3965C27.1908 37.6181 26.1103 37.7354 25 37.7354C16.9629 37.7354 10.5 31.6099 10.5 24.1172C10.5003 16.6247 16.963 10.5 25 10.5ZM25 22.1318C23.4574 22.1318 22.25 23.4403 22.25 25C22.25 26.5597 23.4574 27.8682 25 27.8682C26.5426 27.8682 27.75 26.5597 27.75 25C27.75 23.4403 26.5426 22.1318 25 22.1318ZM18.25 22.9209C17.1216 22.9209 16.25 23.8763 16.25 25C16.25 26.1237 17.1216 27.0791 18.25 27.0791C19.3784 27.0791 20.25 26.1237 20.25 25C20.25 23.8763 19.3784 22.9209 18.25 22.9209ZM31.75 22.9209C30.6216 22.9209 29.75 23.8763 29.75 25C29.75 26.1237 30.6216 27.0791 31.75 27.0791C32.8784 27.0791 33.75 26.1237 33.75 25C33.75 23.8763 32.8784 22.9209 31.75 22.9209Z" stroke="#02005D"/>
</g>
<defs>
<clipPath id="clip0_743_9241">
<rect width="30" height="30" fill="white" transform="translate(10 10)"/>
</clipPath>
</defs>
</svg>
