<svg width="20" height="21" viewBox="0 0 20 21" fill="none" xmlns="http://www.w3.org/2000/svg">
<path d="M19.0336 17.5977L17.5604 19.0429C16.2587 20.3199 14.1481 20.3199 12.8464 19.0429L12.5518 18.7538" stroke="#D6D6D6" stroke-width="1.5" stroke-linecap="round" stroke-linejoin="round"/>
<path d="M18.7394 19.6209L19.0341 17.5977L16.9717 17.8867L18.7394 19.6209Z" stroke="#E4E7EC" stroke-width="1.5" stroke-linecap="round" stroke-linejoin="round"/>
<path d="M11.667 15.483L13.1401 14.0379C14.4419 12.7608 16.5524 12.7608 17.8542 14.0379L18.1488 14.3269" stroke="#E4E7EC" stroke-width="1.5" stroke-linecap="round" stroke-linejoin="round"/>
<path d="M11.9616 13.4609L11.667 15.4842L13.7293 15.1952L11.9616 13.4609Z" stroke="#E4E7EC" stroke-width="1.5" stroke-linecap="round" stroke-linejoin="round"/>
<path d="M16.6663 9.81001V4.69928C16.6663 4.56919 16.6137 4.44442 16.5199 4.35243L13.8961 1.77844C13.8023 1.68644 13.6752 1.63477 13.5426 1.63477H3.83301C3.55687 1.63477 3.33301 1.85438 3.33301 2.12528V17.4947C3.33301 17.7657 3.55687 17.9852 3.83301 17.9852H9.16634" stroke="#98A2B3" stroke-width="1.5" stroke-linecap="round" stroke-linejoin="round"/>
<path d="M13.333 4.41435V1.9238C13.333 1.76417 13.4649 1.63477 13.6277 1.63477C13.7058 1.63477 13.7807 1.66522 13.836 1.71942L16.58 4.41145C16.6353 4.46565 16.6663 4.53917 16.6663 4.61583C16.6663 4.77546 16.5344 4.90486 16.3717 4.90486H13.833C13.5568 4.90486 13.333 4.68525 13.333 4.41435Z" fill="#98A2B3" stroke="#98A2B3" stroke-width="1.5" stroke-linecap="round" stroke-linejoin="round"/>
</svg>
