<svg width="30" height="30" viewBox="0 0 30 30" fill="none" xmlns="http://www.w3.org/2000/svg">
<g clip-path="url(#clip0_1130_11774)">
<path d="M15 0.5C23.0081 0.5 29.5 6.99187 29.5 15C29.5 23.0081 23.0081 29.5 15 29.5C6.99187 29.5 0.5 23.0081 0.5 15C0.5 6.99187 6.99187 0.5 15 0.5ZM6.375 11.5C5.27044 11.5 4.375 12.3954 4.375 13.5V16.5C4.375 17.6046 5.27045 18.5 6.375 18.5H23.625C24.7296 18.5 25.625 17.6046 25.625 16.5V13.5C25.625 12.3954 24.7296 11.5 23.625 11.5H6.375Z" stroke="#98A2B3"/>
</g>
<defs>
<clipPath id="clip0_1130_11774">
<rect width="30" height="30" fill="white"/>
</clipPath>
</defs>
</svg>
