<svg width="50" height="50" viewBox="0 0 50 50" fill="none" xmlns="http://www.w3.org/2000/svg">
<g clip-path="url(#clip0_743_9245)">
<path d="M25 10.5C33.0081 10.5 39.5 16.9919 39.5 25C39.5 33.0081 33.0081 39.5 25 39.5C16.9919 39.5 10.5 33.0081 10.5 25C10.5 16.9919 16.9919 10.5 25 10.5ZM16.375 21.5C15.2704 21.5 14.375 22.3954 14.375 23.5V26.5C14.375 27.6046 15.2704 28.5 16.375 28.5H33.625C34.7296 28.5 35.625 27.6046 35.625 26.5V23.5C35.625 22.3954 34.7296 21.5 33.625 21.5H16.375Z" stroke="#02005D"/>
</g>
<defs>
<clipPath id="clip0_743_9245">
<rect width="30" height="30" fill="white" transform="translate(10 10)"/>
</clipPath>
</defs>
</svg>
