<svg width="20" height="20" viewBox="0 0 20 20" fill="none" xmlns="http://www.w3.org/2000/svg">
<path d="M10.6257 6.45898C10.6257 6.29322 10.5598 6.13425 10.4426 6.01704C10.3254 5.89983 10.1664 5.83398 10.0007 5.83398C9.83489 5.83398 9.67592 5.89983 9.55871 6.01704C9.4415 6.13425 9.37565 6.29322 9.37565 6.45898V9.37565H6.45898C6.29322 9.37565 6.13425 9.4415 6.01704 9.55871C5.89983 9.67592 5.83398 9.83489 5.83398 10.0007C5.83398 10.1664 5.89983 10.3254 6.01704 10.4426C6.13425 10.5598 6.29322 10.6257 6.45898 10.6257H9.37565V13.5423C9.37565 13.7081 9.4415 13.867 9.55871 13.9843C9.67592 14.1015 9.83489 14.1673 10.0007 14.1673C10.1664 14.1673 10.3254 14.1015 10.4426 13.9843C10.5598 13.867 10.6257 13.7081 10.6257 13.5423V10.6257H13.5423C13.7081 10.6257 13.867 10.5598 13.9843 10.4426C14.1015 10.3254 14.1673 10.1664 14.1673 10.0007C14.1673 9.83489 14.1015 9.67592 13.9843 9.55871C13.867 9.4415 13.7081 9.37565 13.5423 9.37565H10.6257V6.45898Z" fill="#0665EC"/>
<path d="M10.0007 0.833984C15.0631 0.833984 19.1673 4.93815 19.1673 10.0007C19.1673 15.0631 15.0631 19.1673 10.0007 19.1673C4.93815 19.1673 0.833984 15.0631 0.833984 10.0007C0.833984 4.93815 4.93815 0.833984 10.0007 0.833984ZM2.08398 10.0007C2.08398 12.1003 2.91806 14.1139 4.40272 15.5986C5.88738 17.0832 7.90102 17.9173 10.0007 17.9173C12.1003 17.9173 14.1139 17.0832 15.5986 15.5986C17.0832 14.1139 17.9173 12.1003 17.9173 10.0007C17.9173 7.90102 17.0832 5.88738 15.5986 4.40272C14.1139 2.91806 12.1003 2.08398 10.0007 2.08398C7.90102 2.08398 5.88738 2.91806 4.40272 4.40272C2.91806 5.88738 2.08398 7.90102 2.08398 10.0007Z" fill="#0665EC"/>
</svg>
