<svg width="100" height="85" viewBox="0 0 100 85" fill="none" xmlns="http://www.w3.org/2000/svg">
<path d="M42.5857 8.64685C41.2242 11.7687 37.6011 13.1909 34.4922 11.8238C31.3832 10.4567 29.9668 6.81862 31.3283 3.69681C32.6892 0.574986 36.3129 -0.847266 39.4218 0.519848C42.5303 1.88642 43.9472 5.52503 42.5857 8.64685Z" fill="#FFD647"/>
<path d="M41.5804 8.20426C40.4623 10.7682 37.4857 11.9364 34.9323 10.8136C34.6658 10.6963 34.4144 10.559 34.1792 10.4033C33.7808 10.1406 33.4292 9.8276 33.1283 9.47569C33.0147 9.34217 32.9076 9.20324 32.8085 9.05999C32.0828 8.00695 31.7673 6.69605 31.9671 5.39922C32.0322 4.97432 32.1533 4.55105 32.3331 4.1386C33.167 2.22658 35.0346 1.09029 36.9894 1.10165C37.6553 1.10597 38.3325 1.24328 38.9813 1.5287C39.5433 1.77574 40.038 2.11306 40.4558 2.51687C40.5823 2.6385 40.7013 2.76608 40.8133 2.8996C41.1174 3.26124 41.3672 3.66181 41.5583 4.08886C42.1242 5.35002 42.1764 6.83769 41.5804 8.20426Z" fill="#FAD332"/>
<path d="M31.1908 33.5027C29.5693 37.2219 25.2523 38.9166 21.5484 37.2878C17.8445 35.6596 16.1568 31.3247 17.7789 27.6056C19.4004 23.8864 23.7174 22.1917 27.4213 23.8205C31.1251 25.4487 32.8129 29.7835 31.1908 33.5027Z" fill="#FFD647"/>
<path d="M29.9932 32.9754C28.6614 36.0302 25.1152 37.4222 22.073 36.0842C21.7554 35.9448 21.4555 35.781 21.1756 35.5956C20.7013 35.2826 20.2824 34.9096 19.9239 34.4906C19.7882 34.3317 19.6612 34.1663 19.5428 33.9955C18.6782 32.7408 18.3019 31.1796 18.5398 29.6336C18.6173 29.1276 18.7616 28.6232 18.9759 28.1313C19.9691 25.8533 22.1941 24.4997 24.523 24.5138C25.3166 24.5186 26.123 24.6824 26.8966 25.0225C27.5664 25.3171 28.1559 25.7187 28.6533 26.1998C28.8035 26.3447 28.9456 26.4971 29.0791 26.6561C29.4409 27.0869 29.7391 27.5642 29.9669 28.0729C30.6409 29.5757 30.7033 31.3477 29.9932 32.9759V32.9754Z" fill="#FAD332"/>
<path d="M82.2348 38.3113C80.6133 42.0305 76.2957 43.7252 72.5923 42.0964C68.8885 40.4682 67.2007 36.1328 68.8228 32.4142C70.4443 28.695 74.7619 27.0003 78.4652 28.6291C82.1686 30.2578 83.8568 34.5927 82.2348 38.3113Z" fill="#FFD647"/>
<path d="M81.0376 37.784C79.7057 40.8388 76.1596 42.2307 73.1174 40.8928C72.7998 40.7534 72.4999 40.5896 72.22 40.4041C71.7457 40.0912 71.3268 39.7182 70.9683 39.2992C70.8326 39.1403 70.7056 38.9749 70.5877 38.804C69.7231 37.5494 69.3468 35.9882 69.5847 34.4427C69.6622 33.9367 69.8065 33.4324 70.0208 32.9404C71.014 30.6625 73.2391 29.3089 75.568 29.3224C76.3615 29.3272 77.168 29.491 77.9416 29.831C78.6113 30.1257 79.2008 30.5273 79.6982 31.0084C79.8484 31.1533 79.9905 31.3057 80.124 31.4647C80.4858 31.8955 80.7841 32.3728 81.0118 32.8815C81.6858 34.3843 81.7483 36.1563 81.0382 37.7845L81.0376 37.784Z" fill="#FAD332"/>
<path d="M74.8823 41.6079C74.232 41.4722 74.1055 41.5252 73.7518 42.0803C73.8907 41.436 73.8379 41.3089 73.2812 40.9451C73.9316 41.0808 74.0581 41.0278 74.4118 40.4727C74.2767 41.1257 74.3294 41.2527 74.8823 41.6079Z" fill="white"/>
<path d="M61.8441 19.1662L57.6907 30.2918L44.6303 65.2784L43.2779 68.9007L39.376 67.4504L17.7256 59.4028L27.7449 32.6417L32.8452 19.0176L32.9044 18.8576L47.3608 13.7832L61.8441 19.1662Z" fill="#3F964F"/>
<path d="M42.5735 16.916L52.3759 20.5595C51.4967 22.9445 52.7096 25.5944 55.0849 26.4777L42.8901 58.9338C40.5144 58.0505 37.8748 59.269 36.9957 61.6545L27.1934 58.0105C28.0725 55.625 26.8596 52.9756 24.4844 52.0923L36.6791 19.6362C39.0549 20.5195 41.6939 19.3016 42.5735 16.916Z" fill="#00D923"/>
<path d="M42.6727 30.7355C46.6162 32.2015 48.6301 36.6002 47.1701 40.5599C45.7101 44.5196 41.3296 46.5419 37.3861 45.0758C33.4427 43.6098 31.4287 39.2111 32.8887 35.2514C34.3487 31.2912 38.7293 29.2694 42.6727 30.7355Z" fill="#3F964F"/>
<path d="M47.3604 13.7832L41.6075 24.2325L32.8448 19.0176L32.6973 18.93L32.904 18.8576L47.3604 13.7832Z" fill="#3F964F"/>
<g style="mix-blend-mode:color-burn" opacity="0.2">
<path d="M31.5586 22.507L41.6075 24.2325L32.8447 19.0176L31.5586 22.507Z" fill="#193F1E"/>
</g>
<g style="mix-blend-mode:color-burn" opacity="0.2">
<path d="M47.3603 13.7832L41.6074 24.2325L48.3212 14.14L47.3603 13.7832Z" fill="#193F1E"/>
</g>
<g style="mix-blend-mode:color-burn" opacity="0.2">
<path d="M57.6902 30.291L44.6303 65.2776L39.376 67.4496L17.7256 59.402L27.7443 32.6409H32.3892C34.1443 32.6409 35.6371 35.3692 36.1932 39.1781L57.6902 30.291Z" fill="#193F1E"/>
</g>
<path d="M69.1947 27.138L10.3623 51.4629L20.7366 76.7617L79.5689 52.4368L69.1947 27.138Z" fill="#3F964F"/>
<path d="M68.1492 36.6917L72.1282 46.3966C69.7858 47.3648 68.6687 50.0563 69.6329 52.4083L27.7669 69.717C26.8027 67.3649 24.1211 66.2427 21.7788 67.2114L17.7998 57.5059C20.1416 56.5372 21.2593 53.8463 20.2951 51.4942L62.1611 34.1855C63.1253 36.5376 65.8063 37.6598 68.1487 36.6917H68.1492Z" fill="#00D923"/>
<path d="M51.6141 48.6296C53.2152 52.5341 51.3606 57.0025 47.472 58.6102C43.5835 60.2178 39.1335 58.3556 37.5324 54.451C35.9314 50.5464 37.786 46.078 41.6745 44.4704C45.563 42.8627 50.0131 44.725 51.6141 48.6296Z" fill="#3F964F"/>
<path d="M35.3198 44.4503V71.4002H8.07324V44.4503H27.2477C27.2671 39.0614 29.0663 34.707 31.2832 34.707C33.5002 34.707 35.2999 39.0614 35.3192 44.4503H35.3198Z" fill="#3F964F"/>
<path d="M31.2811 34.7441H12.1104V65.0374H31.2811V34.7441Z" fill="#00D923"/>
<path d="M28.4105 52.7327C29.0123 49.0098 26.4946 45.502 22.7871 44.8976C19.0795 44.2933 15.586 46.8214 14.9842 50.5443C14.3824 54.2672 16.9001 57.775 20.6077 58.3794C24.3152 58.9837 27.8087 56.4556 28.4105 52.7327Z" fill="#3F964F"/>
<g style="mix-blend-mode:color-burn" opacity="0.2">
<path d="M35.3198 44.4504V47.2111H8.07324V34.707H31.2838C33.5007 34.707 35.3004 39.0614 35.3198 44.4504Z" fill="#193F1E"/>
</g>
<path d="M31.2831 34.7056C29.0662 34.7056 27.2665 39.0599 27.2476 44.4489H0V44.4479C0.019919 39.0589 1.81963 34.7051 4.03657 34.7051H31.2831V34.7056Z" fill="#3F964F"/>
<path d="M26.3662 34.7051C25.3859 34.7051 24.5234 35.5976 24.026 36.9474C22.5229 36.9847 21.3165 38.1448 21.3165 39.5703V39.5773H7.54058V39.5703C7.54058 38.261 6.52309 37.176 5.19336 36.9787C5.68864 35.6116 6.55701 34.7056 7.54488 34.7056H26.3657L26.3662 34.7051Z" fill="#00D923"/>
<g style="mix-blend-mode:color-burn" opacity="0.2">
<path d="M8.07324 55.9664V54.6836H74.2017L70.8176 56.0415L8.07324 55.9664Z" fill="#193F1E"/>
</g>
<path d="M71.5889 56.0756C69.744 60.3066 64.832 62.2349 60.6184 60.3823C56.4047 58.5298 54.4844 53.5976 56.3293 49.3665C58.1742 45.1354 63.0862 43.2072 67.2998 45.0597C71.5135 46.9123 73.4338 51.8445 71.5889 56.0756Z" fill="#FFD647"/>
<path d="M70.2268 55.4768C68.7113 58.9522 64.6769 60.5355 61.2158 59.0138C60.8546 58.8549 60.5138 58.6689 60.1951 58.4576C59.6551 58.1019 59.1787 57.677 58.7712 57.2002C58.6166 57.0191 58.4724 56.831 58.3378 56.6364C57.3537 55.2092 56.9262 53.4324 57.197 51.6744C57.2853 51.0987 57.4495 50.5246 57.6934 49.9657C58.8234 47.3736 61.3547 45.8341 64.0045 45.8497C64.9073 45.8551 65.8247 46.0411 66.7049 46.4281C67.4666 46.7633 68.1374 47.2206 68.7032 47.7677C68.8744 47.9326 69.0359 48.1055 69.1877 48.2866C69.5996 48.7764 69.9387 49.3202 70.1977 49.8986C70.9648 51.6085 71.0354 53.6243 70.2278 55.4768H70.2268Z" fill="#FAD332"/>
<path d="M68.7027 47.7676L58.3378 56.6368C57.3537 55.2097 56.9262 53.4328 57.197 51.6748L64.0045 45.8496C64.9073 45.855 65.8247 46.041 66.7049 46.428C67.4666 46.7632 68.1374 47.2205 68.7032 47.7676H68.7027Z" fill="#FAEE6C" fill-opacity="0.84"/>
<path d="M70.1965 49.8977L60.1944 58.4566C59.6545 58.1009 59.178 57.676 58.7705 57.1992L69.1865 48.2852C69.5984 48.7749 69.9375 49.3187 70.1965 49.8972V49.8977Z" fill="#FAEE6C" fill-opacity="0.84"/>
<path d="M60.7441 45.7045C60.1218 46.4602 60.1029 46.6618 60.5794 47.5057C59.8402 46.8819 59.6394 46.8629 58.7861 47.3403C59.409 46.5845 59.4273 46.3829 58.9509 45.5391C59.7035 46.1645 59.9043 46.1829 60.7441 45.7045Z" fill="white"/>
<path d="M71.7022 55.9668H4.00275C2.60919 55.9668 1.47949 57.1012 1.47949 58.5005V81.989C1.47949 83.3883 2.60919 84.5227 4.00275 84.5227H71.7022C73.0957 84.5227 74.2254 83.3883 74.2254 81.989V58.5005C74.2254 57.1012 73.0957 55.9668 71.7022 55.9668Z" fill="#0665EC"/>
<path d="M39.5405 55.9668H36.165V84.5405H39.5405V55.9668Z" fill="#0665EC"/>
<path d="M69.9972 82.9737H68.1539C68.0021 82.9737 67.8788 82.8499 67.8788 82.6974C67.8788 82.545 68.0021 82.4212 68.1539 82.4212H69.9972C70.1491 82.4212 70.2723 82.545 70.2723 82.6974C70.2723 82.8499 70.1491 82.9737 69.9972 82.9737ZM66.3198 82.9737H64.4861C64.3343 82.9737 64.211 82.8499 64.211 82.6974C64.211 82.545 64.3343 82.4212 64.4861 82.4212H66.3198C66.4716 82.4212 66.5949 82.545 66.5949 82.6974C66.5949 82.8499 66.4716 82.9737 66.3198 82.9737ZM62.6525 82.9737H60.8189C60.6671 82.9737 60.5438 82.8499 60.5438 82.6974C60.5438 82.545 60.6671 82.4212 60.8189 82.4212H62.6525C62.8043 82.4212 62.9276 82.545 62.9276 82.6974C62.9276 82.8499 62.8043 82.9737 62.6525 82.9737ZM58.9847 82.9737H57.1511C56.9993 82.9737 56.876 82.8499 56.876 82.6974C56.876 82.545 56.9993 82.4212 57.1511 82.4212H58.9847C59.1365 82.4212 59.2598 82.545 59.2598 82.6974C59.2598 82.8499 59.1365 82.9737 58.9847 82.9737ZM55.3169 82.9737H53.4833C53.3315 82.9737 53.2082 82.8499 53.2082 82.6974C53.2082 82.545 53.3315 82.4212 53.4833 82.4212H55.3169C55.4687 82.4212 55.592 82.545 55.592 82.6974C55.592 82.8499 55.4687 82.9737 55.3169 82.9737ZM51.6491 82.9737H49.8155C49.6637 82.9737 49.5404 82.8499 49.5404 82.6974C49.5404 82.545 49.6637 82.4212 49.8155 82.4212H51.6491C51.8009 82.4212 51.9242 82.545 51.9242 82.6974C51.9242 82.8499 51.8009 82.9737 51.6491 82.9737ZM47.9819 82.9737H46.1482C45.9964 82.9737 45.8731 82.8499 45.8731 82.6974C45.8731 82.545 45.9964 82.4212 46.1482 82.4212H47.9819C48.1337 82.4212 48.257 82.545 48.257 82.6974C48.257 82.8499 48.1337 82.9737 47.9819 82.9737ZM44.3141 82.9737H42.4805C42.3286 82.9737 42.2054 82.8499 42.2054 82.6974C42.2054 82.545 42.3286 82.4212 42.4805 82.4212H44.3141C44.4659 82.4212 44.5892 82.545 44.5892 82.6974C44.5892 82.8499 44.4659 82.9737 44.3141 82.9737ZM40.6463 82.9737H38.8127C38.6608 82.9737 38.5376 82.8499 38.5376 82.6974C38.5376 82.545 38.6608 82.4212 38.8127 82.4212H40.6463C40.7981 82.4212 40.9214 82.545 40.9214 82.6974C40.9214 82.8499 40.7981 82.9737 40.6463 82.9737ZM36.9785 82.9737H35.1449C34.9931 82.9737 34.8698 82.8499 34.8698 82.6974C34.8698 82.545 34.9931 82.4212 35.1449 82.4212H36.9785C37.1303 82.4212 37.2536 82.545 37.2536 82.6974C37.2536 82.8499 37.1303 82.9737 36.9785 82.9737ZM33.3107 82.9737H31.4771C31.3253 82.9737 31.202 82.8499 31.202 82.6974C31.202 82.545 31.3253 82.4212 31.4771 82.4212H33.3107C33.4625 82.4212 33.5858 82.545 33.5858 82.6974C33.5858 82.8499 33.4625 82.9737 33.3107 82.9737ZM29.6434 82.9737H27.8098C27.658 82.9737 27.5347 82.8499 27.5347 82.6974C27.5347 82.545 27.658 82.4212 27.8098 82.4212H29.6434C29.7953 82.4212 29.9185 82.545 29.9185 82.6974C29.9185 82.8499 29.7953 82.9737 29.6434 82.9737ZM25.9757 82.9737H24.142C23.9902 82.9737 23.8669 82.8499 23.8669 82.6974C23.8669 82.545 23.9902 82.4212 24.142 82.4212H25.9757C26.1275 82.4212 26.2507 82.545 26.2507 82.6974C26.2507 82.8499 26.1275 82.9737 25.9757 82.9737ZM22.3079 82.9737H20.4742C20.3224 82.9737 20.1991 82.8499 20.1991 82.6974C20.1991 82.545 20.3224 82.4212 20.4742 82.4212H22.3079C22.4597 82.4212 22.583 82.545 22.583 82.6974C22.583 82.8499 22.4597 82.9737 22.3079 82.9737ZM18.6401 82.9737H16.8064C16.6546 82.9737 16.5313 82.8499 16.5313 82.6974C16.5313 82.545 16.6546 82.4212 16.8064 82.4212H18.6401C18.7919 82.4212 18.9152 82.545 18.9152 82.6974C18.9152 82.8499 18.7919 82.9737 18.6401 82.9737ZM14.9728 82.9737H13.1392C12.9874 82.9737 12.8641 82.8499 12.8641 82.6974C12.8641 82.545 12.9874 82.4212 13.1392 82.4212H14.9728C15.1246 82.4212 15.2479 82.545 15.2479 82.6974C15.2479 82.8499 15.1246 82.9737 14.9728 82.9737ZM11.305 82.9737H9.47138C9.31957 82.9737 9.19629 82.8499 9.19629 82.6974C9.19629 82.545 9.31957 82.4212 9.47138 82.4212H11.305C11.4568 82.4212 11.5801 82.545 11.5801 82.6974C11.5801 82.8499 11.4568 82.9737 11.305 82.9737ZM7.63722 82.9737H5.80359C5.65178 82.9737 5.52849 82.8499 5.52849 82.6974C5.52849 82.545 5.65178 82.4212 5.80359 82.4212H7.63722C7.78903 82.4212 7.91232 82.545 7.91232 82.6974C7.91232 82.8499 7.78903 82.9737 7.63722 82.9737ZM4.13416 82.3379C4.06579 82.3379 3.99742 82.3125 3.94466 82.2617C3.43807 81.7768 3.15544 81.1227 3.14898 80.4205C3.14736 80.2681 3.26957 80.1432 3.42138 80.1416H3.42407C3.57481 80.1416 3.69756 80.2632 3.69917 80.4151C3.70456 80.967 3.92636 81.4806 4.32474 81.8617C4.43456 81.9671 4.43887 82.1417 4.33389 82.252C4.28005 82.3088 4.20738 82.3374 4.1347 82.3374L4.13416 82.3379ZM71.6387 82.2693C71.5698 82.2693 71.5014 82.2433 71.4476 82.192C71.3383 82.086 71.3351 81.9114 71.4406 81.8017C71.805 81.4222 72.0058 80.9227 72.0058 80.3957V80.3211C72.0058 80.1686 72.1291 80.0448 72.2809 80.0448C72.4328 80.0448 72.556 80.1686 72.556 80.3211V80.3957C72.556 81.0665 72.3009 81.7022 71.8368 82.1855C71.783 82.2417 71.7108 82.2698 71.6387 82.2698V82.2693ZM3.42354 78.8523C3.27172 78.8523 3.14844 78.7285 3.14844 78.5761V76.7349C3.14844 76.5824 3.27172 76.4587 3.42354 76.4587C3.57535 76.4587 3.69863 76.5824 3.69863 76.7349V78.5761C3.69863 78.7285 3.57535 78.8523 3.42354 78.8523ZM72.2804 78.7556C72.1286 78.7556 72.0053 78.6318 72.0053 78.4793V76.6381C72.0053 76.4857 72.1286 76.3619 72.2804 76.3619C72.4322 76.3619 72.5555 76.4857 72.5555 76.6381V78.4793C72.5555 78.6318 72.4322 78.7556 72.2804 78.7556ZM3.42354 75.1694C3.27172 75.1694 3.14844 75.0456 3.14844 74.8932V73.052C3.14844 72.8995 3.27172 72.7757 3.42354 72.7757C3.57535 72.7757 3.69863 72.8995 3.69863 73.052V74.8932C3.69863 75.0456 3.57535 75.1694 3.42354 75.1694ZM72.2804 75.0726C72.1286 75.0726 72.0053 74.9488 72.0053 74.7964V72.9546C72.0053 72.8022 72.1286 72.6784 72.2804 72.6784C72.4322 72.6784 72.5555 72.8022 72.5555 72.9546V74.7964C72.5555 74.9488 72.4322 75.0726 72.2804 75.0726ZM3.42354 71.487C3.27172 71.487 3.14844 71.3632 3.14844 71.2108V69.3696C3.14844 69.2171 3.27172 69.0933 3.42354 69.0933C3.57535 69.0933 3.69863 69.2171 3.69863 69.3696V71.2108C3.69863 71.3632 3.57535 71.487 3.42354 71.487ZM72.2804 71.3897C72.1286 71.3897 72.0053 71.2659 72.0053 71.1135V69.2722C72.0053 69.1198 72.1286 68.996 72.2804 68.996C72.4322 68.996 72.5555 69.1198 72.5555 69.2722V71.1135C72.5555 71.2659 72.4322 71.3897 72.2804 71.3897ZM3.42354 67.8041C3.27172 67.8041 3.14844 67.6803 3.14844 67.5278V65.6866C3.14844 65.5342 3.27172 65.4104 3.42354 65.4104C3.57535 65.4104 3.69863 65.5342 3.69863 65.6866V67.5278C3.69863 67.6803 3.57535 67.8041 3.42354 67.8041ZM72.2804 67.7067C72.1286 67.7067 72.0053 67.583 72.0053 67.4305V65.5893C72.0053 65.4369 72.1286 65.3131 72.2804 65.3131C72.4322 65.3131 72.5555 65.4369 72.5555 65.5893V67.4305C72.5555 67.583 72.4322 67.7067 72.2804 67.7067ZM3.42354 64.1211C3.27172 64.1211 3.14844 63.9973 3.14844 63.8449V62.0037C3.14844 61.8512 3.27172 61.7274 3.42354 61.7274C3.57535 61.7274 3.69863 61.8512 3.69863 62.0037V63.8449C3.69863 63.9973 3.57535 64.1211 3.42354 64.1211ZM72.2804 64.0238C72.1286 64.0238 72.0053 63.9 72.0053 63.7476V61.9064C72.0053 61.7539 72.1286 61.6301 72.2804 61.6301C72.4322 61.6301 72.5555 61.7539 72.5555 61.9064V63.7476C72.5555 63.9 72.4322 64.0238 72.2804 64.0238ZM3.42354 60.4382C3.27172 60.4382 3.14844 60.3144 3.14844 60.1619V60.0922C3.14844 59.4192 3.40523 58.7819 3.87144 58.2986C3.97696 58.1888 4.15139 58.1861 4.26013 58.2921C4.36942 58.398 4.37211 58.5732 4.2666 58.6824C3.90052 59.0624 3.69863 59.563 3.69863 60.0917V60.1614C3.69863 60.3138 3.57535 60.4376 3.42354 60.4376V60.4382ZM72.2804 60.3414C72.1302 60.3414 72.0075 60.2198 72.0053 60.0684C71.9988 59.5165 71.776 59.0035 71.377 58.6229C71.2667 58.5181 71.2624 58.3429 71.3668 58.2326C71.4713 58.1218 71.6457 58.1175 71.7555 58.2224C72.2632 58.7062 72.5469 59.3597 72.555 60.0619C72.5566 60.2144 72.4349 60.3393 72.2831 60.3414H72.2799H72.2804ZM69.896 58.0661H68.0624C67.9106 58.0661 67.7873 57.9423 67.7873 57.7899C67.7873 57.6375 67.9106 57.5137 68.0624 57.5137H69.896C70.0479 57.5137 70.1711 57.6375 70.1711 57.7899C70.1711 57.9423 70.0479 58.0661 69.896 58.0661ZM66.2282 58.0661H64.3946C64.2428 58.0661 64.1195 57.9423 64.1195 57.7899C64.1195 57.6375 64.2428 57.5137 64.3946 57.5137H66.2282C66.3801 57.5137 66.5033 57.6375 66.5033 57.7899C66.5033 57.9423 66.3801 58.0661 66.2282 58.0661ZM62.5605 58.0661H60.7268C60.575 58.0661 60.4517 57.9423 60.4517 57.7899C60.4517 57.6375 60.575 57.5137 60.7268 57.5137H62.5605C62.7123 57.5137 62.8355 57.6375 62.8355 57.7899C62.8355 57.9423 62.7123 58.0661 62.5605 58.0661ZM58.8927 58.0661H57.059C56.9072 58.0661 56.7839 57.9423 56.7839 57.7899C56.7839 57.6375 56.9072 57.5137 57.059 57.5137H58.8927C59.0445 57.5137 59.1678 57.6375 59.1678 57.7899C59.1678 57.9423 59.0445 58.0661 58.8927 58.0661ZM55.2254 58.0661H53.3918C53.24 58.0661 53.1167 57.9423 53.1167 57.7899C53.1167 57.6375 53.24 57.5137 53.3918 57.5137H55.2254C55.3772 57.5137 55.5005 57.6375 55.5005 57.7899C55.5005 57.9423 55.3772 58.0661 55.2254 58.0661ZM51.5576 58.0661H49.724C49.5722 58.0661 49.4489 57.9423 49.4489 57.7899C49.4489 57.6375 49.5722 57.5137 49.724 57.5137H51.5576C51.7094 57.5137 51.8327 57.6375 51.8327 57.7899C51.8327 57.9423 51.7094 58.0661 51.5576 58.0661ZM47.8898 58.0661H46.0562C45.9044 58.0661 45.7811 57.9423 45.7811 57.7899C45.7811 57.6375 45.9044 57.5137 46.0562 57.5137H47.8898C48.0416 57.5137 48.1649 57.6375 48.1649 57.7899C48.1649 57.9423 48.0416 58.0661 47.8898 58.0661ZM44.222 58.0661H42.3884C42.2366 58.0661 42.1133 57.9423 42.1133 57.7899C42.1133 57.6375 42.2366 57.5137 42.3884 57.5137H44.222C44.3738 57.5137 44.4971 57.6375 44.4971 57.7899C44.4971 57.9423 44.3738 58.0661 44.222 58.0661ZM40.5548 58.0661H38.7211C38.5693 58.0661 38.446 57.9423 38.446 57.7899C38.446 57.6375 38.5693 57.5137 38.7211 57.5137H40.5548C40.7066 57.5137 40.8299 57.6375 40.8299 57.7899C40.8299 57.9423 40.7066 58.0661 40.5548 58.0661ZM36.887 58.0661H35.0533C34.9015 58.0661 34.7782 57.9423 34.7782 57.7899C34.7782 57.6375 34.9015 57.5137 35.0533 57.5137H36.887C37.0388 57.5137 37.1621 57.6375 37.1621 57.7899C37.1621 57.9423 37.0388 58.0661 36.887 58.0661ZM33.2192 58.0661H31.3856C31.2337 58.0661 31.1105 57.9423 31.1105 57.7899C31.1105 57.6375 31.2337 57.5137 31.3856 57.5137H33.2192C33.371 57.5137 33.4943 57.6375 33.4943 57.7899C33.4943 57.9423 33.371 58.0661 33.2192 58.0661ZM29.5514 58.0661H27.7178C27.5659 58.0661 27.4427 57.9423 27.4427 57.7899C27.4427 57.6375 27.5659 57.5137 27.7178 57.5137H29.5514C29.7032 57.5137 29.8265 57.6375 29.8265 57.7899C29.8265 57.9423 29.7032 58.0661 29.5514 58.0661ZM25.8836 58.0661H24.05C23.8981 58.0661 23.7749 57.9423 23.7749 57.7899C23.7749 57.6375 23.8981 57.5137 24.05 57.5137H25.8836C26.0354 57.5137 26.1587 57.6375 26.1587 57.7899C26.1587 57.9423 26.0354 58.0661 25.8836 58.0661ZM22.2163 58.0661H20.3827C20.2309 58.0661 20.1076 57.9423 20.1076 57.7899C20.1076 57.6375 20.2309 57.5137 20.3827 57.5137H22.2163C22.3682 57.5137 22.4914 57.6375 22.4914 57.7899C22.4914 57.9423 22.3682 58.0661 22.2163 58.0661ZM18.5485 58.0661H16.7149C16.5631 58.0661 16.4398 57.9423 16.4398 57.7899C16.4398 57.6375 16.5631 57.5137 16.7149 57.5137H18.5485C18.7004 57.5137 18.8236 57.6375 18.8236 57.7899C18.8236 57.9423 18.7004 58.0661 18.5485 58.0661ZM14.8807 58.0661H13.0471C12.8953 58.0661 12.772 57.9423 12.772 57.7899C12.772 57.6375 12.8953 57.5137 13.0471 57.5137H14.8807C15.0326 57.5137 15.1558 57.6375 15.1558 57.7899C15.1558 57.9423 15.0326 58.0661 14.8807 58.0661ZM11.213 58.0661H9.37933C9.22751 58.0661 9.10423 57.9423 9.10423 57.7899C9.10423 57.6375 9.22751 57.5137 9.37933 57.5137H11.213C11.3648 57.5137 11.4881 57.6375 11.4881 57.7899C11.4881 57.9423 11.3648 58.0661 11.213 58.0661ZM7.54516 58.0661H5.71638C5.56456 58.0661 5.43913 57.9423 5.43913 57.7899C5.43913 57.6375 5.55972 57.5137 5.71153 57.5137H7.54516C7.69698 57.5137 7.82026 57.6375 7.82026 57.7899C7.82026 57.9423 7.69698 58.0661 7.54516 58.0661Z" fill="#3F8BEE"/>
<path d="M43.1268 62.6035H67.7171C68.2463 62.6035 68.6759 63.0349 68.6759 63.5663V76.5401C68.6759 77.0715 68.2463 77.5028 67.7171 77.5028H43.1268C42.5976 77.5028 42.168 77.0715 42.168 76.5401V63.5663C42.168 63.0349 42.5976 62.6035 43.1268 62.6035Z" fill="#3F8BEE"/>
<path d="M54.7192 64.8047H66.4052C66.5527 64.8047 66.6722 64.9247 66.6722 65.0728V65.9729C66.6722 66.121 66.5527 66.241 66.4052 66.241H54.7192C54.5717 66.241 54.4521 66.121 54.4521 65.9729V65.0728C54.4521 64.9247 54.5717 64.8047 54.7192 64.8047Z" fill="#0665EC"/>
<path d="M54.7192 70.668H60.5635C60.711 70.668 60.8305 70.788 60.8305 70.9361V71.8361C60.8305 71.9843 60.711 72.1043 60.5635 72.1043H54.7192C54.5717 72.1043 54.4521 71.9843 54.4521 71.8361V70.9361C54.4521 70.788 54.5717 70.668 54.7192 70.668Z" fill="#0665EC"/>
<path d="M66.4052 73.6016H54.7192C54.5717 73.6016 54.4521 73.7216 54.4521 73.8697V74.7697C54.4521 74.9178 54.5717 75.0379 54.7192 75.0379H66.4052C66.5527 75.0379 66.6722 74.9178 66.6722 74.7697V73.8697C66.6722 73.7216 66.5527 73.6016 66.4052 73.6016Z" fill="#0665EC"/>
<path d="M54.7192 67.7363H63.693C63.8405 67.7363 63.96 67.8563 63.96 68.0045V68.9045C63.96 69.0526 63.8405 69.1726 63.693 69.1726H54.7192C54.5717 69.1726 54.4521 69.0526 54.4521 68.9045V68.0045C54.4521 67.8563 54.5717 67.7363 54.7192 67.7363Z" fill="#0665EC"/>
<path d="M53.1407 64.8047H44.2891V75.0378H53.1407V64.8047Z" fill="white"/>
<path d="M53.1407 73.4574V75.0364H44.2891V73.4574C44.9771 72.5692 46.6993 71.9395 48.7149 71.9395C50.7304 71.9395 52.4526 72.5692 53.1407 73.4574Z" fill="#0665EC"/>
<path d="M51.0086 69.0841C51.0086 70.3561 49.982 71.3869 48.7153 71.3869C47.4485 71.3869 46.4219 70.3561 46.4219 69.0841C46.4219 67.8121 47.4485 66.7812 48.7153 66.7812C49.982 66.7812 51.0086 67.8121 51.0086 69.0841Z" fill="#201D40"/>
<path d="M50.759 69.504C50.759 69.5418 50.758 69.5786 50.7564 69.6159C50.7004 70.7457 49.8078 71.6446 48.7155 71.6446C47.6231 71.6446 46.7343 70.75 46.6751 69.6234C46.673 69.584 46.6719 69.544 46.6719 69.504C46.6719 68.738 47.0563 68.0649 47.635 67.6871C47.9483 67.4817 48.3187 67.3633 48.7155 67.3633C48.7898 67.3633 48.8635 67.3676 48.9356 67.3757C49.9601 67.4909 50.7585 68.4001 50.7585 69.504H50.759Z" fill="#F37A50"/>
<path d="M50.7588 69.4153C50.7588 69.4515 50.7577 69.4867 50.7561 69.5223C50.5962 69.551 50.431 69.5661 50.2625 69.5661C49.4668 69.5661 48.7492 69.2299 48.2442 68.6909C47.9739 68.4028 47.764 68.0568 47.6348 67.6736C47.9481 67.4768 48.3185 67.3633 48.7152 67.3633C48.7895 67.3633 48.8633 67.3676 48.9354 67.3752C49.9599 67.4854 50.7583 68.3569 50.7583 69.4153H50.7588Z" fill="#201D40"/>
<path d="M48.9352 67.3757C48.8265 67.8784 48.5826 68.3309 48.2434 68.6915C47.8348 69.1266 47.2889 69.4299 46.6741 69.5299C46.672 69.4921 46.6709 69.4537 46.6709 69.4153C46.6709 68.6807 47.0553 68.0358 47.634 67.6736C47.9473 67.4768 48.3177 67.3633 48.7145 67.3633C48.7888 67.3633 48.8625 67.3676 48.9347 67.3752L48.9352 67.3757Z" fill="#201D40"/>
<path d="M32.0548 62.9649V64.3758H8.31836V62.9649C8.31836 62.1119 9.00745 61.4199 9.85643 61.4199H30.5168C31.3663 61.4199 32.0548 62.1119 32.0548 62.9649Z" fill="#FAD332"/>
<path d="M34.4456 63.7832H6.4707V64.3762H34.4456V63.7832Z" fill="#0665EC"/>
<path d="M32.0548 66.961V67.8691H8.31836V66.961C8.31836 66.108 9.00745 65.416 9.85643 65.416H30.5168C31.3663 65.416 32.0548 66.108 32.0548 66.961Z" fill="#E62552"/>
<path d="M34.4456 67.7148H6.4707V68.3079H34.4456V67.7148Z" fill="#0665EC"/>
<path d="M32.0548 71.1407V72.4559H8.31836V71.1407C8.31836 70.2871 9.00745 69.5957 9.85643 69.5957H30.5168C31.3663 69.5957 32.0548 70.2876 32.0548 71.1407Z" fill="#6EAB3F"/>
<path d="M34.4456 71.8633H6.4707V72.4563H34.4456V71.8633Z" fill="#0665EC"/>
<path d="M78.463 82.3711V83.9106C78.463 84.5123 77.9774 84.9999 77.3782 84.9999H58.6629C58.0637 84.9999 57.5781 84.5117 57.5781 83.9106V82.3711C57.5781 82.1029 57.6745 81.858 57.8344 81.6678C58.0336 81.4315 58.3307 81.2812 58.6629 81.2812H77.3782C77.7103 81.2812 78.0075 81.431 78.2067 81.6678C78.3666 81.8575 78.463 82.1029 78.463 82.3711Z" fill="#FAD332"/>
<path d="M59.159 81.2812H58.6152V84.9993H59.159V81.2812Z" fill="#FFD647"/>
<path d="M61.4383 81.2812H60.8945V84.9993H61.4383V81.2812Z" fill="#FFD647"/>
<path d="M63.7176 81.2812H63.1738V84.9993H63.7176V81.2812Z" fill="#FFD647"/>
<path d="M65.9978 81.2812H65.4541V84.9993H65.9978V81.2812Z" fill="#FFD647"/>
<path d="M68.2771 81.2812H67.7334V84.9993H68.2771V81.2812Z" fill="#FFD647"/>
<path d="M70.5574 81.2812H70.0137V84.9993H70.5574V81.2812Z" fill="#FFD647"/>
<path d="M72.8367 81.2812H72.293V84.9993H72.8367V81.2812Z" fill="#FFD647"/>
<path d="M75.117 81.2812H74.5732V84.9993H75.117V81.2812Z" fill="#FFD647"/>
<path d="M77.3963 81.2812H76.8525V84.9993H77.3963V81.2812Z" fill="#FFD647"/>
<path d="M78.2068 81.6678H57.834C58.0332 81.4315 58.3303 81.2812 58.6625 81.2812H77.3778C77.71 81.2812 78.0071 81.431 78.2063 81.6678H78.2068Z" fill="#FFD647"/>
<path d="M78.2068 84.6133H57.834C58.0332 84.8495 58.3303 84.9993 58.6625 84.9993H77.3778C77.71 84.9993 78.0071 84.8495 78.2063 84.6133H78.2068Z" fill="#FFD647"/>
<path d="M79.7725 78.6518V80.1913C79.7725 80.793 79.2869 81.2806 78.6878 81.2806H59.9725C59.3733 81.2806 58.8877 80.793 58.8877 80.1913V78.6518C58.8877 78.3836 58.9841 78.1382 59.144 77.9485C59.3431 77.7122 59.6403 77.5625 59.9725 77.5625H78.6878C79.0199 77.5625 79.3171 77.7122 79.5163 77.9485C79.6762 78.1382 79.7725 78.3836 79.7725 78.6518Z" fill="#FAD332"/>
<path d="M60.4685 77.5625H59.9248V81.2811H60.4685V77.5625Z" fill="#FFD647"/>
<path d="M62.7478 77.5625H62.2041V81.2811H62.7478V77.5625Z" fill="#FFD647"/>
<path d="M65.0281 77.5625H64.4844V81.2811H65.0281V77.5625Z" fill="#FFD647"/>
<path d="M67.3074 77.5625H66.7637V81.2811H67.3074V77.5625Z" fill="#FFD647"/>
<path d="M69.5867 77.5625H69.043V81.2811H69.5867V77.5625Z" fill="#FFD647"/>
<path d="M71.866 77.5625H71.3223V81.2811H71.866V77.5625Z" fill="#FFD647"/>
<path d="M74.1463 77.5625H73.6025V81.2811H74.1463V77.5625Z" fill="#FFD647"/>
<path d="M76.4256 77.5625H75.8818V81.2811H76.4256V77.5625Z" fill="#FFD647"/>
<path d="M78.7049 77.5625H78.1611V81.2811H78.7049V77.5625Z" fill="#FFD647"/>
<path d="M79.5164 77.9485H59.1436C59.3427 77.7122 59.6399 77.5625 59.9721 77.5625H78.6874C79.0195 77.5625 79.3167 77.7122 79.5159 77.9485H79.5164Z" fill="#FFD647"/>
<path d="M79.5164 80.8945H59.1436C59.3427 81.1308 59.6399 81.2805 59.9721 81.2805H78.6874C79.0195 81.2805 79.3167 81.1308 79.5159 80.8945H79.5164Z" fill="#FFD647"/>
<path d="M99.4702 77.181C97.6236 82.9236 91.4902 86.0751 85.7718 84.2209C80.0529 82.3668 76.9143 76.208 78.7608 70.466C80.6074 64.7235 86.7408 61.5719 92.4592 63.4261C98.1781 65.2803 101.317 71.439 99.4702 77.181Z" fill="#FFD647"/>
<path d="M97.6217 76.5817C96.1046 81.2982 91.0673 83.887 86.3696 82.3637C85.8792 82.2047 85.4119 82.0074 84.9699 81.775C84.2221 81.3831 83.547 80.8938 82.9549 80.3279C82.7309 80.1132 82.5183 79.8873 82.318 79.6521C80.8531 77.9261 80.0655 75.673 80.1883 73.3517C80.2281 72.5917 80.3665 71.8241 80.6103 71.0651C81.7414 67.5476 84.831 65.2128 88.277 64.8853C89.4512 64.7739 90.6684 64.895 91.8624 65.2826C92.8961 65.6177 93.8274 66.1243 94.6349 66.7611C94.8788 66.953 95.1114 67.1568 95.3326 67.3719C95.9318 67.9546 96.4433 68.6168 96.8556 69.3347C98.0756 71.4559 98.4303 74.0675 97.6217 76.5817Z" fill="#FAD332"/>
<path d="M94.6349 66.7611L82.318 79.6521C80.8531 77.9261 80.0655 75.673 80.1883 73.3517L88.2775 64.8853C89.4517 64.7739 90.6689 64.895 91.863 65.2826C92.8966 65.6177 93.828 66.1243 94.6355 66.7611H94.6349Z" fill="#FAEE6C" fill-opacity="0.84"/>
<path d="M96.8549 69.3339L84.9692 81.7742C84.2214 81.3822 83.5463 80.893 82.9541 80.327L95.3319 67.3711C95.9311 67.9538 96.4425 68.616 96.8549 69.3339Z" fill="#FAEE6C" fill-opacity="0.84"/>
<path d="M89.715 65.2923C88.6587 65.181 88.466 65.2859 87.9922 66.2259C88.1101 65.1788 88.0057 64.9848 87.0625 64.4961C88.1182 64.6074 88.3115 64.5031 88.7852 63.5625C88.6743 64.6231 88.7788 64.8166 89.715 65.2923Z" fill="white"/>
<path d="M85.9787 82.1495C85.0877 82.0555 84.9252 82.1436 84.5246 82.9372C84.6242 82.0533 84.5359 81.8901 83.7402 81.4771C84.6312 81.5711 84.7938 81.483 85.1943 80.6895C85.1007 81.5841 85.1884 81.7474 85.9787 82.1495Z" fill="white"/>
</svg>
