<svg width="100" height="100" viewBox="0 0 100 100" fill="none" xmlns="http://www.w3.org/2000/svg">
<g clip-path="url(#clip0_2828_30877)">
<path d="M56.047 7.62405C81.3927 14.4154 96.434 40.4676 89.6426 65.8133C82.8513 91.159 56.799 106.2 31.4533 99.4089L16.523 95.4083C9.05448 93.4072 4.62231 85.7304 6.62349 78.2619L20.8644 25.1141C24.5809 11.244 38.8377 3.01282 52.7078 6.72931L56.047 7.62405Z" fill="#DBE7FB"/>
<path d="M56.0318 38.6878L77.9544 21.0001L97.1731 41.6231L75.2505 59.3108L61.7256 44.7976C57.3282 48.3198 52.517 49.8159 50.9533 48.1378C49.3895 46.4598 51.6618 42.2394 56.0318 38.6878Z" fill="#3F964F"/>
<path d="M50.9855 48.114L64.5078 62.6244L89.1501 42.7423L75.6279 28.2319L50.9855 48.114Z" fill="#00D923"/>
<path d="M67.6427 38.482C64.1898 40.4699 63.1122 44.6778 65.2358 47.8807C67.3594 51.0836 71.88 52.0686 75.3329 50.0807C78.7858 48.0928 79.8635 43.8849 77.7399 40.682C75.6163 37.4791 71.0956 36.4941 67.6427 38.482Z" fill="#3F964F"/>
<path d="M38.8334 29.1077L47.7291 51.5335L23.3623 61.1992L14.4666 38.7734L31.6145 31.9713C29.853 27.48 30.0247 23.2184 32.0074 22.4319C33.99 21.6455 37.0373 24.6302 38.8334 29.1077Z" fill="#3F964F"/>
<path d="M32.0186 22.4644L14.874 29.2651L24.8734 54.4731L42.0179 47.6723L32.0186 22.4644Z" fill="#00D923"/>
<path d="M35.3877 38.4507C34.6971 35.1392 31.2876 33.1134 27.7724 33.9258C24.2572 34.7382 21.9675 38.0812 22.6582 41.3926C23.3488 44.704 26.7583 46.7299 30.2735 45.9175C33.7887 45.1051 36.0784 41.7621 35.3877 38.4507Z" fill="#3F964F"/>
<path d="M32.0072 22.4316C30.0246 23.2181 29.8524 27.4799 31.6143 31.9709L7.24657 41.637L7.24622 41.6361C5.48521 37.1447 5.65758 32.8833 7.64021 32.0968L32.007 22.4312L32.0072 22.4316Z" fill="#3F964F"/>
<path d="M27.6101 24.1755C26.7334 24.5233 26.2567 25.5719 26.2574 26.8716C24.9255 27.4358 24.2295 28.8291 24.7 30.0153L24.7023 30.0212L12.3824 34.9082L12.3801 34.9023C11.9479 33.8128 10.6799 33.271 9.42555 33.5785C9.41722 32.2652 9.89475 31.2032 10.7782 30.8528L27.6098 24.1761L27.6101 24.1755Z" fill="#00D923"/>
<rect x="36" y="7" width="31" height="52" fill="#3F964F"/>
<path d="M60 15C60 16.6569 61.3431 18 63 18V51H40V18C41.6569 18 43 16.6569 43 15H60Z" fill="#00D923"/>
<circle cx="52.0303" cy="33" r="7" fill="#3F964F"/>
<rect y="55" width="100" height="43" rx="5" fill="#0665EC"/>
<rect x="5.25" y="60.25" width="89.5" height="32.5" rx="4.75" stroke="#98A2B3" stroke-width="0.5" stroke-dasharray="2 2"/>
<path d="M10 69C10 66.2386 12.2386 64 15 64H35C37.7614 64 40 66.2386 40 69H10Z" fill="#FFD647"/>
<path d="M10 78C10 75.2386 12.2386 73 15 73H35C37.7614 73 40 75.2386 40 78H10Z" fill="#00D923"/>
<path d="M10 87C10 84.2386 12.2386 82 15 82H35C37.7614 82 40 84.2386 40 87H10Z" fill="#FF7600"/>
<rect x="54" y="65" width="37" height="24" rx="3" fill="#3F8BEE"/>
<rect x="57" y="68" width="9" height="9" fill="#66BFFF"/>
<rect x="69" y="68" width="18" height="3" fill="#66BFFF"/>
<rect x="69" y="73" width="7" height="3" fill="#66BFFF"/>
<rect x="57" y="83" width="31" height="3" fill="#66BFFF"/>
<rect x="58" y="95" width="22" height="5" rx="1" fill="#FFCD20"/>
<rect x="61" y="95" width="1" height="5" fill="#FFD647"/>
<rect x="59" y="95" width="1" height="5" fill="#FFD647"/>
<rect x="63" y="95" width="1" height="5" fill="#FFD647"/>
<rect x="65" y="95" width="1" height="5" fill="#FFD647"/>
<rect x="67" y="95" width="1" height="5" fill="#FFD647"/>
<rect x="69" y="95" width="1" height="5" fill="#FFD647"/>
<rect x="71" y="95" width="1" height="5" fill="#FFD647"/>
<rect x="73" y="95" width="1" height="5" fill="#FFD647"/>
<rect x="75" y="95" width="1" height="5" fill="#FFD647"/>
<rect x="77" y="95" width="1" height="5" fill="#FFD647"/>
<rect x="61" y="90" width="22" height="5" rx="1" fill="#FFCD20"/>
<rect x="64" y="90" width="1" height="5" fill="#FFD647"/>
<rect x="62" y="90" width="1" height="5" fill="#FFD647"/>
<rect x="66" y="90" width="1" height="5" fill="#FFD647"/>
<rect x="68" y="90" width="1" height="5" fill="#FFD647"/>
<rect x="70" y="90" width="1" height="5" fill="#FFD647"/>
<rect x="72" y="90" width="1" height="5" fill="#FFD647"/>
<rect x="74" y="90" width="1" height="5" fill="#FFD647"/>
<rect x="76" y="90" width="1" height="5" fill="#FFD647"/>
<rect x="78" y="90" width="1" height="5" fill="#FFD647"/>
<rect x="80" y="90" width="1" height="5" fill="#FFD647"/>
<g filter="url(#filter0_di_2828_30877)">
<circle cx="41" cy="44" r="11" fill="#FFD647"/>
<circle cx="41" cy="44" r="10.5" stroke="#FFCD20"/>
</g>
</g>
<defs>
<filter id="filter0_di_2828_30877" x="28" y="33" width="24" height="24" filterUnits="userSpaceOnUse" color-interpolation-filters="sRGB">
<feFlood flood-opacity="0" result="BackgroundImageFix"/>
<feColorMatrix in="SourceAlpha" type="matrix" values="0 0 0 0 0 0 0 0 0 0 0 0 0 0 0 0 0 0 127 0" result="hardAlpha"/>
<feOffset dx="-1" dy="1"/>
<feGaussianBlur stdDeviation="0.5"/>
<feComposite in2="hardAlpha" operator="out"/>
<feColorMatrix type="matrix" values="0 0 0 0 0 0 0 0 0 0 0 0 0 0 0 0 0 0 0.25 0"/>
<feBlend mode="normal" in2="BackgroundImageFix" result="effect1_dropShadow_2828_30877"/>
<feBlend mode="normal" in="SourceGraphic" in2="effect1_dropShadow_2828_30877" result="shape"/>
<feColorMatrix in="SourceAlpha" type="matrix" values="0 0 0 0 0 0 0 0 0 0 0 0 0 0 0 0 0 0 127 0" result="hardAlpha"/>
<feOffset dy="0.15"/>
<feGaussianBlur stdDeviation="0.5"/>
<feComposite in2="hardAlpha" operator="arithmetic" k2="-1" k3="1"/>
<feColorMatrix type="matrix" values="0 0 0 0 0 0 0 0 0 0 0 0 0 0 0 0 0 0 0.37 0"/>
<feBlend mode="normal" in2="shape" result="effect2_innerShadow_2828_30877"/>
</filter>
<clipPath id="clip0_2828_30877">
<rect width="100" height="100" fill="white"/>
</clipPath>
</defs>
</svg>
