<svg width="20" height="20" viewBox="0 0 20 20" fill="none" xmlns="http://www.w3.org/2000/svg">
<g clip-path="url(#clip0_1322_1625)">
<path d="M3.53027 5.07812C3.54658 5.07661 3.56345 5.07818 3.5791 5.08301C3.5947 5.08789 3.6095 5.09598 3.62207 5.10645C3.63463 5.11697 3.64475 5.13001 3.65234 5.14453C3.65997 5.15914 3.66458 5.17499 3.66602 5.19141L3.66699 5.19629L4.84375 17.3594C4.86066 17.5347 4.94182 17.698 5.07227 17.8164C5.17021 17.9053 5.29056 17.9644 5.41895 17.9883L5.54883 18H14.4521C14.628 18 14.7975 17.9345 14.9277 17.8164C15.0582 17.698 15.1403 17.5347 15.1572 17.3594L16.334 5.19629C16.3372 5.1632 16.3533 5.13247 16.3789 5.11133C16.4046 5.09024 16.4377 5.0808 16.4707 5.08398C16.5038 5.08719 16.5345 5.10326 16.5557 5.12891C16.5765 5.15437 16.586 5.18696 16.583 5.21973L15.4062 17.3838C15.3833 17.6206 15.2728 17.841 15.0967 18.001C14.9203 18.161 14.6903 18.25 14.4521 18.25H5.54883C5.31078 18.25 5.08063 18.1619 4.9043 18.002C4.74998 17.862 4.64647 17.6757 4.60742 17.4727L4.59473 17.3848L3.41797 5.21973V5.21582L3.42188 5.16699C3.42659 5.15116 3.43487 5.13585 3.44531 5.12305C3.45566 5.11044 3.46806 5.09952 3.48242 5.0918C3.49699 5.084 3.51383 5.07971 3.53027 5.07812ZM7.70117 6.75C7.71757 6.74903 7.73448 6.75145 7.75 6.75684C7.7654 6.76222 7.7798 6.77041 7.79199 6.78125C7.80425 6.79215 7.81414 6.80555 7.82129 6.82031C7.8284 6.83499 7.833 6.85091 7.83398 6.86719V6.86816L8.25 13.9512C8.25191 13.9844 8.24086 14.0171 8.21875 14.042C8.19661 14.0669 8.16509 14.082 8.13184 14.084C8.09871 14.0858 8.06584 14.0748 8.04102 14.0527C8.01612 14.0306 8.00099 13.9991 7.99902 13.9658L7.58301 6.88281V6.88184C7.58209 6.86564 7.58359 6.84932 7.58887 6.83398C7.59425 6.81847 7.60335 6.80427 7.61426 6.79199C7.62517 6.77972 7.63854 6.76986 7.65332 6.7627C7.66777 6.75572 7.68321 6.75105 7.69922 6.75H7.70117ZM12.2988 6.75C12.3321 6.75196 12.3636 6.7671 12.3857 6.79199C12.4075 6.8167 12.4188 6.84896 12.417 6.88184L11.999 13.9658C11.9971 13.9988 11.9826 14.0297 11.958 14.0518C11.9332 14.0738 11.9003 14.0849 11.8672 14.083C11.834 14.0811 11.8023 14.0668 11.7803 14.042C11.7583 14.0172 11.7471 13.9843 11.749 13.9512L12.166 6.86816C12.168 6.8349 12.1831 6.80339 12.208 6.78125C12.2329 6.75911 12.2656 6.74805 12.2988 6.75ZM8.125 0.5H11.875C12.4037 0.5 12.8338 0.929299 12.834 1.45801V3H17.709C17.7419 3.00009 17.7735 3.01297 17.7969 3.03613C17.8203 3.05957 17.834 3.09185 17.834 3.125C17.834 3.15815 17.8203 3.19043 17.7969 3.21387C17.7735 3.23703 17.7419 3.24991 17.709 3.25H2.29199C2.25884 3.25 2.22657 3.23731 2.20312 3.21387C2.17968 3.19043 2.16699 3.15815 2.16699 3.125C2.16699 3.09185 2.17968 3.05957 2.20312 3.03613C2.22657 3.01269 2.25884 3 2.29199 3H7.16699V1.45801C7.16717 0.929408 7.5964 0.500176 8.125 0.5ZM8.125 0.75C7.93726 0.750086 7.75678 0.824271 7.62402 0.957031C7.49126 1.08979 7.41708 1.27027 7.41699 1.45801V3H12.584V1.45801C12.5839 1.27027 12.5087 1.08979 12.376 0.957031C12.2432 0.824397 12.0627 0.75 11.875 0.75H8.125Z" fill="#D92D20" stroke="#D92D20"/>
</g>
<defs>
<clipPath id="clip0_1322_1625">
<rect width="20" height="20" fill="white"/>
</clipPath>
</defs>
</svg>
