<svg width="30" height="30" viewBox="0 0 30 30" fill="none" xmlns="http://www.w3.org/2000/svg">
<rect x="5.5" y="1.5" width="19" height="5" rx="0.5" stroke="#98A2B3"/>
<mask id="path-2-inside-1_1130_11731" fill="white">
<path d="M28.5 27C29.3283 27 30 27.6717 30 28.5C30 29.3283 29.3283 30 28.5 30H5.5C4.67166 30 4 29.3283 4 28.5C4.00005 27.6717 4.67169 27 5.5 27H15C15 27.5523 15.4477 28 16 28H18C18.5523 28 19 27.5523 19 27H28.5Z"/>
</mask>
<path d="M30 28.5H31V28.4999L30 28.5ZM4 28.5L3 28.4999V28.5H4ZM15 27H16V26H15V27ZM19 27V26H18V27H19ZM28.5 27V28C28.776 28 29 28.2239 29 28.5001L30 28.5L31 28.4999C30.9999 27.1195 29.8807 26 28.5 26V27ZM30 28.5H29C29 28.7761 28.7761 29 28.5 29V30V31C29.8806 31 31 29.8806 31 28.5H30ZM28.5 30V29H5.5V30V31H28.5V30ZM5.5 30V29C5.22394 29 5 28.7761 5 28.5H4H3C3 29.8806 4.11937 31 5.5 31V30ZM4 28.5L5 28.5001C5.00002 28.2239 5.22403 28 5.5 28V27V26C4.11934 26 3.00008 27.1195 3 28.4999L4 28.5ZM5.5 27V28H15V27V26H5.5V27ZM15 27H14C14 28.1046 14.8954 29 16 29V28V27H15ZM16 28V29H18V28V27H16V28ZM18 28V29C19.1046 29 20 28.1046 20 27H19H18V28ZM19 27V28H28.5V27V26H19V27Z" fill="#98A2B3" mask="url(#path-2-inside-1_1130_11731)"/>
<mask id="path-4-inside-2_1130_11731" fill="white">
<path d="M26 11C27.6569 11 29 12.3431 29 14V23.6953C29 25.3522 27.6569 26.6953 26 26.6953H8C6.34315 26.6953 5 25.3522 5 23.6953V14C5 12.3431 6.34315 11 8 11H26Z"/>
</mask>
<path d="M29 14H30H29ZM5 14L4 14V14H5ZM26 11V12C27.1046 12 28 12.8954 28 14H29H30C30 11.7909 28.2091 10 26 10V11ZM29 14H28V23.6953H29H30V14H29ZM29 23.6953H28C28 24.7999 27.1046 25.6953 26 25.6953V26.6953V27.6953C28.2091 27.6953 30 25.9045 30 23.6953H29ZM26 26.6953V25.6953H8V26.6953V27.6953H26V26.6953ZM8 26.6953V25.6953C6.89543 25.6953 6 24.7999 6 23.6953H5H4C4 25.9045 5.79086 27.6953 8 27.6953V26.6953ZM5 23.6953H6V14H5H4V23.6953H5ZM5 14L6 14C6 12.8954 6.89543 12 8 12V11V10C5.79086 10 4 11.7909 4 14L5 14ZM8 11V12H26V11V10H8V11Z" fill="#98A2B3" mask="url(#path-4-inside-2_1130_11731)"/>
<path d="M19.1025 9.00488C19.6067 9.05621 20 9.48232 20 10V11.4248H19V10H1V14H5.4248V15H1C0.482323 15 0.0562145 14.6067 0.00488281 14.1025L0 14V10C6.4426e-08 9.44772 0.447715 9 1 9H19L19.1025 9.00488Z" fill="#98A2B3"/>
</svg>
