<svg width="30" height="30" viewBox="0 0 30 30" fill="none" xmlns="http://www.w3.org/2000/svg">
<rect x="5" width="20" height="6.2069" rx="1" fill="#14E5E2"/>
<path d="M28.7607 27.5215C29.4451 27.5215 29.9999 28.0764 30 28.7607C30 29.4451 29.4451 30 28.7607 30H5.23926C4.5549 30 4 29.4451 4 28.7607C4.00006 28.0764 4.55494 27.5215 5.23926 27.5215H14.667C14.667 27.9777 15.0369 28.3477 15.4932 28.3477H18.5068C18.9631 28.3477 19.333 27.9777 19.333 27.5215H28.7607Z" fill="#9966FF"/>
<path d="M26 11C27.6569 11 29 12.3431 29 14V23.6953C29 25.3522 27.6569 26.6953 26 26.6953H8C6.34315 26.6953 5 25.3522 5 23.6953V14C5 12.3431 6.34315 11 8 11H26ZM17.1875 11.8359C17.079 11.8359 16.9905 11.9238 16.9902 12.0322C16.9902 12.1409 17.0788 12.2295 17.1875 12.2295C17.2962 12.2295 17.3848 12.1409 17.3848 12.0322C17.3845 11.9238 17.296 11.8359 17.1875 11.8359Z" fill="#9966FF"/>
<rect y="8.27588" width="20" height="6.2069" rx="1" fill="url(#paint0_linear_1130_11715)"/>
<defs>
<linearGradient id="paint0_linear_1130_11715" x1="3" y1="11.3793" x2="20.0454" y2="14.7717" gradientUnits="userSpaceOnUse">
<stop stop-color="#14E5E2"/>
<stop offset="1" stop-color="#14E5E2" stop-opacity="0.6"/>
</linearGradient>
</defs>
</svg>
