<svg width="100" height="75" viewBox="0 0 100 75" fill="none" xmlns="http://www.w3.org/2000/svg">
<path fill-rule="evenodd" clip-rule="evenodd" d="M71.6168 23.0879C80.362 33.6199 90.1242 43.4858 89.1812 52.3796C88.2568 61.2553 76.5903 69.1588 65.423 72.1474C54.2372 75.118 43.5507 73.1736 32.6977 69.0328C21.8632 64.91 10.8623 58.5908 8.03352 49.589C5.22321 40.6053 10.585 28.921 18.5167 18.569C26.4484 8.23505 36.9501 -0.784695 46.0467 0.313516C55.1617 1.39372 62.8715 12.5739 71.6168 23.0879Z" fill="#DBE7FB"/>
<path d="M62.4902 11.332L62.829 15.4379L67.1514 14.655L62.4902 11.332Z" fill="#DDDDDD"/>
<path d="M71.7097 54.8977L38.1086 58.7134L33.125 14.666L62.4911 11.332L67.1523 14.655L71.7097 54.8977Z" fill="white"/>
<path d="M41.3926 22.9584L59.7969 20.8672" stroke="#606060" stroke-linecap="round" stroke-linejoin="round"/>
<path d="M41.7969 26.5326L60.2012 24.4414" stroke="#606060" stroke-linecap="round" stroke-linejoin="round"/>
<path d="M42.2012 30.103L60.6055 28.0117" stroke="#606060" stroke-linecap="round" stroke-linejoin="round"/>
<path d="M42.6055 33.6733L61.0098 31.582" stroke="#606060" stroke-linecap="round" stroke-linejoin="round"/>
<path d="M43.0098 37.2397L61.4141 35.1484" stroke="#606060" stroke-linecap="round" stroke-linejoin="round"/>
<path d="M43.4141 40.8123L61.8184 38.7266" stroke="#606060" stroke-linecap="round" stroke-linejoin="round"/>
<path d="M43.8184 44.3842L62.2227 42.293" stroke="#606060" stroke-linecap="round" stroke-linejoin="round"/>
<path d="M44.2227 47.9545L62.627 45.8633" stroke="#606060" stroke-linecap="round" stroke-linejoin="round"/>
<path d="M68.1705 4.18526L54.0742 2.40625L52.2984 16.5282L66.3947 18.3072L68.1705 4.18526Z" fill="#4FC8FD"/>
<path d="M56.6114 52.5242L26.9993 68.8764L5.63867 30.0571L31.5239 15.7578L37.0922 17.0553L56.6114 52.5242Z" fill="white"/>
<path d="M31.5234 15.7578L33.3978 19.4257L37.0917 17.0553L31.5234 15.7578Z" fill="#DDDDDD"/>
<path d="M16.4414 34.5695L32.6545 25.6133" stroke="#606060" stroke-linecap="round" stroke-linejoin="round"/>
<path d="M18.1738 37.7179L34.3869 28.7617" stroke="#606060" stroke-linecap="round" stroke-linejoin="round"/>
<path d="M19.9004 40.864L36.119 31.9023" stroke="#606060" stroke-linecap="round" stroke-linejoin="round"/>
<path d="M21.6328 44.007L37.8514 35.0508" stroke="#606060" stroke-linecap="round" stroke-linejoin="round"/>
<path d="M23.3652 47.1554L39.5838 38.1992" stroke="#606060" stroke-linecap="round" stroke-linejoin="round"/>
<path d="M25.0977 50.3039L41.3162 41.3477" stroke="#606060" stroke-linecap="round" stroke-linejoin="round"/>
<path d="M26.8301 53.4523L43.0487 44.4961" stroke="#606060" stroke-linecap="round" stroke-linejoin="round"/>
<path d="M28.5625 56.5968L44.7811 47.6406" stroke="#606060" stroke-linecap="round" stroke-linejoin="round"/>
<path d="M22.5349 25.5459L9.26562 30.6328L14.3433 43.9263L27.6126 38.8394L22.5349 25.5459Z" fill="#FFDB01"/>
<path d="M20.9718 31.0797C20.409 31.1727 17.5674 33.6855 17.3871 32.6727C17.3707 32.5797 17.3161 32.4866 17.2232 32.4538C16.7478 32.2895 16.2341 32.4866 15.7423 32.5413C14.9336 32.6399 14.1357 32.7767 13.327 32.8698C12.9773 32.9081 13.0428 33.4556 13.398 33.4118C13.9445 33.3461 14.48 33.2475 15.0265 33.1709C15.3598 33.1216 16.4581 32.8205 16.7368 32.9574C16.9937 33.0833 17.0428 33.4008 17.3816 33.5103C17.7696 33.6362 18.4035 33.3242 18.7314 33.1819C19.1467 33.0012 19.5237 32.7822 19.8789 32.4975C20.2068 32.2402 20.6112 31.6873 21.0483 31.6162C21.3926 31.5614 21.327 31.0194 20.9773 31.0742L20.9718 31.0797Z" fill="black"/>
<path d="M22.5833 33.91C22.1133 34.244 21.4139 34.567 20.8565 34.7641C20.0478 35.0487 19.3975 34.8352 18.5888 34.7203C17.1024 34.5013 16.0259 36.3407 14.6434 36.4173C14.2937 36.4392 14.3592 36.9812 14.7144 36.9593C15.321 36.9265 15.8183 36.5487 16.321 36.2476C16.8511 35.9356 17.6653 35.2568 18.3265 35.2622C19.0368 35.2622 18.9221 35.7549 19.474 35.8535C19.9986 35.9465 20.3483 35.8097 20.7691 35.5195C21.4521 35.0487 22.2281 34.8352 22.9057 34.3535C23.1953 34.1509 22.8674 33.713 22.5778 33.9155L22.5833 33.91Z" fill="black"/>
<path d="M24.3762 36.5482C23.8735 36.8274 23.3543 36.9095 22.8352 37.238C22.256 37.6048 22.092 37.7526 21.3052 37.5719C20.9882 37.4953 20.9609 37.353 20.6002 37.3201C19.9991 37.2708 19.2287 37.676 18.6986 37.884C18.5237 37.9551 16.6276 39.0117 16.5729 38.9789C16.2669 38.8037 16.0538 39.3073 16.3598 39.4825C16.6822 39.6632 16.9937 39.3621 17.2669 39.2033C17.797 38.8913 18.3325 38.6176 18.9062 38.3931C19.8516 38.0208 20.0702 37.9935 21.2341 38.1851C21.7314 38.2672 22.2232 38.2891 22.6931 38.0482C22.9827 37.9004 23.1849 37.6322 23.4691 37.4789C23.8297 37.2818 24.2177 37.2654 24.5784 37.0628C24.8844 36.8931 24.6822 36.384 24.3762 36.5537V36.5482Z" fill="black"/>
<path d="M61.7869 11.4435C61.5356 11.3394 61.2296 11.2354 60.9126 11.1205C61.1203 9.95987 61.388 8.79929 61.4591 7.63323C62.1148 7.80294 62.6449 8.15331 62.2788 8.59674C62.0547 8.87046 62.4809 9.20987 62.705 8.93615C63.3334 8.1752 62.2678 7.11316 61.5684 6.91608C61.5356 6.90513 61.5028 6.90513 61.47 6.89966C61.47 6.65878 61.4536 6.4179 61.4263 6.17703C61.3826 5.82666 60.8416 5.89236 60.8853 6.2482C60.9072 6.45075 60.9236 6.6533 60.929 6.85039C60.8635 6.85039 60.7979 6.85039 60.7323 6.85039C60.7432 6.70257 60.7487 6.56024 60.7596 6.40695C60.787 6.05659 60.246 5.97995 60.2186 6.33579C60.2022 6.54382 60.1913 6.74637 60.1804 6.9544C59.2733 7.2117 58.4372 7.87411 58.3061 8.74455C58.1094 10.0858 58.7432 10.7099 59.6394 11.1588C59.5738 11.4489 59.5083 11.7336 59.4536 12.0237C59.3771 12.4179 59.3716 12.8832 59.3279 13.3212C58.9673 13.0803 58.6503 12.7847 58.4427 12.407C58.2405 12.0347 58.1203 11.6624 57.8908 11.3011C57.6995 11.0055 57.2624 11.334 57.4536 11.6296C57.8252 12.2153 57.929 12.834 58.4427 13.3321C58.6667 13.5511 58.9454 13.7372 59.235 13.907C59.2186 13.9672 59.2023 14.0329 59.1804 14.0876C59.0656 14.4161 59.5684 14.6351 59.6831 14.3011C59.6995 14.2573 59.705 14.208 59.7159 14.1643C59.8635 14.2354 60.011 14.2956 60.1585 14.3559C60.164 14.4106 60.164 14.4599 60.1749 14.5146C60.2186 14.8267 60.6449 14.8048 60.7104 14.5529C60.7323 14.5584 60.7596 14.5694 60.7815 14.5803C61.5738 14.8157 63.0438 15.0511 63.4482 14.0438C63.9891 12.6916 62.8197 11.8759 61.7815 11.4325L61.7869 11.4435ZM58.8361 8.97447C58.9618 8.29017 59.4536 7.85768 60.0602 7.58944C60.082 7.57849 60.1148 7.57301 60.1421 7.56206C60.093 8.45987 60.0329 9.34674 59.8416 10.2391C59.8143 10.3705 59.7869 10.4964 59.7542 10.6278C59.1312 10.2774 58.6777 9.77922 58.8307 8.97447H58.8361ZM60.2897 10.7591C60.5301 9.66973 60.6175 8.60221 60.6886 7.51279C60.7651 7.51279 60.8416 7.52374 60.9236 7.52922C60.8744 8.6679 60.623 9.80112 60.4154 10.9289C60.3662 10.907 60.317 10.8905 60.2678 10.8686C60.2788 10.8303 60.2842 10.792 60.2951 10.7537L60.2897 10.7591ZM59.8088 13.6004C59.8252 13.3595 59.8252 13.1186 59.858 12.8778C59.9236 12.3741 60.0329 11.8814 60.1476 11.3832C60.2022 11.4051 60.2624 11.427 60.3225 11.4489C60.1913 12.2099 60.1039 12.9763 60.1257 13.7372C60.0219 13.6935 59.9126 13.6497 59.8088 13.5949V13.6004ZM62.6503 13.8577C62.1094 14.4489 61.3716 14.2409 60.6777 13.9726C60.6285 13.1953 60.705 12.4234 60.8252 11.646C60.9946 11.7117 61.164 11.7719 61.3334 11.8431C62.1585 12.1716 63.4372 12.9927 62.6503 13.8577Z" fill="black"/>
<path d="M66.3826 68.3917L39.623 47.6873L66.6668 12.6016L90.0602 30.7056L91.093 36.3388L66.3826 68.3917Z" fill="white"/>
<path d="M53.8203 39.6445L68.4761 50.9876" stroke="#606060" stroke-linecap="round" stroke-linejoin="round"/>
<path d="M51.6934 42.4492L66.3491 53.7868" stroke="#606060" stroke-linecap="round" stroke-linejoin="round"/>
<path d="M49.5684 45.2461L64.2241 56.5837" stroke="#606060" stroke-linecap="round" stroke-linejoin="round"/>
<path d="M90.0593 30.707L87.4473 33.8877L91.0921 36.3402L90.0593 30.707Z" fill="#DDDDDD"/>
<path d="M74.3831 32.2872C74.7602 33.2343 74.8421 34.2307 74.6673 35.1613L78.0334 36.2672C78.4432 34.5646 78.3503 32.7197 77.6509 30.9734C77.3285 30.1686 76.8968 29.435 76.3831 28.7891L73.793 31.2142C74.0225 31.5427 74.2247 31.8986 74.3777 32.2872H74.3831Z" fill="#FFDB01"/>
<path d="M71.497 39.0464C69.9232 39.6815 68.2183 39.4844 66.874 38.6632L64.6445 41.4223C66.9669 43.0099 70.0052 43.4479 72.8085 42.3201C75.0598 41.4169 76.732 39.6705 77.6008 37.5902L74.2347 36.4844C73.6937 37.6066 72.7429 38.5428 71.497 39.0409V39.0464Z" fill="#F5764D"/>
<path d="M64.7487 36.1572C63.6831 33.4911 64.9727 30.4638 67.6339 29.3962C69.4481 28.6681 71.4318 29.0404 72.8471 30.19L75.4372 27.7649C73.0438 25.586 69.5301 24.8306 66.3279 26.117C61.8635 27.9127 59.6941 32.993 61.4864 37.4711C61.9673 38.6754 62.6886 39.7101 63.5684 40.5477L65.7979 37.7886C65.3662 37.3287 65.0055 36.7813 64.7596 36.1572H64.7487Z" fill="#4FC8FD"/>
<path d="M94.5177 45.0375L81.4492 39.4531L75.875 52.5455L88.9435 58.1298L94.5177 45.0375Z" fill="#FFDB01"/>
<path d="M90.4041 47.8681C90.4041 47.8681 90.3877 47.8352 90.3659 47.8188C89.9669 47.5615 89.5243 47.4849 89.0708 47.3535C88.7374 47.2549 88.5189 47.7586 88.8577 47.8571C89.0052 47.9009 89.1582 47.9338 89.3112 47.9721C88.9669 48.0487 88.6227 48.1363 88.2784 48.213C87.8467 48.3115 86.3822 48.7166 85.9669 48.4976C86.2893 48.6728 86.4861 47.6381 86.1036 47.3644C85.497 46.9374 83.9287 47.6819 83.3112 47.879C82.2948 48.202 80.8904 48.2568 79.9888 48.848C79.6937 49.0396 80.0216 49.4776 80.3167 49.286C80.8522 48.9356 81.7429 48.8808 82.3549 48.7276C83.038 48.5524 83.6992 48.306 84.3822 48.1199C84.5954 48.0597 85.3003 47.7914 85.5298 47.8626C85.6118 47.89 85.6609 47.879 85.6937 47.8626C85.6773 47.9173 85.6609 48.0104 85.6555 48.1692C85.6445 48.4757 85.4533 48.6071 85.5954 48.8754C85.6555 48.9903 85.7484 49.0506 85.885 49.0451C87.2402 48.9849 88.4806 48.6509 89.7921 48.421C89.6664 48.6454 89.5571 48.8863 89.4205 49.0725C89.2129 49.3571 89.6445 49.702 89.8467 49.4119C89.9779 49.2312 90.0708 49.0396 90.1855 48.848C90.2839 48.6728 90.3986 48.4374 90.5735 48.3334C90.8194 48.1856 90.6445 47.8735 90.4096 47.8571L90.4041 47.8681Z" fill="black"/>
</svg>
