<svg width="100" height="100" viewBox="0 0 100 100" fill="none" xmlns="http://www.w3.org/2000/svg">
    <g clip-path="url(#clip0_2627_17029)">
        <path
            d="M56.5558 2.26389C82.1622 9.18367 97.3581 35.7285 90.4969 61.5535L90.0288 63.3154C83.1676 89.1404 56.8474 104.466 31.2411 97.5464L14.6029 93.0501C7.13438 91.0319 2.70223 83.2896 4.70341 75.7573L19.6654 19.4418C23.3819 5.45323 37.6387 -2.84822 51.5088 0.899996L56.5558 2.26389Z"
            fill="#DBE7FB" />
        <path
            d="M7.46925 31.8046C7.2158 28.3283 9.96782 25.3683 13.4534 25.3683H86.3564C89.911 25.3683 92.6863 28.4413 92.3254 31.9775L86.5502 88.558C86.2377 91.6199 83.659 93.9488 80.5812 93.9488H17.5785C14.434 93.9488 11.823 91.5212 11.5944 88.3851L7.46925 31.8046Z"
            fill="#02005D" />
        <path
            d="M10.4634 33.8166C10.2131 30.3421 12.9644 27.3854 16.4479 27.3854H83.3643C86.9161 27.3854 89.6905 30.4537 89.3339 33.9876L84.0329 86.534C83.7237 89.5989 81.1437 91.9317 78.0632 91.9317H20.2344C17.088 91.9317 14.476 89.5012 14.2499 86.363L10.4634 33.8166Z"
            fill="#7CB2FF" />
        <path
            d="M84.033 86.534L89.4206 33.1292C89.7048 30.3122 87.1347 28.0511 84.3769 28.6918C83.7916 28.8277 83.2431 29.0898 82.7696 29.4595L16.5075 81.2027C12.0094 84.7153 14.4933 91.9317 20.2004 91.9317H78.0633C81.1438 91.9317 83.7238 89.5989 84.033 86.534Z"
            fill="#60A0FB" />
        <rect y="94.9573" width="100" height="5.04268" rx="2" fill="#02005D" />
        <path d="M26.6292 71.761L32.2583 89.1582H21L26.6292 71.761Z" fill="#FFC600" />
        <path d="M42.6292 55.6244L48.2583 88.9061H37L42.6292 55.6244Z" fill="#01B1AF" />
        <path d="M58.6292 46.5476L64.2583 88.9061H53L58.6292 46.5476Z" fill="#00AB1C" />
        <path d="M74.6292 36.4622L80.2583 89.4103H69L74.6292 36.4622Z" fill="#BA5600" />
        <path d="M27.1292 88.9061V71.761L32.1292 88.9061H27.1292Z" fill="#FFD647" />
        <path d="M42.6292 88.9061V55.6244L48.1292 88.9061H42.6292Z" fill="#14E5E2" />
        <path d="M59.1292 88.9061V46.5476L64.1292 88.9061H59.1292Z" fill="#00D923" />
        <path d="M75.1292 88.9061V36.4622L80.1292 88.9061H75.1292Z" fill="#FF7600" />
        <path
            d="M18.4094 69.9606C18.4094 69.4869 18.7056 67.9161 20.4864 65.0102C21.1377 63.9472 22.6552 61.817 25.1584 58.008C27.9035 53.8309 31.0634 49.8753 33.2455 46.7953C35.5781 43.503 45.5961 44.994 49.1169 44.8014C50.9159 44.703 52.476 44.3281 53.1426 44.0634C55.1559 43.2638 56.6013 39.9409 61.6108 35.8709C64.6644 33.0405 65.9977 31.8385 67.4382 31.0443C67.8114 30.8562 68.1912 30.6678 68.5233 30.4021"
            stroke="#004343" stroke-linecap="round" />
    </g>
    <defs>
        <clipPath id="clip0_2627_17029">
            <rect width="100" height="100" fill="white" />
        </clipPath>
    </defs>
</svg>