<svg width="270" height="270" viewBox="0 0 270 270" fill="none" xmlns="http://www.w3.org/2000/svg">
<path d="M108.568 74.3619C120.12 69.5769 132.833 68.3277 145.097 70.7669C157.359 73.2061 168.623 79.2258 177.464 88.066L195.626 69.899C202.189 76.4613 207.73 84.047 211.992 92.3946L189.097 104.066C193.627 112.956 195.985 122.792 195.985 132.768C195.985 142.745 193.627 152.581 189.097 161.47L211.992 173.136C207.729 181.485 202.185 189.067 195.619 195.631L177.464 177.477C168.623 186.317 157.359 192.337 145.097 194.776C132.833 197.216 120.12 195.966 108.568 191.181C97.0169 186.396 87.1415 178.291 80.1946 167.894C73.2484 157.498 69.5448 145.272 69.5448 132.768C69.5454 120.266 73.249 108.044 80.1946 97.6484C87.1415 87.2521 97.0169 79.1468 108.568 74.3619Z" fill="#0665EC" fill-opacity="0.5"/>
<path d="M207.267 207.276C192.531 222.012 173.757 232.047 153.318 236.113C132.879 240.178 111.693 238.092 92.4401 230.117C73.1871 222.142 56.7313 208.637 45.1535 191.309C33.5758 173.983 27.3962 153.611 27.3962 132.772C27.3962 111.932 33.5758 91.561 45.1535 74.2335C56.7312 56.9062 73.1871 43.4012 92.4401 35.4263C111.693 27.4514 132.879 25.3648 153.318 29.4304C173.757 33.4959 192.531 43.5311 207.267 58.2667L177.465 88.0687C168.624 79.2272 157.359 73.2062 145.095 70.767C132.832 68.3278 120.121 69.5797 108.569 74.3646C97.0169 79.1495 87.1435 87.2522 80.1966 97.6485C73.2503 108.045 69.5428 120.268 69.5428 132.772C69.5428 145.275 73.2503 157.498 80.1966 167.895C87.1435 178.291 97.0169 186.394 108.569 191.179C120.121 195.964 132.832 197.216 145.095 194.777C157.359 192.337 168.624 186.316 177.465 177.474L207.267 207.276Z" fill="#0665EC"/>
<path d="M226.651 84.9321C234.199 99.7479 238.135 116.14 238.135 132.768C238.135 149.395 234.199 165.787 226.651 180.602L189.097 161.469C193.627 152.579 195.988 142.744 195.988 132.768C195.988 122.791 193.627 112.955 189.097 104.067L226.651 84.9321Z" fill="#0665EC"/>
</svg>
