<svg width="100" height="100" viewBox="0 0 100 100" fill="none" xmlns="http://www.w3.org/2000/svg">
<g clip-path="url(#clip0_2429_17178)">
<path d="M99.5579 52.0309C99.3299 74.7906 80.6947 93.0525 57.935 92.8199L40.4978 92.6417C18.1314 92.4132 0.181536 74.0964 0.405598 51.73L0.449046 47.3929C0.648099 27.523 20.3191 13.7385 39.0654 20.3324L49.0765 23.8538C52.1604 24.9386 55.5493 24.8859 58.6028 23.7195C78.3965 16.1579 99.7701 30.8417 99.5579 52.0309Z" fill="#DBE7FB"/>
<g filter="url(#filter0_d_2429_17178)">
<path d="M34.5252 53.2524L34.4194 19.5499C34.4108 16.7885 32.1673 14.649 29.4086 14.7712L9.77739 15.6406C8.57797 15.6937 7.41995 16.1771 6.51495 17.0023L4.14719 19.1614C3.06323 20.1499 2.43766 21.5409 2.43025 22.9794L2.26716 54.6395C2.25285 57.4181 4.503 59.5827 7.27792 59.4598L29.5458 58.4736C32.3045 58.3514 34.5339 56.0138 34.5252 53.2524Z" fill="white"/>
<path d="M7.96951 20.748C7.9736 21.0482 7.70616 21.2933 7.40227 21.2678L3.33374 20.9262C2.90414 20.8901 2.73733 20.3725 3.06001 20.0769L7.07374 16.3991C7.39642 16.1035 7.90892 16.3043 7.9147 16.7287L7.96951 20.748Z" fill="#B9CFE6"/>
</g>
<g filter="url(#filter1_d_2429_17178)">
<path d="M95.0641 48.2884L94.9339 6.80537C94.9252 4.04396 92.6818 1.90445 89.9231 2.02663L65.5764 3.10491C64.377 3.15803 63.219 3.64138 62.314 4.46662L58.9713 7.51473C57.8873 8.50316 57.2617 9.89425 57.2543 11.3327L57.0555 49.9303C57.0412 52.7088 59.2913 54.8734 62.0663 54.7505L90.0847 53.5096C92.8434 53.3874 95.0727 51.0498 95.0641 48.2884Z" fill="white"/>
<path d="M63.4096 8.22976C63.4178 8.83019 62.8829 9.32029 62.2752 9.26926L58.859 8.98246C57.9998 8.91033 57.6661 7.87514 58.3115 7.2838L61.6817 4.19574C62.327 3.60439 63.352 4.00609 63.3636 4.85489L63.4096 8.22976Z" fill="#B9CFE6"/>
</g>
<path d="M5.10407 33.9977C5.10554 34.0132 5.11474 34.2277 5.22193 34.4459C5.41388 34.8367 6.3959 32.7987 7.53573 30.8193C7.95931 30.0837 8.16678 30.0203 8.83782 30.4986C10.7252 31.8438 12.0012 33.0413 12.3036 32.7593C12.4792 32.5956 12.6041 32.2192 12.7534 32.0375C13.2552 31.4267 14.1987 32.0644 14.8104 31.6859C15.4123 31.3135 16.0107 31.4435 16.7042 31.0571C17.8597 30.4133 18.7482 32.7038 19.2184 32.2614C20.4187 31.1317 20.7282 29.35 21.05 29.2767C21.7409 29.1193 22.5372 29.9274 23.3192 30.4358C23.9649 30.8556 24.5895 30.0581 25.1421 30.4689C25.2817 30.5727 25.3791 30.7482 25.5029 30.7589C25.7773 30.7827 25.9641 30.1857 26.1778 29.7251C26.6218 28.7681 28.057 30.374 29.1698 29.8451C29.5233 29.6338 29.8152 29.6109 30.1167 29.6882C30.2669 29.7098 30.4114 29.6958 30.6048 29.8245" stroke="black" stroke-width="0.25" stroke-linecap="round"/>
<path d="M6.55413 38.7901C6.54656 38.7104 6.5438 38.4083 6.61232 37.9621C6.64642 37.7401 6.81329 37.6759 6.96365 37.7122C7.28466 37.7898 7.95841 38.8754 8.80484 39.9583C9.11708 40.3577 9.27543 40.1127 9.46207 39.7017C10.314 37.8253 10.3541 36.604 10.4126 36.0578C10.4516 35.694 11.3808 37.3602 12.3282 39.0203C12.7687 39.7922 14.1982 37.2322 15.1684 36.7697C15.9495 36.3972 17.0643 36.504 18.9108 36.0647C19.8108 35.8506 20.8436 35.8402 23.9073 35.7084C25.3971 35.6443 26.7297 35.4801 27.1973 34.8591C27.4354 34.5428 27.7557 34.477 28.0406 34.5224C28.3016 34.564 28.5175 35.1073 28.7747 35.2404C29.0856 35.4013 29.3824 34.795 29.7224 34.801C30.0046 34.9829 30.3182 35.4323 30.6641 35.8662C30.8256 35.9901 30.9583 35.9184 31.1648 35.7293" stroke="black" stroke-width="0.25" stroke-linecap="round"/>
<path d="M5.1415 44.8971C5.36624 44.8753 6.11115 45.0637 6.73531 45.6532C6.91733 45.8252 7.16314 45.8022 7.3672 45.6932C8.54795 45.0622 8.95864 42.2844 9.28706 42.1863C10.0826 41.9488 11.1657 42.3182 12.2589 42.8276C12.9299 43.1404 13.3036 44.3352 13.6295 44.7442C13.7839 44.9379 13.9733 44.9128 14.1477 44.7092C14.3221 44.5056 14.4903 44.0755 14.6838 43.8365C15.8886 42.3482 18.9204 45.1341 20.5948 45.0819C21.499 45.0536 21.9013 43.8833 22.5706 43.6981C23.205 43.5225 23.5945 42.0469 24.7033 41.7106C25.0836 41.5952 25.3339 41.3162 25.6214 41.1336C26.2092 40.76 26.9832 41.7553 27.5865 41.587C28.1117 41.4405 28.7186 41.4899 29.3306 41.6325C29.6046 41.6851 29.8707 41.7925 30.1658 41.9167C30.3321 41.959 30.5322 41.959 30.7621 41.9822" stroke="black" stroke-width="0.25" stroke-linecap="round"/>
<path d="M31.1643 46.2185C31.1589 46.219 31.1536 46.2195 28.6399 46.4802C26.1261 46.741 21.1041 47.2619 18.2382 47.5906C14.8076 47.984 13.9774 48.2658 13.5211 48.484C12.8358 48.8116 12.5622 49.4737 11.9543 49.823C11.6904 49.9746 11.351 50.0227 10.9547 50.0215C10.0485 50.0187 9.50078 49.3703 8.95973 48.771C8.75015 48.5388 8.61348 48.3349 8.36281 48.2798C7.54307 48.731 6.67291 49.3275 6.56894 49.4411C6.57826 49.471 6.71362 49.4448 6.85036 49.389" stroke="black" stroke-width="0.25" stroke-linecap="round"/>
<path d="M5.99219 53.8625C6.75344 53.7888 8.16731 53.4056 9.49661 53.2424C10.7541 53.088 11.9269 53.9192 13.2388 53.8428C14.0088 53.7979 14.4021 52.8424 14.8264 52.2942C15.3217 51.6541 16.7199 52.2616 19.2439 52.1286C20.503 52.0623 21.4193 51.0999 22.4691 51.4968C22.8182 51.6288 23.1912 51.9314 23.4634 52.0382C24.3964 52.4044 25.402 50.8162 26.4186 50.9482C27.47 51.0848 29.2166 51.2882 30.3352 50.9737C30.6429 50.6783 30.8776 50.3659 31.0791 50.1529C31.1978 50.0747 31.3499 50.0576 31.5358 50.1371" stroke="black" stroke-width="0.25" stroke-linecap="round"/>
<path d="M6.7063 22.9529C6.7063 24.5327 6.71558 27.829 6.85965 28.0342C7.42615 28.8409 9.99638 27.8911 11.3632 27.7653C13.0428 27.6106 11.5079 23.0143 11.4325 22.7576C11.3984 22.6413 11.3033 22.5802 11.1937 22.563C9.75465 22.6397 7.50199 22.7191 7.25111 22.7918C7.12627 22.8302 7.00646 22.8717 6.76895 22.931" stroke="black" stroke-width="0.25" stroke-linecap="round"/>
<path d="M7.6355 27.8588C7.68175 27.6737 7.94611 27.0512 8.26869 26.4739C8.40531 26.2294 8.5856 26.0513 8.76171 25.9101C9.4078 25.392 10.8795 25.8835 11.3103 26.1159C11.6338 26.4407 11.7722 26.8027 11.8001 27.0285C11.8096 27.1522 11.8096 27.2947 11.8096 27.4414" stroke="black" stroke-width="0.25" stroke-linecap="round"/>
<path d="M9.40058 25.1067C9.38083 24.9543 9.28322 24.445 9.2766 23.7262C9.27532 23.5871 9.43042 23.5713 9.53257 23.589C9.74069 23.6251 9.92054 23.7855 10.0917 23.9179C10.2627 24.0503 10.2838 24.3232 10.2526 24.578C10.2245 24.8078 10.0083 24.9514 9.82516 25.0598C9.73415 25.1137 9.62504 25.1218 9.52712 25.0948C9.42919 25.0678 9.34013 24.9945 9.29133 24.8401C9.24253 24.6858 9.2367 24.4526 9.27379 24.285C9.31088 24.1173 9.39106 24.0223 9.4824 23.9575C9.57374 23.8927 9.67381 23.8609 9.81064 23.8145" stroke="black" stroke-width="0.25" stroke-linecap="round"/>
<rect width="15.0183" height="13.8826" transform="matrix(0.104951 0.994477 -0.994257 0.107018 21.551 52.0691)" fill="#FFD647"/>
<path d="M33.5361 73.5688V76.1533" stroke="black" stroke-width="0.25" stroke-linecap="round"/>
<path d="M30.571 75.0925C30.5857 75.0925 30.6004 75.0925 32.3457 75.0584C34.091 75.0242 37.5666 74.9558 39.3133 74.9259C41.06 74.896 40.9726 74.9066 39.9033 75.3742C38.8341 75.8418 36.7857 76.7661 35.6061 77.2784C34.1903 77.8933 33.6845 77.9713 33.2393 78.0231C32.8607 78.0672 32.6117 78.0336 32.4542 77.9963C32.0196 77.8933 31.7685 77.4468 31.6584 77.0962C31.5721 76.8217 31.7358 76.503 31.992 76.2031C32.7178 75.3534 33.8681 75.2303 34.5025 75.1193C34.6239 75.098 34.7483 75.108 34.8461 75.1411C35.3041 75.2959 35.4635 75.8939 35.4995 75.9956C35.5239 76.0643 35.1994 75.7425 34.942 75.4694C34.8494 75.3712 34.8014 76.0671 34.7764 76.6606C34.7686 76.8463 34.7014 76.7917 34.6622 76.68C34.5668 76.4086 34.5592 75.8839 34.599 75.3584C34.6133 75.1692 34.7545 75.1615 34.8554 75.1714C35.4314 75.2276 36.0994 75.7154 36.4059 75.6915C36.4757 75.6861 36.5273 75.6322 36.6218 75.6148C36.7164 75.5974 36.8477 75.5971 36.9504 75.7348C37.1234 76.1483 37.3906 76.8607 37.7687 77.6557C37.9518 78.0224 38.1172 78.3143 38.3455 78.7028" stroke="black" stroke-width="0.25" stroke-linecap="round"/>
<path d="M37.0869 74.2562C37.0869 74.2512 37.0869 74.4968 37.1356 74.9137C37.156 75.0882 37.2817 75.1641 37.3721 75.1696C37.8832 75.2005 38.0204 74.3353 38.0844 74.2793C38.3115 74.0805 38.482 74.8301 38.73 75.0348C38.9191 75.1909 39.1795 74.541 39.3881 74.1513C39.4616 74.0141 39.5373 74.043 39.6025 74.0878C39.8821 74.3135 40.0977 74.4077 40.3015 74.4397C40.4371 74.452 40.6383 74.4565 40.8455 74.4611" stroke="black" stroke-width="0.25" stroke-linecap="round"/>
<path d="M36.5757 72.4575C36.5757 72.4599 36.5757 72.4622 36.5757 72.5058C36.5757 72.5495 36.5757 72.6343 36.5788 72.7579C36.5819 72.8815 36.5881 73.0413 36.6168 73.23" stroke="black" stroke-width="0.25" stroke-linecap="round"/>
<path d="M31.9897 76.4826C31.9921 76.4826 31.9944 76.4826 32.6083 76.481C33.2221 76.4793 34.4475 76.476 35.2114 76.4534C36.2423 76.423 36.6444 76.3139 37.4013 76.1762C38.0279 76.0709 39.1471 75.8935 40.0112 75.798C40.8754 75.7025 41.4506 75.6943 42.0304 75.6859" stroke="black" stroke-width="0.25" stroke-linecap="round"/>
<line x1="31.5442" y1="76.9773" x2="48.3997" y2="76.9773" stroke="#A7C8F7" stroke-width="0.25" stroke-dasharray="0.5 0.5"/>
<path d="M16.0298 63.641C15.8389 63.7399 15.6063 63.7495 15.396 63.6446L11.8846 61.9302L12.4754 60.5895L15.3722 62.0072L18.8343 55.4416L20.1077 56.18L16.3275 63.3494C16.2559 63.4819 16.1529 63.5811 16.0285 63.6455L16.0298 63.641Z" fill="#0665EC"/>
<ellipse opacity="0.1" cx="74.1795" cy="19.0261" rx="8.03689" ry="8.11653" fill="#6BCCFE"/>
<g filter="url(#filter2_d_2429_17178)">
<path d="M70.5353 25.3986C70.11 26.1426 69.1536 26.4052 68.4993 25.8498C68.0104 25.4348 67.5663 24.9665 67.1757 24.4523C66.47 23.5235 65.9524 22.4635 65.6524 21.3327C65.3524 20.2019 65.2758 19.0225 65.4271 17.8619C65.5784 16.7012 65.9546 15.582 66.5342 14.5682C67.1138 13.5543 67.8855 12.6657 68.8051 11.953C69.7248 11.2404 70.7744 10.7176 71.8941 10.4146C73.0138 10.1116 74.1816 10.0343 75.3309 10.1871C75.9671 10.2717 76.5908 10.4259 77.1911 10.646C77.9945 10.9406 78.2475 11.9083 77.8222 12.6523C77.3969 13.3963 76.4514 13.6256 75.6243 13.4085C75.396 13.3485 75.1637 13.3027 74.9288 13.2715C74.1806 13.172 73.4203 13.2223 72.6914 13.4196C71.9624 13.6168 71.2791 13.9572 70.6804 14.4211C70.0817 14.8851 69.5793 15.4636 69.202 16.1236C68.8246 16.7837 68.5797 17.5123 68.4812 18.2679C68.3827 19.0235 68.4325 19.7914 68.6279 20.5275C68.8232 21.2637 69.1602 21.9538 69.6196 22.5585C69.7638 22.7483 69.9192 22.9285 70.0848 23.0983C70.6845 23.7131 70.9606 24.6547 70.5353 25.3986Z" fill="url(#paint0_linear_2429_17178)"/>
</g>
<g filter="url(#filter3_d_2429_17178)">
<path d="M81.5198 21.0119C82.5004 21.2773 83.0963 22.3041 82.6484 23.2254C82.3743 23.7892 82.045 24.3257 81.6645 24.8264C80.9102 25.8192 79.9696 26.6522 78.8965 27.278C77.8234 27.9037 76.6387 28.3098 75.4102 28.4731C74.1817 28.6364 72.9333 28.5538 71.7364 28.2299C70.5395 27.906 69.4175 27.3472 68.4344 26.5854C67.4514 25.8236 66.6265 24.8737 66.007 23.79C65.3874 22.7062 64.9853 21.5099 64.8235 20.2692C64.7427 19.6489 64.7227 19.0236 64.763 18.4023C64.8298 17.373 65.8675 16.7763 66.855 17.0435C67.8356 17.3089 68.3835 18.3361 68.4417 19.3583C68.4498 19.5 68.463 19.6416 68.4814 19.7828C68.5799 20.5384 68.8248 21.267 69.2021 21.927C69.5794 22.587 70.0817 23.1655 70.6804 23.6294C71.2791 24.0933 71.9624 24.4337 72.6913 24.6309C73.4202 24.8281 74.1805 24.8785 74.9286 24.779C75.6768 24.6795 76.3982 24.4322 77.0518 24.0512C77.7053 23.6701 78.2781 23.1628 78.7375 22.5582C78.819 22.4508 78.8968 22.3408 78.9705 22.2283C79.5356 21.366 80.5323 20.7447 81.5198 21.0119Z" fill="url(#paint1_linear_2429_17178)"/>
</g>
<g filter="url(#filter4_d_2429_17178)">
<path d="M74.1795 26.9673C74.1795 28.1994 75.1905 29.223 76.3918 28.9498C78.2367 28.5303 79.9432 27.5907 81.3016 26.2188C83.1905 24.3112 84.2517 21.7239 84.2517 19.0261C84.2517 16.3284 83.1905 13.7411 81.3016 11.8334C79.9432 10.4616 78.2368 9.52203 76.3918 9.1025C75.1905 8.8293 74.1795 9.8529 74.1795 11.0849C74.1795 12.317 75.2161 13.2767 76.3519 13.754C77.0281 14.0382 77.6498 14.4551 78.1777 14.9883C79.2381 16.0592 79.8338 17.5117 79.8338 19.0261C79.8338 20.5406 79.2381 21.9931 78.1777 23.064C77.6498 23.5972 77.0281 24.014 76.3519 24.2982C75.2161 24.7756 74.1795 25.7353 74.1795 26.9673Z" fill="url(#paint2_linear_2429_17178)"/>
</g>
<g filter="url(#filter5_d_2429_17178)">
<ellipse cx="74.1794" cy="19.0262" rx="5.74064" ry="5.79752" fill="white"/>
</g>
<path d="M71.7203 19.9747H72.0317L72.8625 18.3033V18.0437H71.5613V18.2966H72.5697V18.3033L71.7203 19.9747Z" fill="#454459"/>
<path d="M73.7927 20.0069C74.1982 20.0069 74.4857 19.7713 74.4857 19.4408V19.4381C74.4857 19.1678 74.2976 18.9965 74.0166 18.9711V18.9644C74.2499 18.9149 74.4195 18.7543 74.4195 18.5148V18.5121C74.4195 18.215 74.1704 18.0116 73.7901 18.0116C73.4164 18.0116 73.162 18.2244 73.1328 18.5469L73.1315 18.5603H73.4098L73.4111 18.5482C73.4296 18.3689 73.578 18.2565 73.7901 18.2565C74.006 18.2565 74.1306 18.3649 74.1306 18.5509V18.5536C74.1306 18.7329 73.9822 18.8627 73.7636 18.8627H73.5396V19.0955H73.7715C74.0272 19.0955 74.1836 19.2173 74.1836 19.4354V19.4381C74.1836 19.6255 74.0259 19.7566 73.7927 19.7566C73.5555 19.7566 73.3952 19.6362 73.3766 19.4649L73.3753 19.4502H73.0904L73.0917 19.4676C73.1182 19.782 73.3846 20.0069 73.7927 20.0069Z" fill="#454459"/>
<path d="M75.1443 19.0112C75.3974 19.0112 75.5511 18.8225 75.5511 18.5188V18.5174C75.5511 18.2163 75.3974 18.0277 75.1443 18.0277C74.8912 18.0277 74.7362 18.2163 74.7362 18.5174V18.5188C74.7362 18.8225 74.8912 19.0112 75.1443 19.0112ZM75.2702 19.9747L76.4892 18.0437H76.2454L75.025 19.9747H75.2702ZM75.1443 18.8292C75.0237 18.8292 74.9548 18.7155 74.9548 18.5201V18.5188C74.9548 18.3221 75.0237 18.2097 75.1443 18.2097C75.2649 18.2097 75.3338 18.3221 75.3338 18.5188V18.5201C75.3338 18.7155 75.2649 18.8292 75.1443 18.8292ZM76.3687 19.9908C76.6217 19.9908 76.7755 19.8021 76.7755 19.4997V19.4983C76.7755 19.1959 76.6217 19.0072 76.3687 19.0072C76.1156 19.0072 75.9619 19.1959 75.9619 19.4983V19.4997C75.9619 19.8021 76.1156 19.9908 76.3687 19.9908ZM76.3687 19.8088C76.2481 19.8088 76.1792 19.6951 76.1792 19.4997V19.4983C76.1792 19.3016 76.2481 19.1906 76.3687 19.1906C76.4892 19.1906 76.5581 19.3016 76.5581 19.4983V19.4997C76.5581 19.6951 76.4892 19.8088 76.3687 19.8088Z" fill="#454459"/>
<rect x="61.2891" y="35.0465" width="13.881" height="1.00133" rx="0.500663" fill="#A7C8F7"/>
<rect x="61.2891" y="47.0625" width="13.881" height="1.00133" rx="0.500663" fill="#A7C8F7"/>
<rect width="28.7547" height="1.00133" rx="0.500664" transform="matrix(0.999964 -5.85954e-05 -4.15563e-06 1 61.2891 29.0386)" fill="#A7C8F7"/>
<rect x="61.2891" y="41.0546" width="28.7536" height="1.00133" rx="0.500664" fill="#A7C8F7"/>
<rect x="61.2891" y="37.0492" width="27.7621" height="1.00133" rx="0.500664" fill="#A7C8F7"/>
<rect x="61.2891" y="39.0519" width="28.7536" height="1.00133" rx="0.500664" fill="#A7C8F7"/>
<rect x="61.2891" y="31.0413" width="18.8385" height="1.00133" rx="0.500664" fill="#A7C8F7"/>
<rect x="61.2891" y="43.0571" width="18.8385" height="1.00133" rx="0.500664" fill="#A7C8F7"/>
<rect x="61.2891" y="33.0439" width="28.7536" height="1.00133" rx="0.500664" fill="#A7C8F7"/>
<rect x="61.2891" y="45.0598" width="28.7536" height="1.00133" rx="0.500664" fill="#A7C8F7"/>
<g filter="url(#filter6_d_2429_17178)">
<path d="M71.7305 92.6677L71.7305 38.2525C71.7305 35.4846 69.4845 33.3356 66.7197 33.4581L35.6555 34.8339C34.4561 34.887 33.2981 35.3704 32.3931 36.1956L27.6582 40.5131C26.5743 41.5016 25.9487 42.8927 25.9413 44.3311L25.6903 93.0529C25.6765 95.7454 27.7936 97.8781 30.4803 97.8781L66.5303 97.8781C69.3671 97.8781 71.7305 95.51 71.7305 92.6677Z" fill="white"/>
<path d="M33.8654 41.7908C33.8735 42.3913 33.3387 42.8814 32.7309 42.8303L27.8546 42.421C26.9954 42.3488 26.6618 41.3136 27.3071 40.7223L32.1177 36.3144C32.7631 35.7231 33.7881 36.1248 33.7997 36.9736L33.8654 41.7908Z" fill="#B9CFE6"/>
<rect x="29.561" y="73.0969" width="17.847" height="2.00265" rx="1.00133" fill="#A7C8F7"/>
<rect x="29.561" y="60.0797" width="36.6856" height="2.00265" rx="1.00133" fill="#A7C8F7"/>
<rect x="29.561" y="77.1023" width="35.6941" height="2.00265" rx="1.00133" fill="#A7C8F7"/>
<rect x="29.561" y="85" width="35.6941" height="2.00265" rx="1.00133" fill="#A7C8F7"/>
<rect x="29.561" y="81.1075" width="36.6856" height="2.00265" rx="1.00133" fill="#A7C8F7"/>
<rect x="29.561" y="89.0052" width="36.6856" height="2.00265" rx="1.00133" fill="#A7C8F7"/>
<rect x="29.561" y="64.0851" width="23.796" height="2.00265" rx="1.00133" fill="#A7C8F7"/>
<rect x="29.561" y="68.0903" width="36.6856" height="2.00265" rx="1.00133" fill="#A7C8F7"/>
<rect x="29.8108" y="47.3125" width="9.41502" height="9.51326" fill="white"/>
<rect x="29.8108" y="47.3125" width="9.41502" height="9.51326" stroke="black" stroke-width="0.5"/>
<path d="M32.4594 55.0657C32.243 55.0657 32.0299 54.9673 31.889 54.7772L29.5186 51.6381L30.6595 50.7184L32.6135 53.3112L38.7116 49.0691L39.5182 50.3112L32.8594 54.9435C32.7348 55.0284 32.5971 55.0691 32.4561 55.0691L32.4594 55.0657Z" fill="#0665EC"/>
</g>
<rect width="14.9198" height="13.9747" transform="matrix(0.82205 0.569415 -0.56183 0.827253 87.3403 47.0477)" fill="#FFD647"/>
<path d="M85.96 51.9213C85.9592 51.9284 85.9585 51.9354 85.8834 52.5707C85.8083 53.2059 85.6588 54.4692 85.6012 55.0982C85.5436 55.7272 85.5825 55.6837 85.6212 55.651C85.694 55.5895 86.3001 55.1936 87.1686 54.6277C87.4688 54.432 87.5004 54.4721 87.4999 54.5344C87.4987 54.6954 87.428 54.8504 87.2945 55.3566C87.1761 55.8054 86.9426 56.6388 86.8433 57.0683C86.744 57.4978 86.783 57.497 87.2725 57.3182C87.762 57.1394 88.7009 56.7827 89.328 56.5522C89.9551 56.3218 90.242 56.2284 90.2923 56.4264C90.3425 56.6243 90.1475 57.1164 90.415 57.215C90.6825 57.3137 91.4183 57.004 91.8489 56.8308C92.5513 56.5482 92.7815 56.572 93.2987 56.5987C93.7035 56.6367 94.476 56.7177 94.893 56.7648C95.31 56.8119 95.3482 56.8226 95.4253 56.8935" stroke="black" stroke-width="0.25" stroke-linecap="round"/>
<path d="M86.0008 51.7373C85.6538 52.255 84.8889 53.3434 84.7333 53.5578C84.6768 53.6356 84.5988 53.7399 84.5825 53.7865C84.5675 53.8296 84.7254 53.7627 85.0765 53.637C86.5712 53.1016 87.1335 53.2302 87.3048 53.1846C87.4682 53.141 87.0805 52.8705 86.7833 52.6505C86.4718 52.4199 86.2388 52.3257 86.0242 52.1969C85.9799 52.1651 85.9446 52.1358 85.9259 52.0966C85.9072 52.0573 85.9062 52.0089 85.945 51.9457" stroke="black" stroke-width="0.25" stroke-linecap="round"/>
</g>
<defs>
<filter id="filter0_d_2429_17178" x="0.26709" y="13.7662" width="36.2581" height="48.6985" filterUnits="userSpaceOnUse" color-interpolation-filters="sRGB">
<feFlood flood-opacity="0" result="BackgroundImageFix"/>
<feColorMatrix in="SourceAlpha" type="matrix" values="0 0 0 0 0 0 0 0 0 0 0 0 0 0 0 0 0 0 127 0" result="hardAlpha"/>
<feOffset dy="1"/>
<feGaussianBlur stdDeviation="1"/>
<feComposite in2="hardAlpha" operator="out"/>
<feColorMatrix type="matrix" values="0 0 0 0 0 0 0 0 0 0 0 0 0 0 0 0 0 0 0.25 0"/>
<feBlend mode="normal" in2="BackgroundImageFix" result="effect1_dropShadow_2429_17178"/>
<feBlend mode="normal" in="SourceGraphic" in2="effect1_dropShadow_2429_17178" result="shape"/>
</filter>
<filter id="filter1_d_2429_17178" x="55.0554" y="1.02161" width="42.0088" height="56.7339" filterUnits="userSpaceOnUse" color-interpolation-filters="sRGB">
<feFlood flood-opacity="0" result="BackgroundImageFix"/>
<feColorMatrix in="SourceAlpha" type="matrix" values="0 0 0 0 0 0 0 0 0 0 0 0 0 0 0 0 0 0 127 0" result="hardAlpha"/>
<feOffset dy="1"/>
<feGaussianBlur stdDeviation="1"/>
<feComposite in2="hardAlpha" operator="out"/>
<feColorMatrix type="matrix" values="0 0 0 0 0 0 0 0 0 0 0 0 0 0 0 0 0 0 0.25 0"/>
<feBlend mode="normal" in2="BackgroundImageFix" result="effect1_dropShadow_2429_17178"/>
<feBlend mode="normal" in="SourceGraphic" in2="effect1_dropShadow_2429_17178" result="shape"/>
</filter>
<filter id="filter2_d_2429_17178" x="45.3516" y="-14.8892" width="52.6748" height="56.0365" filterUnits="userSpaceOnUse" color-interpolation-filters="sRGB">
<feFlood flood-opacity="0" result="BackgroundImageFix"/>
<feColorMatrix in="SourceAlpha" type="matrix" values="0 0 0 0 0 0 0 0 0 0 0 0 0 0 0 0 0 0 127 0" result="hardAlpha"/>
<feOffset dy="-5"/>
<feGaussianBlur stdDeviation="10"/>
<feColorMatrix type="matrix" values="0 0 0 0 0 0 0 0 0 0 0 0 0 0 0 0 0 0 0.12 0"/>
<feBlend mode="normal" in2="BackgroundImageFix" result="effect1_dropShadow_2429_17178"/>
<feBlend mode="normal" in="SourceGraphic" in2="effect1_dropShadow_2429_17178" result="shape"/>
</filter>
<filter id="filter3_d_2429_17178" x="44.7429" y="-8.02014" width="58.0569" height="51.5748" filterUnits="userSpaceOnUse" color-interpolation-filters="sRGB">
<feFlood flood-opacity="0" result="BackgroundImageFix"/>
<feColorMatrix in="SourceAlpha" type="matrix" values="0 0 0 0 0 0 0 0 0 0 0 0 0 0 0 0 0 0 127 0" result="hardAlpha"/>
<feOffset dy="-5"/>
<feGaussianBlur stdDeviation="10"/>
<feColorMatrix type="matrix" values="0 0 0 0 0 0 0 0 0 0 0 0 0 0 0 0 0 0 0.12 0"/>
<feBlend mode="normal" in2="BackgroundImageFix" result="effect1_dropShadow_2429_17178"/>
<feBlend mode="normal" in="SourceGraphic" in2="effect1_dropShadow_2429_17178" result="shape"/>
</filter>
<filter id="filter4_d_2429_17178" x="54.1794" y="-15.942" width="50.0723" height="59.9363" filterUnits="userSpaceOnUse" color-interpolation-filters="sRGB">
<feFlood flood-opacity="0" result="BackgroundImageFix"/>
<feColorMatrix in="SourceAlpha" type="matrix" values="0 0 0 0 0 0 0 0 0 0 0 0 0 0 0 0 0 0 127 0" result="hardAlpha"/>
<feOffset dy="-5"/>
<feGaussianBlur stdDeviation="10"/>
<feColorMatrix type="matrix" values="0 0 0 0 0 0 0 0 0 0 0 0 0 0 0 0 0 0 0.12 0"/>
<feBlend mode="normal" in2="BackgroundImageFix" result="effect1_dropShadow_2429_17178"/>
<feBlend mode="normal" in="SourceGraphic" in2="effect1_dropShadow_2429_17178" result="shape"/>
</filter>
<filter id="filter5_d_2429_17178" x="43.4387" y="-6.77136" width="61.4812" height="61.5951" filterUnits="userSpaceOnUse" color-interpolation-filters="sRGB">
<feFlood flood-opacity="0" result="BackgroundImageFix"/>
<feColorMatrix in="SourceAlpha" type="matrix" values="0 0 0 0 0 0 0 0 0 0 0 0 0 0 0 0 0 0 127 0" result="hardAlpha"/>
<feOffset dy="5"/>
<feGaussianBlur stdDeviation="12.5"/>
<feColorMatrix type="matrix" values="0 0 0 0 0 0 0 0 0 0 0 0 0 0 0 0 0 0 0.1 0"/>
<feBlend mode="normal" in2="BackgroundImageFix" result="effect1_dropShadow_2429_17178"/>
<feBlend mode="normal" in="SourceGraphic" in2="effect1_dropShadow_2429_17178" result="shape"/>
</filter>
<filter id="filter6_d_2429_17178" x="23.6902" y="32.4531" width="50.0403" height="68.4249" filterUnits="userSpaceOnUse" color-interpolation-filters="sRGB">
<feFlood flood-opacity="0" result="BackgroundImageFix"/>
<feColorMatrix in="SourceAlpha" type="matrix" values="0 0 0 0 0 0 0 0 0 0 0 0 0 0 0 0 0 0 127 0" result="hardAlpha"/>
<feOffset dy="1"/>
<feGaussianBlur stdDeviation="1"/>
<feComposite in2="hardAlpha" operator="out"/>
<feColorMatrix type="matrix" values="0 0 0 0 0 0 0 0 0 0 0 0 0 0 0 0 0 0 0.12 0"/>
<feBlend mode="normal" in2="BackgroundImageFix" result="effect1_dropShadow_2429_17178"/>
<feBlend mode="normal" in="SourceGraphic" in2="effect1_dropShadow_2429_17178" result="shape"/>
</filter>
<linearGradient id="paint0_linear_2429_17178" x1="69.7652" y1="26.7457" x2="78.7235" y2="11.3817" gradientUnits="userSpaceOnUse">
<stop stop-color="#7AD3FF"/>
<stop offset="1" stop-color="#4FBAF0"/>
</linearGradient>
<linearGradient id="paint1_linear_2429_17178" x1="78.8965" y1="27.2779" x2="69.3205" y2="10.8545" gradientUnits="userSpaceOnUse">
<stop stop-color="#FFD572"/>
<stop offset="1" stop-color="#FEBD38"/>
</linearGradient>
<linearGradient id="paint2_linear_2429_17178" x1="84.2517" y1="19.0261" x2="64.1073" y2="19.0261" gradientUnits="userSpaceOnUse">
<stop stop-color="#B09FFF"/>
<stop offset="1" stop-color="#8D79F6"/>
</linearGradient>
<clipPath id="clip0_2429_17178">
<rect width="100" height="100" fill="white"/>
</clipPath>
</defs>
</svg>
