<svg width="100" height="100" viewBox="0 0 100 100" fill="none" xmlns="http://www.w3.org/2000/svg">
<g clip-path="url(#clip0_2429_16863)">
<path d="M56.7589 5.62405C82.1046 12.4154 97.1459 38.4676 90.3545 63.8133C83.5632 89.159 57.5109 104.2 32.1653 97.4089L17.2349 93.4083C9.76639 91.4072 5.33422 83.7304 7.33541 76.2619L21.5763 23.1141C25.2928 9.24396 39.5496 1.01282 53.4197 4.72931L56.7589 5.62405Z" fill="#DBE7FB"/>
<g filter="url(#filter0_d_2429_16863)">
<rect x="21.7119" y="17" width="59" height="73" rx="7" fill="#F3EFEA"/>
</g>
<rect x="26.9619" y="23.25" width="9.5" height="9.5" fill="white" stroke="black" stroke-width="0.5"/>
<rect x="26.9619" y="36.25" width="9.5" height="9.5" fill="white" stroke="black" stroke-width="0.5"/>
<rect x="26.9619" y="49.25" width="9.5" height="9.5" fill="white" stroke="black" stroke-width="0.5"/>
<rect x="26.9619" y="62.25" width="9.5" height="9.5" fill="white" stroke="black" stroke-width="0.5"/>
<rect x="26.9619" y="75.25" width="9.5" height="9.5" fill="white" stroke="black" stroke-width="0.5"/>
<rect x="39.7119" y="36" width="18" height="2" rx="1" fill="#3F8BEE"/>
<rect x="39.7119" y="23" width="37" height="2" rx="1" fill="#3F8BEE"/>
<rect x="39.7119" y="40" width="36" height="2" rx="1" fill="#3F8BEE"/>
<rect x="39.7119" y="49" width="37" height="2" rx="1" fill="#3F8BEE"/>
<rect x="39.7119" y="62" width="37" height="2" rx="1" fill="#3F8BEE"/>
<rect x="39.7119" y="75" width="8" height="2" rx="1" fill="#3F8BEE"/>
<rect x="39.7119" y="44" width="37" height="2" rx="1" fill="#3F8BEE"/>
<rect x="39.7119" y="27" width="24" height="2" rx="1" fill="#3F8BEE"/>
<rect x="39.7119" y="53" width="33" height="2" rx="1" fill="#3F8BEE"/>
<rect x="39.7119" y="66" width="24" height="2" rx="1" fill="#3F8BEE"/>
<rect x="39.7119" y="79" width="33" height="2" rx="1" fill="#3F8BEE"/>
<rect x="39.7119" y="31" width="37" height="2" rx="1" fill="#3F8BEE"/>
<rect x="39.7119" y="57" width="23" height="2" rx="1" fill="#3F8BEE"/>
<rect x="39.7119" y="70" width="37" height="2" rx="1" fill="#3F8BEE"/>
<rect x="39.7119" y="83" width="19" height="2" rx="1" fill="#3F8BEE"/>
<path d="M29.567 30.1601C29.3569 30.1601 29.1501 30.0754 29.0132 29.9119L26.7122 27.2106L27.8197 26.4193L29.7166 28.6503L35.6363 25L36.4192 26.0688L29.9553 30.055C29.8343 30.128 29.7007 30.163 29.5638 30.163L29.567 30.1601Z" fill="#0665EC"/>
<path d="M29.567 43.1601C29.3569 43.1601 29.1501 43.0754 29.0132 42.9119L26.7122 40.2106L27.8197 39.4193L29.7166 41.6503L35.6363 38L36.4192 39.0688L29.9553 43.055C29.8343 43.128 29.7007 43.163 29.5638 43.163L29.567 43.1601Z" fill="#0665EC"/>
<rect x="15.1291" y="61.8151" width="15.5273" height="3.30546" rx="0.225" transform="rotate(-30 15.1291 61.8151)" fill="#A7C8F7" stroke="black" stroke-width="0.25"/>
<rect x="15.1291" y="61.8151" width="0.861093" height="3.30546" rx="0.225" transform="rotate(-30 15.1291 61.8151)" fill="#3F8BEE" stroke="black" stroke-width="0.25"/>
<rect x="13.5414" y="62.7317" width="2.08328" height="3.30546" rx="0.225" transform="rotate(-30 13.5414 62.7317)" fill="#FF7600" stroke="black" stroke-width="0.25"/>
<path d="M31.5563 54.3641L30.1966 56.7199L30.0884 56.9075L28.5118 54.1767L28.7283 54.1768L31.4479 54.1763L31.6645 54.1765L31.5563 54.3641Z" fill="#FEBFAB" stroke="black" stroke-width="0.25"/>
<path d="M31.5024 54.3273L31.238 54.7855L31.1299 54.9732L30.6484 54.1393L30.865 54.1394L31.394 54.1396L31.6105 54.1397L31.5024 54.3273Z" fill="black" stroke="black" stroke-width="0.25"/>
</g>
<defs>
<filter id="filter0_d_2429_16863" x="17.7119" y="17" width="67" height="81" filterUnits="userSpaceOnUse" color-interpolation-filters="sRGB">
<feFlood flood-opacity="0" result="BackgroundImageFix"/>
<feColorMatrix in="SourceAlpha" type="matrix" values="0 0 0 0 0 0 0 0 0 0 0 0 0 0 0 0 0 0 127 0" result="hardAlpha"/>
<feOffset dy="4"/>
<feGaussianBlur stdDeviation="2"/>
<feComposite in2="hardAlpha" operator="out"/>
<feColorMatrix type="matrix" values="0 0 0 0 0 0 0 0 0 0 0 0 0 0 0 0 0 0 0.09 0"/>
<feBlend mode="normal" in2="BackgroundImageFix" result="effect1_dropShadow_2429_16863"/>
<feBlend mode="normal" in="SourceGraphic" in2="effect1_dropShadow_2429_16863" result="shape"/>
</filter>
<clipPath id="clip0_2429_16863">
<rect width="100" height="100" fill="white"/>
</clipPath>
</defs>
</svg>
