<svg width="100" height="92" viewBox="0 0 100 92" fill="none" xmlns="http://www.w3.org/2000/svg">
<path fill-rule="evenodd" clip-rule="evenodd" d="M78.4941 28.676C89.1633 41.8845 101.073 54.2576 99.9227 65.4115C98.7949 76.5428 84.5618 86.4548 70.9377 90.2029C57.2911 93.9284 44.2534 91.4899 31.0128 86.2968C17.7947 81.1263 4.37367 73.2011 0.922531 61.9118C-2.50605 50.645 4.03532 35.9915 13.712 23.0087C23.3887 10.0486 36.2008 -1.26335 47.2986 0.11395C58.4189 1.46867 67.8249 15.49 78.4941 28.676Z" fill="#DBE7FB"/>
<g clip-path="url(#clip0_403_7439)">
<path d="M75.7096 11.6055H21.6738V80.8019H75.7096V11.6055Z" fill="#F3EFEA"/>
<path d="M36.5436 17.0625H25.8496V27.767H36.5436V17.0625Z" fill="white" stroke="black" stroke-width="0.25" stroke-linecap="round" stroke-linejoin="round"/>
<path d="M28.3015 26.8771C27.9355 26.8771 27.5749 26.716 27.3364 26.4051L23.3262 21.2694L25.2564 19.7648L28.5622 24.0066L38.8791 17.0664L40.2435 19.0985L28.9782 26.6772C28.7675 26.816 28.5345 26.8826 28.296 26.8826L28.3015 26.8771Z" fill="#0665EC"/>
<path d="M41.7129 18.8047H65.6579" stroke="#3F8BEE" stroke-width="3" stroke-miterlimit="10"/>
<path d="M41.7129 26.0156H69.2854" stroke="#3F8BEE" stroke-width="3" stroke-miterlimit="10"/>
<path d="M41.7129 22.4141H72.1863" stroke="#3F8BEE" stroke-width="3" stroke-miterlimit="10"/>
<path d="M36.5436 32.6602H25.8496V43.3647H36.5436V32.6602Z" fill="white" stroke="black" stroke-width="0.25" stroke-linecap="round" stroke-linejoin="round"/>
<path d="M28.3015 42.4825C27.9355 42.4825 27.5749 42.3215 27.3364 42.0106L23.3262 36.8749L25.2564 35.3702L28.5622 39.6121L38.8791 32.6719L40.2435 34.704L28.9782 42.2826C28.7675 42.4214 28.5345 42.4881 28.296 42.4881L28.3015 42.4825Z" fill="#0665EC"/>
<path d="M41.7129 33.9648H65.6579" stroke="#3F8BEE" stroke-width="3" stroke-miterlimit="10"/>
<path d="M41.7129 41.1758H69.2854" stroke="#3F8BEE" stroke-width="3" stroke-miterlimit="10"/>
<path d="M41.7129 37.5742H72.1863" stroke="#3F8BEE" stroke-width="3" stroke-miterlimit="10"/>
<path d="M36.5436 48.2617H25.8496V58.9663H36.5436V48.2617Z" fill="white" stroke="black" stroke-width="0.25" stroke-linecap="round" stroke-linejoin="round"/>
<path d="M28.3015 58.0841C27.9355 58.0841 27.5749 57.9231 27.3364 57.6122L23.3262 52.4764L25.2564 50.9718L28.5622 55.2136L38.8791 48.2734L40.2435 50.3055L28.9782 57.8842C28.7675 58.023 28.5345 58.0896 28.296 58.0896L28.3015 58.0841Z" fill="#0665EC"/>
<path d="M41.7129 49.5664H65.6579" stroke="#3F8BEE" stroke-width="3" stroke-miterlimit="10"/>
<path d="M41.7129 56.7773H69.2854" stroke="#3F8BEE" stroke-width="3" stroke-miterlimit="10"/>
<path d="M41.7129 53.168H72.1863" stroke="#3F8BEE" stroke-width="3" stroke-miterlimit="10"/>
<path d="M36.5436 63.8633H25.8496V74.5678H36.5436V63.8633Z" fill="white" stroke="black" stroke-width="0.25" stroke-linecap="round" stroke-linejoin="round"/>
<path d="M41.7129 65.6133H65.6579" stroke="#3F8BEE" stroke-width="3" stroke-miterlimit="10"/>
<path d="M41.7129 72.8242H69.2854" stroke="#3F8BEE" stroke-width="3" stroke-miterlimit="10"/>
<path d="M41.7129 69.2148H72.1863" stroke="#3F8BEE" stroke-width="3" stroke-miterlimit="10"/>
<path d="M14.8743 62.9223L13.0772 59.1413C12.7 58.3474 13.0716 57.4091 13.9036 57.0482L16.8711 55.7656L20.0327 62.4282L17.0652 63.7107C16.2277 64.0716 15.2459 63.7163 14.8687 62.9223H14.8743Z" fill="#FF7600"/>
<path d="M35.1631 49.8708L31.9238 49.2656L33.5046 52.5969L35.091 55.9282L36.7439 53.2021L35.1631 49.8708Z" fill="#FEBFAB"/>
<path d="M35.0916 55.9282L31.9244 49.2656L18.4238 55.1009L21.5854 61.7635L35.0916 55.9282Z" fill="#A7C8F7"/>
<path d="M18.4239 55.1016L16.8652 55.7734L20.0268 62.436L21.5855 61.7641L18.4239 55.1016Z" fill="#3F8BEE"/>
<path d="M32.0293 49.4766L34.9857 55.7116" stroke="black" stroke-width="0.25" stroke-linecap="round" stroke-linejoin="round"/>
<path d="M18.5234 55.3125L21.4854 61.5476" stroke="black" stroke-width="0.25" stroke-linecap="round" stroke-linejoin="round"/>
<path d="M16.9648 55.9844L19.9268 62.2194" stroke="black" stroke-width="0.25" stroke-linecap="round" stroke-linejoin="round"/>
<path d="M32.9791 51.4883L19.4785 57.3236" stroke="black" stroke-width="0.25" stroke-miterlimit="10" stroke-linecap="square"/>
<path d="M34.0338 53.7109L20.5332 59.5462" stroke="black" stroke-width="0.25" stroke-miterlimit="10" stroke-linecap="square"/>
<path d="M38.3978 50.4818L35.1641 49.8711L36.7449 53.2024L38.3978 50.4818Z" fill="#A7C8F7" stroke="black" stroke-width="0.25" stroke-linecap="round" stroke-linejoin="round"/>
</g>
<defs>
<clipPath id="clip0_403_7439">
<rect width="62.7829" height="69.1964" fill="white" transform="translate(12.9336 11.6055)"/>
</clipPath>
</defs>
</svg>
